<svg width="1090.29518" height="674.01653" xmlns="http://www.w3.org/2000/svg" data-name="Layer 1">
 <title>Ride_till_I_can_no_more</title>

 <g>
  <title>Layer 1</title>
  <ellipse transform="rotate(2.43603, 506.004, 615.808)" ry="26.00045" rx="243.50422" id="svg_56" cy="615.80817" cx="506.00381" fill="#f2f2f2"/>
  <polygon id="svg_1" fill="#a3604e" points="393,518.3560676574707 411.7099914550781,570.4610481262207 401,607.8560676574707 421,607.8560676574707 429,565.3560676574707 424,502.3560676574707 393,518.3560676574707 "/>
  <path id="svg_2" fill="#f2f2f2" d="m942.58477,372.4855c-23.00083,22.39038 -25.81021,56.8096 -25.81021,56.8096s34.48232,-1.88275 57.48315,-24.27313s25.81021,-56.80959 25.81021,-56.80959s-34.48233,1.88275 -57.48315,24.27312z"/>
  <path id="svg_11" fill="#f2f2f2" d="m920.85421,623.85633l-217.64107,0s-4.41164,-64.7041 21.69058,-65.43937s23.16113,28.67568 55.88082,-11.76438s72.42447,-38.23424 77.57139,-14.33784s-9.9262,43.01352 17.64657,37.13133s67.27756,9.55856 44.85171,54.41026z"/>
  <path id="svg_12" fill="#fff" d="m808.35982,623.87105l-0.73455,-0.02944c1.71306,-42.60064 10.63508,-69.972 17.818,-85.43178c7.799,-16.78654 15.31438,-23.58208 15.38941,-23.64886l0.48863,0.54948c-0.074,0.06606 -7.50173,6.7941 -15.23827,23.467c-7.14325,15.39445 -16.01645,42.65344 -17.72322,85.0936z"/>
  <path id="svg_13" fill="#fff" d="m887.12959,623.95901l-0.70584,-0.20536a114.05766,114.05766 0 0 1 28.71593,-47.77524l0.494,0.54428a113.28289,113.28289 0 0 0 -28.50409,47.43632z"/>
  <path id="svg_14" fill="#fff" d="m737.49259,623.90696l-0.72846,-0.10125a80.08,80.08 0 0 0 -7.20284,-46.80693a64.44942,64.44942 0 0 0 -11.3677,-16.58782l0.50873,-0.53063a65.25638,65.25638 0 0 1 11.5181,16.79282a80.814,80.814 0 0 1 7.27217,47.23381z"/>
  <path id="svg_16" fill="#96bd13" d="m112.1167,623.64641l-0.50195,-1.03125c-0.15283,-0.31347 -15.188,-31.74316 -6.80518,-62.73144c8.3833,-30.98926 37.21289,-50.55274 37.50293,-50.7461l0.95264,-0.63769l0.50195,1.03125c0.15283,0.31347 15.188,31.74316 6.80469,62.73144c-8.38281,30.98926 -37.2124,50.55274 -37.50244,50.7461l-0.95264,0.63769zm30.3418,-112.16308c-5.04737,3.67187 -28.398,21.8623 -35.71826,48.92187c-7.32569,27.08106 3.67431,54.54492 6.1831,60.25781c5.04737,-3.67187 28.398,-21.8623 35.71778,-48.92187l0,0c7.32617,-27.0811 -3.67383,-54.54496 -6.18262,-60.25785l0,0.00004z"/>
  <path id="svg_17" fill="#96bd13" d="m73.35215,572.0019c8.38218,30.98558 37.093,50.17572 37.093,50.17572s15.12066,-31.0474 6.73848,-62.033s-37.093,-50.17573 -37.093,-50.17573s-15.12066,31.04743 -6.73848,62.03301z"/>
  <path id="svg_18" fill="#96bd13" d="m112.56934,623.21278l-1.14453,-0.0625c-0.34864,-0.01856 -35.12256,-2.16211 -58.12647,-24.55469c-23.00293,-22.39258 -26.08056,-57.09668 -26.10888,-57.44531l-0.09327,-1.1416l1.14453,0.0625c0.34864,0.01855 35.12256,2.16211 58.126,24.55468c23.00342,22.39356 26.08106,57.09668 26.10938,57.44532l0.09324,1.1416zm-83.2583,-81.04883c0.75439,6.19531 5.2959,35.44531 25.38281,54.99805c20.08691,19.55469 49.44678,23.30761 55.66064,23.89551c-0.75439,-6.19629 -5.29589,-35.44434 -25.3833,-54.99805l0,0c-20.1016,-19.56934 -49.44922,-23.31055 -55.66015,-23.89551z"/>
  <path id="svg_19" fill="#8bad11" d="m137.28959,565.34276c-23.00082,22.39038 -25.81021,56.8096 -25.81021,56.8096s34.48233,-1.88275 57.48315,-24.27313s25.81021,-56.80959 25.81021,-56.80959s-34.48232,1.88277 -57.48315,24.27312z"/>
  <circle id="svg_20" fill="#ffe66d" r="15" cy="489.85633" cx="111"/>
  <path id="svg_21" fill="#2f2e41" d="m503.89359,218.23397c-8.8288,-14.91794 -26.29587,-15.61318 -26.29587,-15.61318s-17.02066,-2.17658 -27.93931,20.54362c-10.177,21.17709 -24.22268,41.624 -2.26123,46.58141l3.96687,-12.34669l2.45667,13.26589a85.92919,85.92919 0 0 0 9.39648,0.16059c23.51894,-0.75933 45.91718,0.22216 45.196,-8.21743c-0.95867,-11.21923 3.97551,-30.02017 -4.51961,-44.37421z"/>
  <path id="svg_22" fill="#ffb8b8" d="m439.21921,379.63101s-6.68348,16.84117 5.57219,18.70587s8.06125,-17.79389 8.06125,-17.79389l-13.63344,-0.91198z"/>
  <path id="svg_23" fill="#d0cde1" d="m458.44159,278.29564l0.55845,-4.43931c-2.49059,-0.49952 -6.07976,1.63236 -7,4c-1.68988,4.34785 -4.81977,15.63405 -7.98082,26.70512c-5.12756,17.95847 -9.3643,46.26715 -9.09705,49.37221a148.29746,148.29746 0 0 0 1.59668,16.12851c1.31585,8.01971 3.03635,6.20333 0.9731,8.88336a4.89283,4.89283 0 0 0 -0.58961,5.26418s11.20027,-5.5518 17.088,2.28295a10.352,10.352 0 0 0 2.406,-3.54368c0.85685,-2.15912 3.00918,-3.80413 1.36417,-5.95646s4.03742,-6.39508 1.78242,-10.78882s-2.85819,-4.13329 -1.22677,-6.98469s4.68385,-20.36268 4.68385,-20.36268l-4.55842,-60.56069z"/>
  <path id="svg_24" fill="#ffb8b8" d="m441.44885,358.27901s-39.12585,3.89677 -32.15705,19.69271s6.96879,17.18969 6.96879,17.18969l34.37941,61.32542l11.15008,-11.61466s-12.54384,-27.41061 -12.54384,-36.23775s-13.00843,-24.15851 -13.00843,-24.15851l22.76475,-1.85834l-17.55371,-24.33856z"/>
  <path id="svg_25" fill="#2f2e41" d="m501.27995,377.97172s-31.59189,10.22091 -50.63994,6.50421c0,0 5.575,-17.65429 -14.40219,-25.55226l45.0649,-5.575"/>
  <path id="svg_26" fill="#2f2e41" d="m453.42753,448.1243s-12.54384,-1.85835 -9.29173,9.29173l6.50421,22.30015s-8.36256,22.76475 4.64586,17.65429s21.371,-36.70234 21.371,-36.70234s5.575,-24.1585 0,-24.1585s-23.22933,-3.71669 -21.371,0s-1.85834,11.61467 -1.85834,11.61467z"/>
  <path id="svg_27" fill="#2f2e41" d="m453.15113,315.12704l-21.15113,-7.27069l15.94721,-2.27819a126.48188,126.48188 0 0 0 -21.09949,-27.16156l-38.84772,4.43975l29.32559,-12.56811c-62.96868,-47.36615 -148.82562,5.06811 -148.82562,5.06811l206,107c-5.1268,-27.47442 -12.46762,-49.56787 -21.34884,-67.22931z"/>
  <path id="svg_28" fill="#2f2e41" d="m687.12796,380.67627s46.69326,-34.07346 95.91048,12.6198s88.3386,0 88.3386,0l31.5495,35.33544l-13.88178,15.14375l23.97762,-3.78593l23.97762,31.54949s-104.74434,55.52712 -170.3673,-37.85939s-155.22354,-5.04792 -155.22354,-5.04792l75.7188,-47.95524z"/>
  <path id="svg_29" fill="#2f2e41" d="m401.05559,603.79334l-12.55556,18.563s32,3 32,-3a42.99831,42.99831 0 0 1 2.24561,-12.34055l-21.69005,-3.22245z"/>
  <polygon id="svg_30" fill="#a3604e" points="645.5,515.3560676574707 578.5,567.3560676574707 567.5,603.3560676574707 589.5,597.3560676574707 612,562.8560676574707 683.5,524.3560676574707 645.5,515.3560676574707 "/>
  <path id="svg_31" fill="#2f2e41" d="m567.5,603.35633s-3,20 3,20s25,-20 25,-20l-3.5,-8.5l-24.5,8.5z"/>
  <path id="svg_32" fill="#bb6b52" d="m354.5,470.35633l-56,36l-19,83l18,-6s2,-77 36,-78s84,-2 89,-31s-68,-4 -68,-4z"/>
  <path id="svg_33" fill="#2f2e41" d="m283.5,582.35633l-4,7l2,18s26,-10 24,-18s-8,-7 -8,-7l-14,0z"/>
  <path id="svg_34" fill="#bb6b52" d="m586.5,466.35633s13,47 97,61c0,0 49.5,-0.5 40.5,38.5s-10.5,42.5 -10.5,42.5l21,4l7.5,-91.5l-50.5,-63.5l-105,9z"/>
  <path id="svg_35" fill="#2f2e41" d="m715,603.85633s-14.5,15.5 -11.5,17.5s29,5 31,-1s0,-16 0,-16l-19.5,-0.5z"/>
  <path id="svg_36" fill="#bb6b52" d="m637.90998,498.30635a71.54241,71.54241 0 0 1 -42.94,-14.23005c-12.36,5.29 -26.68,11.12 -42.78,17.21c-2.42,0.91 -4.87,1.83 -7.37,2.76q-12.09,4.47 -25.39,9.06c-2.91,1 -5.86,2.01 -8.85,3.01q-17.40006,5.83494 -36.59,11.62q-4.545,1.365 -9.2,2.71c-0.76,0.23 -1.52,0.45 -2.29,0.67c-85.04,24.56 -121.96,-60.5 -135.15,-104.81c-0.34,-1.16 -0.68,-2.30005 -0.99,-3.44a105.73974,105.73974 0 0 1 -3.53,-33.52c1.29,-27.59 -11.77,-55.1 -11.77,-55.1a401.30445,401.30445 0 0 1 -15.15,69.41c-11.35,35.33 -50.48,16.4 -44.17,0c6.31,-16.41 -6.31,-51.74 -6.31,-51.74c-21.45,-64.36 13.89,-73.2 13.89,-73.2c111.88,-58.96 210.02,88.57 218.93,102.45l125.33,-18.02a71.93977,71.93977 0 1 1 34.33,135.16l0,0.00005z"/>
  <polygon id="svg_37" fill="#a3604e" points="263.1029968261719,291.33806228637695 258.05499267578125,249.69209671020508 279.50799560546875,279.9800605773926 263.1029968261719,291.33806228637695 "/>
  <polygon id="svg_38" fill="#a3604e" points="252.10299682617188,294.33806228637695 247.05499267578125,252.69209671020508 268.50799560546875,282.9800605773926 252.10299682617188,294.33806228637695 "/>
  <path id="svg_39" fill="#ffd1ba" d="m548.66778,377.04255l13.00842,28.33978s9.75632,9.75632 20.44181,48.78159s13.00842,37.63149 13.00842,37.63149l-16.26053,3.25211s-18.11887,-42.27738 -24.1585,-45.52948s-13.473,-32.98565 -13.473,-32.98565l-21.371,-26.946l6.50419,-14.40219l22.30019,1.85835z"/>
  <path id="svg_40" fill="#2f2e41" d="m481.30272,353.34863l-1.85834,-9.75631l4.64586,-9.29174l48.78159,10.22091l19.97723,37.16692s-25.08768,-11.61466 -28.80437,13.9376l-22.76474,-17.65429"/>
  <path id="svg_41" fill="#2f2e41" d="m593.73267,485.29122s-16.26053,-4.18128 -19.97722,2.32293s-2.78752,27.8752 -2.78752,28.33979s5.575,5.11045 7.43339,5.11045s13.473,20.90639 29.269,13.473s-13.93765,-49.24617 -13.93765,-49.24617z"/>
  <circle id="svg_42" fill="#ffd1ba" r="18.11887" cy="239.06033" cx="476.65685"/>
  <path id="svg_43" fill="#ffd1ba" d="m491.52359,242.77703s3.71669,19.51263 6.9688,22.30015s-24.62309,6.9688 -24.62309,6.9688s4.18128,-13.473 -0.92918,-20.44181s18.58347,-8.82714 18.58347,-8.82714z"/>
  <path id="svg_44" fill="#d0cde1" d="m540.30522,353.34863c-3.16386,0 -11.21978,-1.31013 -20.25137,-2.99659c-7.81427,-1.4588 -16.36738,-3.1917 -23.11318,-4.59476c-7.22429,-1.50526 -12.38584,-2.62955 -12.38584,-2.62955s-1.85835,11.61466 -7.898,10.2209c-5.20335,-1.19864 -20.75305,-55.51344 -24.95758,-70.52423a5.22182,5.22182 0 0 1 2.309,-5.86773l21.357,-13.041l5.47285,2.09064s9.24528,-7.14535 14.61122,-7.28937s14.65773,-1.53778 14.65773,-1.53778s10.68549,0.92917 12.54384,8.82715s2.78752,57.14415 9.75632,65.97129s16.72515,21.37103 7.89801,21.37103z"/>
  <path id="svg_45" fill="#ffd1ba" d="m508.71333,381.22383s-4.18128,21.371 -13.00842,18.11887s0,-22.30015 0,-22.30015l13.00842,4.18128z"/>
  <path id="svg_46" opacity="0.15" d="m528.22597,330.58389s-4.54832,10.85274 -8.17212,19.76815c-7.81427,-1.4588 -16.36738,-3.1917 -23.11318,-4.59476a13.30244,13.30244 0 0 1 2.01634,-3.55872c3.25211,-3.7167 1.39376,-4.64587 1.39376,-4.64587c-2.78752,-5.575 -0.46458,-13.00842 -0.46458,-13.00842c-5.575,-14.86677 2.78752,-33.45024 2.78752,-33.45024l25.55226,39.48986z"/>
  <path id="svg_47" fill="#d0cde1" d="m504.06747,291.09403s-8.36256,18.58347 -2.78752,33.45024c0,0 -2.32294,7.43338 0.46458,13.00842c0,0 1.85835,0.92917 -1.39376,4.64587s-6.03962,16.72511 -3.71669,19.51263s-3.25211,7.898 -1.85835,10.68549s-2.32293,6.50422 -2.32293,6.50422s13.9376,2.78751 16.26053,6.96879c0,0 2.78752,-3.2521 1.39376,-6.96879s-0.46459,-5.11046 0.92917,-7.43339s5.575,-7.43339 6.03963,-9.75632s12.54384,-31.1273 12.54384,-31.1273l-5.66494,-52.49178l-19.88732,13.00192z"/>
  <circle id="svg_48" fill="#2f2e41" r="12.62965" cy="202.69635" cx="479.73555"/>
  <path id="svg_49" fill="#2f2e41" d="m465.77647,199.37276a12.63013,12.63013 0 0 1 11.30021,-12.55865a12.758,12.758 0 0 0 -1.32944,-0.071a12.62965,12.62965 0 1 0 0,25.2593a12.758,12.758 0 0 0 1.32944,-0.071a12.63013,12.63013 0 0 1 -11.30021,-12.55865z"/>
  <polygon id="svg_50" fill="#2f2e41" points="499.989990234375,216.79614639282227 482.7340087890625,207.75716018676758 458.90301513671875,211.45415115356445 453.9729919433594,233.23112869262695 466.2460021972656,232.7591438293457 469.67498779296875,224.75815200805664 469.67498779296875,232.62712478637695 475.3380126953125,232.40913772583008 478.625,219.6721534729004 480.6789855957031,233.23112869262695 500.81201171875,232.82014846801758 499.989990234375,216.79614639282227 "/>
  <ellipse id="svg_51" fill="#ffd1ba" ry="4.87816" rx="2.55523" cy="236.09153" cx="494.31114"/>
  <path id="svg_52" fill="#a3604e" d="m519.42999,513.10633c-2.91,1 -5.86,2.01 -8.85,3.01l-25.58,-41.26l34.43,38.25z"/>
  <path id="svg_53" fill="#a3604e" d="m552.19,501.28633c-2.42,0.91 -4.87,1.83 -7.37,2.76l-21.82,-35.19l29.19,32.43z"/>
  <path id="svg_54" fill="#a3604e" d="m473.98999,527.73634q-4.545,1.365 -9.2,2.71l-25.79,-41.59l34.99,38.88z"/>
  <path id="svg_55" fill="#3f3d56" d="m485,631.85719"/>
 </g>
</svg>