<svg width="721.11239" height="582.53467" xmlns="http://www.w3.org/2000/svg" data-name="Layer 1">

 <g>
  <title>Layer 1</title>
  <path id="svg_1" fill="#d1d1d1" d="m480.19089,582.53466l-0.153,-0.01452l-239.11549,-22.21247l-217.43592,20.19866a21.49791,21.49791 0 0 1 -23.39415,-19.41735q-0.09207,-0.99134 -0.09215,-1.988l0,-517.12714a21.40162,21.40162 0 0 1 19.50937,-21.40539l221.41288,-20.56845l0.153,0.01452l239.11545,22.21245l217.43488,-20.19864a21.49792,21.49792 0 0 1 23.39429,19.41721q0.0921,0.99142 0.09216,1.98819l0,517.12669a21.40186,21.40186 0 0 1 -19.50927,21.40576l-221.41205,20.56848z"/>
  <path id="svg_2" fill="#666666" d="m333.32034,191.31143c-46.28643,-33.7103 -94.98727,-65.67591 -144.73815,-95.00394l-2.49707,-1.47175l0,99.46885l151.34484,0l-4.10962,-2.99316zm-143.92791,-0.31421l0,-90.36533c47.32852,27.9968 93.67273,58.37488 137.86749,90.36536l-137.86749,-0.00003zm378.18,204.73386q-30.02664,-31.21739 -61.60767,-61.01252q-8.70656,-8.22285 -17.52056,-16.31353q-53.79025,-49.412 -111.11915,-93.98694l-0.44653,-0.34726l-190.7934,0l0,174.46322l384.18308,0l-2.69577,-2.80297zm-378.18,-0.50434l0,-167.84854l186.35315,0q55.27881,42.99975 107.5639,90.81186q9.07855,8.29728 18.03345,16.727q31.3038,29.419 61.14459,60.30969l-373.09509,-0.00001zm378.18,0.50434q-30.02664,-31.21739 -61.60767,-61.01252q-8.70656,-8.22285 -17.52056,-16.31353q-53.79025,-49.412 -111.11915,-93.98694l-0.44653,-0.34726l-190.7934,0l0,174.46322l384.18308,0l-2.69577,-2.80297zm-378.18,-0.50434l0,-167.84854l186.35315,0q55.27881,42.99975 107.5639,90.81186q9.07855,8.29728 18.03345,16.727q31.3038,29.419 61.14459,60.30969l-373.09509,-0.00001zm143.92791,-203.91531c-46.28643,-33.7103 -94.98727,-65.67591 -144.73815,-95.00394l-2.49707,-1.47175l0,99.46885l151.34484,0l-4.10962,-2.99316zm-143.92791,-0.31421l0,-90.36533c47.32852,27.9968 93.67273,58.37488 137.86749,90.36536l-137.86749,-0.00003zm143.92791,0.31421c-46.28643,-33.7103 -94.98727,-65.67591 -144.73815,-95.00394l-2.49707,-1.47175l0,99.46885l151.34484,0l-4.10962,-2.99316zm-143.92791,-0.31421l0,-90.36533c47.32852,27.9968 93.67273,58.37488 137.86749,90.36536l-137.86749,-0.00003zm378.18,204.73386q-30.02664,-31.21739 -61.60767,-61.01252q-8.70656,-8.22285 -17.52056,-16.31353q-53.79025,-49.412 -111.11915,-93.98694l-0.44653,-0.34726l-190.7934,0l0,174.46322l384.18308,0l-2.69577,-2.80297zm-378.18,-0.50434l0,-167.84854l186.35315,0q55.27881,42.99975 107.5639,90.81186q9.07855,8.29728 18.03345,16.727q31.3038,29.419 61.14459,60.30969l-373.09509,-0.00001zm-167.0051,33.07359l0,3.30737l130.62418,0l0,47.95673l-130.62418,0l0,3.30737l133.93152,0l0,-54.57147l-133.93152,0zm163.69779,84.33771l0,33.51184l3.30737,-0.306l0,-29.89855l509.33349,0l0,-3.30737l-512.64086,0.00008zm512.64086,-81.03034l0,-3.30737l-512.64086,0l0,54.57147l512.64086,0l0,-3.30737l-509.33352,0l0,-47.95677l509.33352,0.00004zm-308.866,-240.6105a1613.79575,1613.79575 0 0 0 -200.46752,-132.08767l0,-33.487l-3.30738,0.30592l0,33.74622l2.54673,2.80012a1610.4861,1610.4861 0 0 1 199.65686,131.68254l0.44653,0.34726l309.99078,0l0,-3.30737l-308.866,-0.00002zm-236.84851,0l-130.62414,0l0,3.30737l133.93152,0l0,-165.81448l-3.30737,0.30593l-0.00001,162.20118zm545.71451,33.07363l-272.51812,0l3.56372,2.927q50.32928,41.41231 98.832,87.84354q6.896,6.59811 13.74219,13.30383q34.08224,33.301 66.83355,68.77655l2.72663,1.61236l86.82,0l0,-3.30737l-86.61154,0q-32.39565,-35.12421 -66.1969,-68.21429q-6.75906,-6.623 -13.56817,-13.155q-47.45271,-45.53 -96.93085,-86.47922l263.30749,0l0,-3.3074zm-676.33865,288.56717l0,3.30733l130.62418,0l0,33.272l3.30737,-0.30591l0,-36.27342l-133.93155,0zm0,-288.56717l0,3.30737l130.62418,0l0,167.84854l-130.62418,0l0,3.30737l133.93152,0l0,-174.46328l-133.93152,0zm310.933,-32.7594c-46.28643,-33.7103 -94.98727,-65.67591 -144.73815,-95.00394l-2.49707,-1.47175l0,99.46885l151.34485,0l-4.10963,-2.99316zm-143.92791,-0.31421l0,-90.36533c47.32852,27.9968 93.67273,58.37488 137.86749,90.36536l-137.86749,-0.00003zm378.18,204.73386q-30.02664,-31.21739 -61.60767,-61.01252q-8.70655,-8.22285 -17.52055,-16.31353q-53.79025,-49.412 -111.11915,-93.98694l-0.44653,-0.34726l-190.7934,0l0,174.46322l384.18308,0l-2.69578,-2.80297zm-378.18,-0.50434l0,-167.84854l186.35316,0q55.27881,42.99975 107.5639,90.81186q9.07855,8.29728 18.03345,16.727q31.3038,29.419 61.14459,60.30969l-373.0951,-0.00001zm143.92792,-203.91531c-46.28643,-33.7103 -94.98727,-65.67591 -144.73815,-95.00394l-2.49707,-1.47175l0,99.46885l151.34484,0l-4.10962,-2.99316zm-143.92791,-0.31421l0,-90.36533c47.32852,27.9968 93.67273,58.37488 137.86749,90.36536l-137.86749,-0.00003zm378.18,204.73386q-30.02664,-31.21739 -61.60767,-61.01252q-8.70656,-8.22285 -17.52056,-16.31353q-53.79025,-49.412 -111.11915,-93.98694l-0.44653,-0.34726l-190.7934,0l0,174.46322l384.18308,0l-2.69577,-2.80297zm-378.18,-0.50434l0,-167.84854l186.35315,0q55.27881,42.99975 107.5639,90.81186q9.07855,8.29728 18.03345,16.727q31.3038,29.419 61.14459,60.30969l-373.09509,-0.00001z"/>
  <path id="svg_3" fill="#d84747" d="m369.33579,217.64508c0,41.88122 -75.83267,135.18 -75.83267,135.18s-75.83267,-93.29876 -75.83267,-135.18a75.83267,75.83267 0 0 1 151.66534,0z"/>
  <path id="svg_4" fill="#9e1414" d="m328.17039,214.34801a34.66638,34.66638 0 1 1 -34.66638,-34.66638a34.65047,34.65047 0 0 1 34.66638,34.66638z"/>
  <circle id="svg_5" fill="#d84747" r="20.44185" cy="387.1146" cx="293.50312"/>
  <circle id="svg_6" fill="#ffff56" r="30.22324" cy="100.27214" cx="489.36398"/>
  <path id="svg_7" fill="#2f3e6b" d="m583.14067,193.40906l-148.26613,0a3.02384,3.02384 0 0 1 -0.55407,-0.0439l70.12308,-121.46324a4.90981,4.90981 0 0 1 8.54664,0l47.06138,81.51127l2.25462,3.90031l20.83448,36.09556z"/>
  <polygon id="svg_8" opacity="0.2" points="584.141 193.409 533.519 193.409 558.369 157.313 560.157 154.713 561.052 153.413 563.306 157.313 584.141 193.409"/>
  <path id="svg_9" fill="#3a4668" d="m665.6942,193.40906l-128.238,0l24.85,-36.09556l1.78829,-2.60022l32.38181,-47.03945c2.12294,-3.08293 7.23007,-3.27491 9.726,-0.58148a5.853,5.853 0 0 1 0.46631,0.58148l59.02559,85.73523z"/>
  <circle id="svg_10" fill="#27a81e" r="15.2965" cy="349.33488" cx="676.20989"/>
  <polygon id="svg_11" fill="#664828" points="677.685 395.409 674.552 395.409 675.98 347.031 677.685 395.409"/>
  <polygon id="svg_12" fill="#cbcbcb" points="676.256 356.2 679.62 351.546 676.21 357.352 675.842 356.707 676.256 356.2"/>
  <polygon id="svg_13" fill="#cbcbcb" points="675.888 360.899 672.524 356.246 675.934 362.051 676.302 361.406 675.888 360.899"/>
  <circle id="svg_14" fill="#27a81e" r="22.59163" cy="327.36152" cx="632.71557"/>
  <polygon id="svg_15" fill="#664828" points="634.893 395.409 630.266 395.409 632.376 323.959 634.893 395.409"/>
  <polygon id="svg_16" fill="#cbcbcb" points="632.784 337.5 637.751 330.628 632.716 339.202 632.172 338.249 632.784 337.5"/>
  <polygon id="svg_17" fill="#cbcbcb" points="632.24 344.441 627.272 337.569 632.308 346.142 632.852 345.19 632.24 344.441"/>
  <circle id="svg_18" fill="#27a81e" r="15.2965" cy="349.33488" cx="108.20989"/>
  <polygon id="svg_19" fill="#664828" points="109.685 395.409 106.552 395.409 107.98 347.031 109.685 395.409"/>
  <polygon id="svg_20" fill="#cbcbcb" points="108.256 356.2 111.62 351.546 108.21 357.352 107.842 356.707 108.256 356.2"/>
  <polygon id="svg_21" fill="#cbcbcb" points="107.888 360.899 104.524 356.246 107.934 362.051 108.302 361.406 107.888 360.899"/>
  <circle id="svg_22" fill="#27a81e" r="22.59163" cy="327.36152" cx="64.71557"/>
  <polygon id="svg_23" fill="#664828" points="66.893 395.409 62.266 395.409 64.376 323.959 66.893 395.409"/>
  <polygon id="svg_24" fill="#cbcbcb" points="64.784 337.5 69.751 330.628 64.716 339.202 64.172 338.249 64.784 337.5"/>
  <polygon id="svg_25" fill="#cbcbcb" points="64.24 344.441 59.272 337.569 64.308 346.142 64.852 345.19 64.24 344.441"/>
 </g>
</svg>