<svg width="786.29468" height="749.1971" xmlns="http://www.w3.org/2000/svg" data-name="Layer 1">
 <title>friends</title>

 <g>
  <title>Layer 1</title>
  <ellipse id="svg_1" fill="#b9d646" ry="40" rx="358" cy="670.89024" cx="428.29468"/>
  <path id="svg_2" fill="#e8d4c0" d="m604.84179,627.62965l6.17411,19.02315s29.736,30.72079 18.98128,39.04755s-34.884,-35.56837 -34.884,-35.56837l-4.447,-21.47613l14.17561,-1.0262z"/>
  <path id="svg_3" fill="#f7842c" d="m548.79468,479.39024l9,-3s14,4 16,18s17,85 17,85s6,3 2,8s20,50 20,50l-19,9s-38,-40 -38,-44s1,-8 1,-12s-1,-4 0,-7a32.16669,32.16669 0 0 0 1,-8l-7,-16l-2,-80z"/>
  <ellipse id="svg_4" fill="#96bd13" ry="184.48877" rx="90.41777" cy="363.49768" cx="90.41777"/>
  <path id="svg_5" fill="#3f3d56" d="m89.58765,365.41123c4.51025,-80.30664 13.59765,-134.55127 13.689,-135.08984l-1.97168,-0.334c-0.09131,0.53907 -9.19482,54.87061 -13.7124,135.28077c-4.16894,74.21386 -5.1748,186.46679 13.71192,299.78613l1.97265,-0.32813c-18.85453,-113.12694 -17.85111,-225.20995 -13.68949,-299.31493z"/>
  <rect id="svg_6" fill="#3f3d56" transform="rotate(-28.1569, -367.087, 134.151)" height="2.00012" width="92.72517" y="557.39555" x="-75.77067"/>
  <rect id="svg_7" fill="#3f3d56" transform="rotate(-61.8584, -467.456, 381.993)" height="92.72517" width="2.00012" y="781.79461" x="-217.07482"/>
  <ellipse id="svg_8" fill="#96bd13" ry="252.45832" rx="123.72957" cy="252.45832" cx="304.56511"/>
  <path id="svg_9" fill="#3f3d56" d="m303.06226,255.04455c6.17285,-109.91113 18.61084,-184.15185 18.73584,-184.88916l-1.97168,-0.334c-0.125,0.73779 -12.5791,75.06543 -18.75928,185.08008c-5.70459,101.53759 -7.08057,255.11767 18.75879,410.15283l1.97266,-0.32813c-25.80713,-154.84375 -24.43311,-308.25293 -18.73633,-409.68162z"/>
  <rect id="svg_10" fill="#3f3d56" transform="rotate(-28.1571, -285.037, 228.452)" height="2.00012" width="126.88732" y="535.25854" x="218.23304"/>
  <rect id="svg_11" fill="#3f3d56" transform="rotate(-61.8584, -267.692, 498.664)" height="126.88732" width="2.00012" y="773.02179" x="179.93098"/>
  <ellipse id="svg_12" fill="#96bd13" ry="94.32509" rx="46.22863" cy="508.96817" cx="201.49146"/>
  <path id="svg_13" fill="#3f3d56" d="m201.45075,513.03196l0.27362,0.5116l41.79785,-22.37207l-0.94336,-1.76368l-41.041,21.967c2.27112,-41.80139 6.91614,-69.86267 7.00977,-70.41522l-1.97168,-0.334c-0.10223,0.60339 -5.62122,33.92651 -7.58014,82.1449l-41.39347,-22.15564l-0.9434,1.7637l41.79785,22.372l0.499,-0.9328c-1.56732,39.79736 -0.68884,89.55963 7.61969,139.41034l1.97266,-0.32813c-9.0587,-54.35241 -9.25822,-108.60274 -7.09739,-149.868z"/>
  <path id="svg_14" fill="#2f2e41" d="m561.03114,384.4642c-16.07417,-27.39543 -47.87565,-28.67218 -47.87565,-28.67218s-30.98872,-3.9971 -50.86779,37.72647c-18.52888,38.88981 -44.1011,76.4387 -4.11692,85.54252l7.2223,-22.67357l4.47274,24.3616a155.1105,155.1105 0 0 0 17.10774,0.29491c42.81983,-1.39444 83.59924,0.408 82.2862,-15.09055c-1.74542,-20.6031 7.23797,-55.12932 -8.22862,-81.4892z"/>
  <path id="svg_15" fill="#2f2e41" d="m448.98947,603.89906a61.23955,61.23955 0 0 1 -1.94921,8.4635c-0.95617,2.712 -2.4324,5.22006 -3.30667,7.96c-2.78678,8.73379 1.07652,18.47175 7.24682,25.21311a40.722,40.722 0 0 0 19.88743,11.91139c5.56641,1.41209 11.35417,1.61532 17.09064,1.81153c15.88459,0.54331 32.17788,1.02938 47.22947,-4.11969a81.7199,81.7199 0 0 0 13.72159,-6.28756a10.2875,10.2875 0 0 0 3.56045,-2.82771c1.148,-1.64851 1.29485,-3.78648 1.28483,-5.801c-0.03378,-6.79217 -1.39894,-13.5497 -1.07481,-20.33408c0.17953,-3.75786 0.87679,-7.51282 0.53357,-11.25908a20.71019,20.71019 0 0 0 -15.73776,-17.89186c-4.2698,-0.92484 -8.69846,-0.42089 -13.04555,0.00071a329.78922,329.78922 0 0 1 -33.95148,1.53123c-11.58212,-0.07457 -23.09272,-1.85786 -34.61719,-2.04411c-3.40812,-0.05507 -3.33927,1.00471 -4.42429,4.33169a81.60486,81.60486 0 0 0 -2.44784,9.34193z"/>
  <path id="svg_16" fill="#2f2e41" d="m403.69914,598.37877a33.98929,33.98929 0 0 0 -9.533,-1.02218a24.06038,24.06038 0 0 0 -17.379,9.11386a24.49135,24.49135 0 0 0 -4.71053,19.17721a40.53261,40.53261 0 0 0 3.77749,10.41167c2.52818,5.17506 5.56038,10.33824 10.2407,13.65454a39.73688,39.73688 0 0 0 9.0377,4.33923l24.6503,9.36656c3.62634,1.37793 7.25322,2.75606 10.91545,4.03375a211.89949,211.89949 0 0 0 57.01276,11.43233c5.919,0.35552 11.92757,0.45444 17.70188,-0.90474a5.749,5.749 0 0 0 3.62532,-1.97555a6.30178,6.30178 0 0 0 0.81,-2.69858l1.51685,-10.7108a9.04669,9.04669 0 0 0 -0.12893,-4.51521c-0.69486,-1.80009 -2.43661,-2.93247 -4.09733,-3.89455c-16.20583,-9.38838 -35.12808,-14.56788 -48.76876,-27.45327c-3.21124,-3.03343 -5.89853,-7.84172 -9.80015,-9.90227c-4.42438,-2.33663 -9.63493,-3.67023 -14.20814,-5.82341c-9.99757,-4.7071 -19.82714,-10.11628 -30.66261,-12.62859z"/>
  <path id="svg_17" opacity="0.1" d="m428.30889,612.81847c8.71284,2.75379 45.4985,21.83206 51.80367,28.49317c-0.84515,0.30714 -29.52024,-15.90188 -30.38066,-16.16235c-7.8213,-2.36765 -15.68608,-4.75084 -23.11356,-8.2158c-1.49421,-0.697 -9.70725,-3.97339 -9.3353,-5.875c0.41971,-2.1458 9.47908,1.27111 11.02585,1.75998z"/>
  <path id="svg_18" fill="#e8d4c0" d="m536.00712,685.44067a2.0343,2.0343 0 0 0 1.3812,-0.41a2.1653,2.1653 0 0 0 0.43173,-1.60317l-0.04059,-14.59191c-4.16007,-1.99922 -8.81341,-2.64 -13.38091,-3.25584l-21.31121,-2.8732c0.48963,0.066 -3.33213,9.25835 -2.74614,10.48556c1.03282,2.163 8.92583,4.07993 11.15342,5.10119c7.74387,3.55025 15.79079,7.45325 24.5125,7.14737z"/>
  <path id="svg_19" fill="#e8d4c0" d="m471.14344,667.78509c-4.02375,0.64644 -8.51478,1.21786 -11.12062,4.3772c-3.30456,4.00647 -1.89778,9.97911 -0.3214,14.94233a6.45447,6.45447 0 0 0 1.37074,2.71894c1.0758,1.0705 2.72438,1.22733 4.23256,1.32366c3.6696,0.23438 7.5748,0.418 10.78107,-1.39754a47.28443,47.28443 0 0 0 4.188,-3.13993a26.74288,26.74288 0 0 1 7.7,-3.55079a77.27909,77.27909 0 0 1 15.45641,-3.21287a23.853,23.853 0 0 0 6.08891,-1.08262a6.77417,6.77417 0 0 0 4.28806,-4.19924c0.74268,-2.65177 -0.7853,-5.35534 -2.25074,-7.68092c-1.8255,-2.897 -3.75946,-5.94731 -6.48137,-8.07994c-3.97094,-3.11126 -5.93524,-0.72288 -9.93521,1.26808a83.77867,83.77867 0 0 1 -23.99641,7.71364z"/>
  <path id="svg_20" fill="#2f2e41" d="m459.62817,671.44085l-25.54933,-7.61685a33.56183,33.56183 0 0 0 -9.50781,-1.85838c-3.24017,0.00243 -6.63019,1.074 -8.73159,3.56168c-1.98118,2.34535 -2.54823,5.55078 -3.04213,8.59145l-1.05653,6.50446a32.94531,32.94531 0 0 0 -0.59155,9.98844c0.48326,3.3139 2.16045,6.6247 5.07562,8.22893c3.53553,1.94562 7.86877,0.99532 11.81463,0.18151a127.56684,127.56684 0 0 1 24.21179,-2.61883c3.05812,-0.03689 6.26572,0.00175 8.968,-1.44283c3.21217,-1.71717 5.13389,-5.348 5.46432,-8.99972c0.50275,-5.55627 -1.33333,-12.81397 -7.05542,-14.51986z"/>
  <path id="svg_21" fill="#2f2e41" d="m547.05017,664.80324c3.31209,-0.58551 6.23519,-2.48419 9.40888,-3.60492c4.46715,-1.57747 9.30811,-1.57745 14.04108,-1.56c1.73747,0.0064 3.5877,0.04569 5.034,1.01689c2.0848,1.4 2.61912,4.20158 2.97361,6.70237l2.13879,15.08837c0.40229,2.838 0.80219,5.75186 0.17472,8.548s-2.517,5.49166 -5.2678,6.213c-3.34092,0.87606 -6.61612,-1.27659 -9.77059,-2.69068c-7.88433,-3.5344 -17.04941,-2.631 -25.27025,-5.27268c-1.52562,-0.49024 -3.15957,-1.23985 -3.782,-2.72788a6.25731,6.25731 0 0 1 -0.29423,-2.60738c0.14078,-4.84984 -0.87334,-11.4724 0.57427,-16.10748c1.30192,-4.16854 6.34238,-2.99761 10.03952,-2.99761z"/>
  <path id="svg_22" fill="#2f2e41" d="m601.11811,592.30573a43.99809,43.99809 0 0 1 15.62923,-1.07707c4.1783,0.4643 8.48322,1.637 11.53384,4.55405c3.71305,3.55044 4.90606,9.04129 5.00559,14.20093a44.614,44.614 0 0 1 -9.56049,28.33464a25.588,25.588 0 0 1 -5.46593,5.30736a35.84558,35.84558 0 0 1 -7.11151,3.45671l-55.20337,21.9622c-14.52278,5.77778 -29.09682,11.5723 -44.24486,15.38131a3.43634,3.43634 0 0 1 -4.64,-1.69679a115.66858,115.66858 0 0 1 -12.099,-22.32378a2.0177,2.0177 0 0 1 -0.15588,-1.6719a1.984,1.984 0 0 1 0.815,-0.69995l39.04575,-22.62864a39.47077,39.47077 0 0 0 7.94723,-5.52315a19.897,19.897 0 0 0 4.08015,-5.72956c0.80935,-1.70512 0.88485,-5.729 1.91866,-6.98929c1.0122,-1.234 4.47473,-1.33246 6.07391,-1.81781a54.82107,54.82107 0 0 0 6.61239,-2.52121c8.73424,-3.94123 16.512,-9.66764 24.8849,-14.28241a63.54719,63.54719 0 0 1 14.93439,-6.23564z"/>
  <path id="svg_23" opacity="0.1" d="m578.98265,609.20472c-6.70819,5.08192 -15.39412,9.75337 -22.04265,14.9692c-2.26907,1.78011 -40.09506,23.2303 -40.6299,26.07915c6.20271,1.05416 45.71452,-26.82656 51.36768,-29.60861s10.66448,-6.70533 15.63028,-10.59966c1.26549,-0.99244 6.62863,-3.97587 2.99581,-5.08467c-2.04653,-0.62458 -5.81036,3.22863 -7.32122,4.24459z"/>
  <circle id="svg_24" fill="#e8d4c0" r="38" cy="416.39024" cx="510.79468"/>
  <path id="svg_25" fill="#e8d4c0" d="m526.79468,448.39024s-6,15 5,21s-34,54 -34,54l-20,-58s17,-6 14,-22l35,5z"/>
  <path id="svg_26" fill="#f7842c" d="m502.79468,488.39024l24.218,-26.73574l32.782,16.73574l-5,118l-8,9s-34,30 -86,5c0,0 -18,-15 -17,-38s-2,-26 -2,-26l-1,-81l49.37111,-9.688l12.62889,32.688z"/>
  <path id="svg_27" fill="#e8d4c0" d="m392.74757,615.62965l-6.17411,19.02315s-29.73606,30.72075 -18.98128,39.04755s34.884,-35.56837 34.884,-35.56837l4.447,-21.47613l-14.17561,-1.0262z"/>
  <path id="svg_28" fill="#f7842c" d="m448.79468,468.39024l-9,-3s-14,4 -16,18s-17,85 -17,85s-6,3 -2,8s-20,50 -20,50l19,9s38,-40 38,-44s-1,-8 -1,-12s1,-4 0,-7a32.16669,32.16669 0 0 1 -1,-8l7,-16l2,-80z"/>
  <polygon id="svg_29" fill="#2f2e41" points="553.925 381.823 522.506 365.224 479.119 372.014 470.142 412.005 492.488 411.138 498.73 396.446 498.73 410.895 509.041 410.495 515.026 387.105 518.766 412.005 555.421 411.25 553.925 381.823"/>
  <path id="svg_30" fill="#e09616" d="m331.20465,639.08024l0,57.68l-176.18,0a57.68309,57.68309 0 0 1 57.68,-57.68c16.52,-5.15 35.62006,-6.79 56.34,-6.25c19.55002,0.5 40.54001,2.95001 62.16,6.25z"/>
  <path id="svg_31" fill="#3f3d56" d="m306.037,684.17757l82.84747,0a5.2435,5.2435 0 0 1 5.2435,5.2435l0,0a5.2435,5.2435 0 0 1 -5.2435,5.2435l-82.84747,0a0,0 0 0 1 0,0l0,-10.487a0,0 0 0 1 0,0z"/>
  <path id="svg_32" fill="#3f3d56" d="m320.38576,589.71816l22.20633,-26.91828a5.82915,5.82915 0 0 1 10.865,0.93107l8.75714,30.91845l-41.82847,-4.93124z"/>
  <path id="svg_33" fill="#e09616" d="m293.45259,603.42755l8.38962,-33.87224a5.82914,5.82914 0 0 1 10.2,-3.85669l21.261,24.09581l-39.85062,13.63312z"/>
  <path id="svg_34" fill="#e09616" d="m155.02392,696.762l16.77923,0a0,0 0 0 1 0,0l0,35.65589a16.77922,16.77922 0 0 1 -16.77922,16.77922l0,0a0,0 0 0 1 0,0l0,-52.43511a0,0 0 0 1 -0.00001,0z"/>
  <path id="svg_35" fill="#e09616" d="m302.89091,686.275l82.84747,0a5.2435,5.2435 0 0 1 5.2435,5.2435l0,0a5.24351,5.24351 0 0 1 -5.24351,5.24351l-82.84746,0a0,0 0 0 1 0,0l0,-10.48701a0,0 0 0 1 0,0z"/>
  <path id="svg_36" opacity="0.2" d="m331.20465,639.08024l0,57.36a56.64534,56.64534 0 0 1 -62.16,-63.61c19.55002,0.5 40.54001,2.95001 62.16,6.25z"/>
  <circle id="svg_37" fill="#e09616" r="56.62991" cy="640.13208" cx="331.20586"/>
  <ellipse id="svg_38" fill="#3f3d56" ry="14.68183" rx="6.29221" cy="644.32689" cx="385.73837"/>
  <ellipse id="svg_39" fill="#3f3d56" ry="3.67046" rx="1.57305" cy="629.12071" cx="370.53219"/>
  <ellipse id="svg_40" fill="#3f3d56" ry="3.67046" rx="1.57305" cy="621.7798" cx="382.06791"/>
  <path id="svg_41" fill="#3f3d56" d="m326.45474,582.87187s-3.14749,-5.47519 -3.14749,-8.81524"/>
  <path id="svg_42" fill="#3f3d56" d="m327.83934,579.33065s1.715,-6.07809 4.10346,-8.4129"/>
 </g>
</svg>