<svg width="747.02774" height="748.82373" xmlns="http://www.w3.org/2000/svg" data-name="Layer 1">

 <g>
  <title>Layer 1</title>
  <path id="svg_1" fill="#f0f0f0" d="m231.53043,675.50787l-228.39624,-431.50249l0.96337,-0.44043l530.11255,-242.56495l0.43335,0.85987l209.38428,415.19092l-0.89307,0.45068l-511.60424,258.0064zm-225.63746,-430.56548l226.4878,427.89648l508.96045,-256.67285l-208.05005,-412.5459l-527.3982,241.32227z"/>
  <path id="svg_2" fill="#3f3d56" d="m499.71954,319.31387a22,22 0 1 1 22,-22l0,0a22.02486,22.02486 0 0 1 -22,22zm0,-42a20,20 0 1 0 20,20a20,20 0 0 0 -20,-20z"/>
  <path id="svg_3" fill="#3f3d56" d="m122.71954,256.31387a22,22 0 1 1 22,-22l0,0a22.02484,22.02484 0 0 1 -22,22zm0,-42a20,20 0 1 0 20,20a20,20 0 0 0 -20,-20z"/>
  <path id="svg_4" fill="#7f7e89" d="m5.08087,344.87238a5.66252,5.66252 0 0 1 0.12124,-1.1679l0.934,-55.33473l1.37579,-0.12146l0.05927,0.00225l114.016,4.59119a8.87632,8.87632 0 0 1 8.47653,9.26275l-1.97657,44.32194a8.87551,8.87551 0 0 1 -9.26231,8.47181l-108.29641,-4.36062a5.67783,5.67783 0 0 1 -5.44747,-5.66523l-0.00007,0z"/>
  <path id="svg_5" fill="#2f2e41" d="m0,340.84142c0,-0.14145 0.00359,-0.28266 0.00988,-0.42477l1.937,-43.44838a9.32465,9.32465 0 0 1 9.71941,-8.8894l104.1044,4.64126a8.88583,8.88583 0 0 1 8.47118,9.26274l-1.97567,44.32171a8.88688,8.88688 0 0 1 -9.26321,8.472l-104.1044,-4.64125a9.31488,9.31488 0 0 1 -8.8986,-9.294l0.00001,0.00009z"/>
  <circle id="svg_6" fill="#7f7e89" r="6.34514" cy="321.38761" cx="97.05055"/>
  <path id="svg_7" fill="#cec0c2" d="m477.59,652.01887l-10.622,-147.37261l2.02028,-49.18769l-41.40132,9.21207l15.25,193.1057a21.57865,21.57865 0 1 0 34.753,-5.75747l0.00004,0z"/>
  <path id="svg_8" fill="#cec0c2" d="m108.69429,366.16181l-39.59842,-25.73794a21.57745,21.57745 0 1 0 -17.68895,27.66071c0.28784,-0.03962 0.56328,-0.1097 0.84636,-0.16038l42.44859,30.87459l13.99242,-32.63698z"/>
  <path id="svg_9" fill="#abaabf" d="m162.20206,454.82374l-94.12555,-69.547l34.12555,-26.453l41.4513,31.38632l152.87551,-62.01179a16.97494,16.97494 0 0 1 12.92388,3.074a16.71469,16.71469 0 0 1 6.69668,11.23629l0.07413,0.5257l-28.02149,43.78945l-126.00001,68.00003z"/>
  <path id="svg_10" fill="#abaabf" d="m438.49005,606.54629l-26.51877,-184.33494l0.04379,-0.17029l27.23464,-107.06219l2.5518,-0.29678a29.732,29.732 0 0 1 32.37636,23.53787l2.01844,273.98227l-37.70626,-5.65594z"/>
  <path id="svg_11" fill="#2f2e41" d="m446.85745,286.07139l-137.83467,0l0,-62.2747a68.91733,68.91733 0 1 1 137.83467,0l0,62.2747z"/>
  <circle transform="rotate(-45 377.697 236.858)" id="svg_12" fill="#cec0c2" r="56.33087" cy="236.85823" cx="377.69659"/>
  <circle id="svg_13" fill="#2f2e41" r="37.49795" cy="146.32169" cx="403.54719"/>
  <path id="svg_14" fill="#2f2e41" d="m439.26848,234.59097l-146.60307,0l0,-0.83033c0,-38.00135 32.88272,-68.91734 73.30154,-68.91734s73.30153,30.916 73.30153,68.91734l0,0.83033z"/>
  <path id="svg_15" fill="#ff7f00" d="m462.81192,321.76374l-0.02,-0.18a12.24093,12.24093 0 0 0 -13.46,-11.26l-147.08008,15.04a12.262,12.262 0 0 0 -10.37988,8.32l-10.83008,32.46c-2.52978,2.8 -36.10986,41.32 -16.11963,93.98l7.48975,43.04l-13.67969,25.58c-28.08008,30.11 -44.43018,100.56 -48.58008,205.2a351.49381,351.49381 0 0 0 101.54981,14.88c0.28027,0 0.56006,0 0.83984,-0.01l9.27,-66.74l19.98,65.47a349.11924,349.11924 0 0 0 95.52,-21.81l-23.46973,-162.15l-4.70019,-61.1l53.62012,-180.56l0.04984,-0.16z"/>
 </g>
</svg>