<svg width="1110.65" height="810.94" xmlns="http://www.w3.org/2000/svg" xmlns:xlink="http://www.w3.org/1999/xlink" data-name="Layer 1">
 <defs>
  <linearGradient y2="0.00006" x2="0.5" y1="1.00006" x1="0.5" id="96fd64a0-6351-4330-b812-2613840b356c">
   <stop stop-opacity="0.25" stop-color="gray" offset="0"/>
   <stop stop-opacity="0.12" stop-color="gray" offset="0.54"/>
   <stop stop-opacity="0.1" stop-color="gray" offset="1"/>
  </linearGradient>
  <linearGradient xlink:href="#96fd64a0-6351-4330-b812-2613840b356c" y2="311.68" x2="933.17" y1="777.5" x1="933.17" id="65aaeda9-82be-4b39-9919-e403ba36e3f2"/>
 </defs>
 <title>children</title>
 <g>
  <title>Layer 1</title>
  <ellipse id="svg_1" opacity="0.1" fill="#ff682b" transform="rotate(-3.17, -49.15, 1.53996)" ry="29.18" rx="478.2" cy="791.86" cx="512.87"/>
  <ellipse id="svg_31" opacity="0.1" fill="#ff682b" ry="2.48" rx="18.05" cy="726.61" cx="1055.56"/>
  <ellipse id="svg_32" opacity="0.1" fill="#ff682b" ry="2.48" rx="18.05" cy="733.62" cx="986.42"/>
  <ellipse id="svg_33" opacity="0.1" fill="#ff682b" ry="2.48" rx="18.05" cy="783.13" cx="34.98"/>
  <ellipse id="svg_34" opacity="0.1" fill="#ff682b" ry="1.76" rx="12.83" cy="753.58" cx="1014.09"/>
  <ellipse id="svg_35" opacity="0.1" fill="#ff682b" ry="1.76" rx="12.83" cy="751.82" cx="942.33"/>
  <path id="svg_36" fill="#96bd13" d="m986.03,733.06s25.31,-83 -4,-116.22c-21.9,-24.86 -46.76,-21.89 -57.89,-18.81a20.53,20.53 0 0 0 -13.28,11c-3.89,8.4 -3.19,22 24.28,37.94c46,26.63 48.87,63.17 48.87,63.17l2.02,22.92z"/>
  <path id="svg_37" stroke-miterlimit="10" stroke="#565987" fill="none" d="m928.14,609.8s74.62,23.33 57.89,123.26"/>
  <path id="svg_38" stroke-miterlimit="10" stroke="#565987" fill="none" d="m968.72,618.16s-10.27,6.93 -7,17.33"/>
  <path id="svg_39" stroke-miterlimit="10" stroke="#565987" fill="none" d="m933.65,622.29s6.28,-6.39 13.92,-2.86"/>
  <path id="svg_40" stroke-miterlimit="10" stroke="#565987" fill="none" d="m965.12,656.46s11,-5.6 13.88,1.41"/>
  <path id="svg_41" stroke-miterlimit="10" stroke="#565987" fill="none" d="m992.41,668.13s-8.28,-0.66 -8.43,3.3"/>
  <path id="svg_42" fill="#96bd13" d="m986.30926,733.72s-29.64,-60.31 -37.79,-59c-3.86,0.63 -5.65,4.43 -6.45,8.26a24.29,24.29 0 0 0 1.61,14.68c4.23,9.63 15.51,27.99 42.63,36.06z"/>
  <path id="svg_43" stroke-miterlimit="10" stroke="#565987" fill="none" d="m949.48,686.18s31.17,45.11 37.17,47.11"/>
  <line id="svg_44" stroke-miterlimit="10" stroke="#565987" fill="none" y2="693.22" x2="953.88" y1="693.22" x1="946.62"/>
  <line id="svg_45" stroke-miterlimit="10" stroke="#565987" fill="none" y2="710.22" x2="966.71" y1="709.73" x1="955.32"/>
  <line id="svg_46" stroke-miterlimit="10" stroke="#565987" fill="none" y2="702.45" x2="961.01" y1="696.52" x1="962.25"/>
  <line id="svg_47" stroke-miterlimit="10" stroke="#565987" fill="none" y2="719.96" x2="974.14" y1="714.57" x1="974.36"/>
  <path id="svg_48" fill="#96bd13" d="m986.17,733.72s29.65,-60.31 37.8,-59c3.86,0.63 5.65,4.43 6.45,8.26a24.29,24.29 0 0 1 -1.61,14.68c-4.16,9.63 -15.51,27.99 -42.64,36.06z"/>
  <path id="svg_49" stroke-miterlimit="10" stroke="#565987" fill="none" d="m1023.74,686.18s-31.09,45.11 -37.09,47.11"/>
  <line id="svg_50" stroke-miterlimit="10" stroke="#565987" fill="none" y2="693.22" x2="1019.34" y1="693.22" x1="1026.6"/>
  <line id="svg_51" stroke-miterlimit="10" stroke="#565987" fill="none" y2="710.22" x2="1006.52" y1="709.73" x1="1017.9"/>
  <line id="svg_52" stroke-miterlimit="10" stroke="#565987" fill="none" y2="702.45" x2="1012.21" y1="696.52" x1="1010.98"/>
  <line id="svg_53" stroke-miterlimit="10" stroke="#565987" fill="none" y2="719.96" x2="999.09" y1="714.57" x1="998.87"/>
  <path id="svg_54" fill="#96bd13" d="m935.27,747.81a5.18,5.18 0 0 1 -1.69,-2.55a2.25,2.25 0 0 1 1.18,-2.59c1.08,-0.42 2.24,0.33 3.12,1.09s1.88,1.62 3,1.46a4.63,4.63 0 0 1 -1.43,-4.32a1.83,1.83 0 0 1 0.4,-0.87c0.6,-0.65 1.69,-0.37 2.41,0.14c2.29,1.61 2.93,4.72 2.94,7.51a13.86,13.86 0 0 0 0,-3.09a3.17,3.17 0 0 1 1.17,-2.74a3.46,3.46 0 0 1 1.77,-0.42a3.67,3.67 0 0 1 2.88,0.82a2.87,2.87 0 0 1 -0.11,3.53a11.2,11.2 0 0 1 -3,2.39a6.56,6.56 0 0 0 -2.13,2a1.46,1.46 0 0 0 -0.16,0.36l-6.45,0a18.28,18.28 0 0 1 -3.9,-2.72z"/>
  <path id="svg_55" fill="#96bd13" d="m1048.24,723.52a5.18,5.18 0 0 1 -1.69,-2.55a2.25,2.25 0 0 1 1.18,-2.59c1.08,-0.42 2.24,0.33 3.12,1.09s1.88,1.62 3,1.46a4.61,4.61 0 0 1 -1.43,-4.32a1.83,1.83 0 0 1 0.4,-0.87c0.6,-0.65 1.69,-0.37 2.41,0.14c2.29,1.61 2.93,4.72 2.94,7.51a13.86,13.86 0 0 0 0,-3.09a3.18,3.18 0 0 1 1.16,-2.74a3.49,3.49 0 0 1 1.78,-0.42a3.68,3.68 0 0 1 2.88,0.82a2.86,2.86 0 0 1 -0.12,3.53a11,11 0 0 1 -3,2.39a6.43,6.43 0 0 0 -2.12,2a1.46,1.46 0 0 0 -0.16,0.36l-6.45,0a18,18 0 0 1 -3.9,-2.72z"/>
  <path id="svg_56" fill="#96bd13" d="m1010.59,747.81a5.18,5.18 0 0 1 -1.69,-2.55a2.25,2.25 0 0 1 1.18,-2.59c1.08,-0.42 2.24,0.33 3.12,1.09s1.88,1.62 3,1.46a4.61,4.61 0 0 1 -1.43,-4.32a1.83,1.83 0 0 1 0.4,-0.87c0.6,-0.65 1.69,-0.37 2.41,0.14c2.29,1.61 2.93,4.72 2.94,7.51a13.86,13.86 0 0 0 0,-3.09a3.18,3.18 0 0 1 1.16,-2.74a3.49,3.49 0 0 1 1.78,-0.42a3.68,3.68 0 0 1 2.88,0.82a2.86,2.86 0 0 1 -0.12,3.53a11,11 0 0 1 -3,2.39a6.43,6.43 0 0 0 -2.12,2a1.46,1.46 0 0 0 -0.16,0.36l-6.45,0a18,18 0 0 1 -3.9,-2.72z"/>
  <path id="svg_57" fill="#96bd13" d="m33.81,757.71s-2.42,3.16 1.12,7.93s6.45,8.81 5.27,11.78c0,0 -5.33,-8.86 -9.68,-9s-1.48,-5.38 3.29,-10.71z"/>
  <path fill="#96bd13" id="svg_58" opacity="0.1" d="m33.81,757.71a3.74,3.74 0 0 0 -0.49,1c-4.24,5 -6.49,9.62 -2.42,9.73c3.79,0.11 8.34,6.89 9.43,8.61c0,0.13 -0.08,0.26 -0.13,0.38s-5.33,-8.86 -9.68,-9s-1.48,-5.39 3.29,-10.72z"/>
  <path id="svg_59" fill="#96bd13" d="m29.32,761.74c0,1.11 0.12,2 0.27,2s0.28,-0.9 0.28,-2s-0.15,-0.59 -0.31,-0.59s-0.24,-0.53 -0.24,0.59z"/>
  <path id="svg_60" fill="#ffd037" d="m27.77,763.07c1,0.53 1.83,0.85 1.91,0.71s-0.66,-0.67 -1.64,-1.2s-0.59,-0.15 -0.67,0s-0.57,-0.05 0.4,0.49z"/>
  <path id="svg_61" fill="#96bd13" d="m45.59,757.71s2.41,3.16 -1.12,7.93s-6.45,8.81 -5.27,11.78c0,0 5.33,-8.86 9.67,-9s1.49,-5.38 -3.28,-10.71z"/>
  <path id="svg_62" opacity="0.1" d="m334.59,674.71a4.15,4.15 0 0 1 0.49,1c4.23,5 6.49,9.62 2.42,9.73c-3.79,0.11 -8.34,6.89 -9.43,8.61c0,0.13 0.08,0.26 0.13,0.38s5.33,-8.86 9.67,-9s1.49,-5.39 -3.28,-10.72z"/>
  <path id="svg_63" fill="#ffd037" d="m339.08,678.74c0,1.11 -0.12,2 -0.28,2s-0.28,-0.9 -0.28,-2s0.16,-0.59 0.31,-0.59s0.25,-0.53 0.25,0.59z"/>
  <path id="svg_64" fill="#ffd037" d="m340.65,680.07c-1,0.53 -1.83,0.85 -1.9,0.71s0.66,-0.67 1.64,-1.2s0.59,-0.15 0.66,0s0.6,-0.05 -0.4,0.49z"/>
  <path id="svg_65" fill="#a8a8a8" d="m49.31,779.01s-6.76,-0.21 -8.8,-1.66s-10.4,-3.18 -10.9,-0.85s-10.17,11.57 -2.53,11.63s17.74,-1.19 19.77,-2.43s2.46,-6.69 2.46,-6.69z"/>
  <path id="svg_66" opacity="0.2" d="m27.94,785.29c7.64,0.06 17.74,-1.19 19.77,-2.43c1.55,-0.94 2.17,-4.33 2.38,-5.89l0.22,0s-0.43,5.45 -2.46,6.69s-12.14,2.49 -19.77,2.43c-2.21,0 -3,-0.8 -2.93,-2c0.31,0.78 1.15,1.2 2.79,1.2z"/>
  <path id="svg_69" fill="#ffcccc" d="m681.32,158.46c1.5,5 -5.17,36.33 -5.17,36.33s-3.5,7.71 -2.83,8.44s-2.5,7.56 -9.5,6.89s-18,-3 -23.5,-2c-4.11,0.75 -15.87,-2.6 -21.37,-5.65c-1.87,-1 -3,-2.05 -2.9,-2.85c0.43,-3.16 10.93,-17.5 10.93,-17.5a29.35,29.35 0 0 0 4.8,0.86c0.44,0 0.76,-0.05 0.87,-0.19c0.5,-0.67 12.17,3.5 14,4.67s6.83,0.95 6.83,0.95a42.17,42.17 0 0 1 6.84,-11.12a16.87,16.87 0 0 0 3.85,-8.46a65.8,65.8 0 0 1 1.74,-7.31c1,-3.34 1.91,-7.67 0.74,-9.23c-2,-2.67 -21.67,-32.33 -4.67,-31.83s20.17,24 20.17,24s-2.33,9 -0.83,14z"/>
  <path id="svg_70" fill="#ffcccc" d="m604.65,186.54l-14,6l-16.25,5s-37.25,-30.25 -27.75,-32.5a16.26,16.26 0 0 0 4.68,-2a36.94,36.94 0 0 0 7.53,-6.49a66.24,66.24 0 0 0 6.54,-8.47s36.75,-1.75 31,7c-2.24,3.41 -1.48,8.95 0.28,14.44c0.1,0.33 0.21,0.66 0.32,1a92.51,92.51 0 0 0 7.65,16.02z"/>
  <path id="svg_71" fill="#3f3d56" d="m512.57,354.9s-6.45,-6 -8.8,3.24a95,95 0 0 0 -2.78,15.15s-3.56,10.89 -5.44,13.88s-9.11,30.8 4.7,28c0,0 5.08,-1.08 6.07,-12.81s9.53,-46.72 9.53,-46.72l-3.28,-0.74z"/>
  <path id="svg_72" fill="#ffcccc" d="m617.4,376.79c-14,5.24 -30.74,3.89 -39.59,2.6c-3.82,-0.55 -6.16,-1.1 -6.16,-1.1l-43.75,-4.5l-0.88,0.92l-5.62,5.85l-6.5,15.73s-17.5,24 -19.5,9.75a58.58,58.58 0 0 1 -0.37,-9.4c0.4,-15.19 4.37,-35.35 4.37,-35.35l39.75,-5.25l25,-13l0.27,-13.56l0.06,-3.33l0.17,-8.36l34,3.25l6,13.5l0.06,0.06c0.88,0.82 12.08,11.33 15.44,14.69s17.25,20 -2.75,27.5z"/>
  <path id="svg_73" fill="#f7d9ad" d="m520.94,381.68s-17.85,0.75 -19,-2.45l-5.53,13.19s16.25,6.25 18.5,3.87l6.03,-14.61z"/>
  <path id="svg_74" fill="#3f3d56" d="m489.65,341.04s-11.62,-5.75 -13.12,5.25a81.1,81.1 0 0 0 -0.75,17.88s-3,13.12 -5.25,16.87s-7,36.92 14.12,31.25c0,0 7.75,-2.12 6.5,-15.75s3.84,-55.25 3.84,-55.25l-5.34,-0.25z"/>
  <path id="svg_75" opacity="0.1" d="m553.9,315.04l36.25,32s21,11.25 -4,30.5c0,0 -11.25,4.75 -28.5,3a153,153 0 0 1 -31.5,-6.75s-13,-2 -17.5,5s-14.5,22.25 -14.5,22.25s-12.25,24.25 -20.25,-5.75l10.25,-29.25s0.5,-9.75 0,-12s6.75,-12.25 10.5,-9s8.75,7.75 13,7.5s15,-0.5 15,-0.5l-6.25,-2.25s-18,-5 -16.75,-8.75s10,-22 10,-22l44.25,-4z"/>
  <path id="svg_76" fill="#ffcccc" d="m584.15,377.54a39.64,39.64 0 0 1 -6.34,1.85a70.18,70.18 0 0 1 -22.16,1.15a156.08,156.08 0 0 1 -28.63,-5.83c-1.84,-0.56 -2.87,-0.92 -2.87,-0.92s-13,-2 -17.5,5c-3,4.61 -8.31,12.79 -11.62,17.85l-2.88,4.4s-12.25,24.25 -20.25,-5.75l10.25,-29.25s0.5,-9.75 0,-12c-0.34,-1.53 2.89,-6.62 6.17,-8.71c1.55,-1 3.12,-1.34 4.33,-0.29a49.2,49.2 0 0 0 8,6.09a9.58,9.58 0 0 0 5,1.41c4.25,-0.25 15,-0.5 15,-0.5l-6.25,-2.25a97.89,97.89 0 0 1 -10,-3.45c-3.89,-1.64 -7.29,-3.6 -6.72,-5.3c1.25,-3.75 10,-22 10,-22l44.25,-4l12.58,11.11l5.39,4.75l18.28,16.14s20.97,11.25 -4.03,30.5z"/>
  <path id="svg_77" opacity="0.1" stroke-miterlimit="10" stroke="#000" fill="none" d="m552.65,361.29s-9.5,-12.75 -32,-9.25"/>
  <path id="svg_78" opacity="0.1" d="m481.15,363.92l-7.25,16.62s8,18.38 23.5,15.63l9.53,-17.27s-21.52,-2.24 -25.78,-14.98z"/>
  <path id="svg_79" fill="#f7d9ad" d="m480.15,364.92l-7.25,16.62s8,18.38 23.5,15.63l9.53,-17.27s-21.52,-2.24 -25.78,-14.98z"/>
  <path id="svg_80" opacity="0.1" d="m621.9,201.29a17.89,17.89 0 0 0 -3,1.18c-1.87,-1 -3,-2.05 -2.9,-2.85c0.43,-3.16 10.93,-17.5 10.93,-17.5a29.35,29.35 0 0 0 4.8,0.86c1.69,11.07 -6.76,17.6 -9.83,18.31z"/>
  <path id="svg_81" opacity="0.1" d="m604.65,187.54l-14,6l-16.25,5s-37.25,-30.25 -27.75,-32.5a16.26,16.26 0 0 0 4.68,-2c5.6,7.36 18.82,15 18.82,15c11.06,4 21.11,-3.3 26.53,-8.56a90.44,90.44 0 0 0 7.97,17.06z"/>
  <path id="svg_82" fill="#fff" d="m619.9,201.29c-3.25,0.75 -18,9.25 -18,9.25l-9.25,16s0.25,9 0,15s-7.25,5.25 -7.25,5.25l-0.34,0.14c-1.79,0.75 -10.19,4.28 -10.19,4.36s-17.22,-1.75 -17.22,-1.75l-33.75,-5.5s-10.75,-0.5 -14.25,-4l-0.1,-0.1c-3.38,-3.45 -2.1,-5.94 3.35,-10.15s1.25,-10.75 1.25,-10.75s-3,-10.75 -3,-17.25s-3.25,-6.25 -3.25,-6.25s-2.25,0 7.75,-6.5s-1.25,-36.75 2.25,-32.5s10,2 10.5,-0.5s10.75,3.25 10.75,3.25s4.5,-2.75 6,0a3.26,3.26 0 0 0 4,1.75c2.5,8.25 21,19 21,19c16.5,6 30.75,-13.25 30.75,-13.25s5.5,1.5 6.25,3.77s7,2.16 7,2.16s7.5,0.82 7.75,3.07s7.5,5.25 7.5,5.25c3,12.25 -6.25,19.5 -9.5,20.25z"/>
  <path id="svg_83" opacity="0.1" d="m585.4,244.79l-0.34,2.14c-1.79,0.75 -10.19,4.28 -10.19,4.36s-17.22,-1.75 -17.22,-1.75l-33.75,-5.5s-10.75,-0.5 -14.25,-4l-0.1,-0.1l0.1,-1.9l5.5,-1s54,3 61.5,6.5l8.75,1.25z"/>
  <path id="svg_84" opacity="0.1" d="m604.71,334.6c0,1.24 -0.06,1.94 -0.06,1.94s-10.5,-16.25 -24.25,-8.25a17.63,17.63 0 0 1 -10.53,2.61a16.67,16.67 0 0 1 -5.45,-1.42a21.52,21.52 0 0 1 -7.52,-5.69s-24,5 -32.25,11.75s-15,-2 -15,-2s-2.35,10.27 -5.28,12.8c-3.89,-1.64 -7.29,-3.6 -6.72,-5.3c1.25,-3.75 10,-22 10,-22l44.25,-4l12.58,11.11l0.17,-8.36l34,3.25l6,13.5l0.06,0.06z"/>
  <path id="svg_85" fill="#f7d9ad" d="m515.15,239.04s54,3 61.5,6.5l8.75,1.25l-1.5,9.5s14.25,14.75 18.5,16.5s2.25,61.75 2.25,61.75s-10.5,-16.25 -24.25,-8.25s-23.5,-4.5 -23.5,-4.5s-24,5 -32.25,11.75s-15,-2 -15,-2s-2.75,12 -6,13.25s-4,9.25 -4,9.25s-9,-1.75 -9,-4.5s-0.25,-3.75 -2,-5.75s-2,-8.5 -2,-8.5s1,-7.5 -2.25,-10.5s-3,-15.75 -3,-15.75s-1.51,-8.25 0,-10.25s2.5,-15.5 2.5,-15.5s5,-14 7.75,-19.25s16,-14.25 16,-14.25l1.47,0l0.5,-9.75l5.53,-1z"/>
  <circle id="svg_86" fill="#3f3d56" r="1.57999" cy="258.54" cx="574.98"/>
  <circle id="svg_87" fill="#3f3d56" r="1.57999" cy="294.38" cx="566.56"/>
  <circle id="svg_88" fill="#3f3d56" r="1.57999" cy="282.21" cx="577.65"/>
  <path id="svg_89" opacity="0.1" d="m511.98,251.29l2,0s-12,27.5 -12.66,19.83s10.66,-19.83 10.66,-19.83z"/>
  <path id="svg_90" opacity="0.1" d="m526.32,253.29s-13.67,21 -7,24s12.66,-23 12.66,-23l-5.66,-1z"/>
  <path id="svg_91" opacity="0.1" d="m544.48,265.41s5.17,31.88 11,38.05s-1,10.5 -1,10.5s20.5,1.83 27,3.16s16.5,-1.5 12.5,-4.16s-0.66,-31 -0.33,-32.34s-12.83,24.58 -49.17,-15.21z"/>
  <path id="svg_92" opacity="0.1" d="m522.32,227.96c1.16,-0.5 19.83,-26.72 24.33,-24.61s-24.33,24.61 -24.33,24.61z"/>
  <path id="svg_93" opacity="0.1" d="m524.65,204.79s-7.5,11.5 -5.33,13.5s5.33,-13.5 5.33,-13.5z"/>
  <path id="svg_94" opacity="0.1" d="m534.72,161.29s7.6,15.17 5.43,18s-5.43,-18 -5.43,-18z"/>
  <path id="svg_95" opacity="0.1" d="m619.98,182.12s-1.5,8.84 -3.5,9.17s3.5,-9.17 3.5,-9.17z"/>
  <path id="svg_96" opacity="0.1" d="m583.98,184.96s21.17,5.18 22.84,6.34s-18.34,1.16 -22.84,-6.34z"/>
  <path id="svg_97" opacity="0.1" d="m661.98,199.96s-2.66,-10.34 -6.16,-10.17s6.16,10.17 6.16,10.17z"/>
  <path id="svg_98" fill="#3f3d56" d="m652.75,132.66c-1.3,2.69 -4.13,4.84 -4.09,7.83c0,1.42 0.71,2.73 1,4.13a8.34,8.34 0 0 1 -2,6.72a14.33,14.33 0 0 1 -5.93,4c-1.31,0.51 -2.76,1 -3.56,2.13c-1.31,1.89 -0.17,4.41 0.37,6.65c0.86,3.61 -0.56,8.12 -4.09,9.24c-1.89,0.6 -4.15,0.19 -5.71,1.4s-1.72,3.63 -2.69,5.43a6.22,6.22 0 0 1 -8.14,2.44a6.29,6.29 0 0 1 0.35,-2.72a5.12,5.12 0 0 1 -5.71,-2.33a6.82,6.82 0 0 1 0.05,-6a22.48,22.48 0 0 1 3.58,-5.12a75.42,75.42 0 0 0 10.86,-16.7a43.46,43.46 0 0 0 4.19,-19.36a14.81,14.81 0 0 0 -1.13,-5.78a14.34,14.34 0 0 0 -3.94,-4.78c-0.83,-0.72 -1.71,-1.4 -2.57,-2.09c-0.6,-0.48 -1.2,-1 -1.77,-1.46c-0.78,-0.69 -3.88,-3.22 -3.63,-4.44c0.14,-0.7 2.24,-0.6 4.07,-0.62a9.93,9.93 0 0 0 2,-0.16a2,2 0 0 0 0.41,-0.12a15.75,15.75 0 0 1 1.89,-0.93c1.86,-0.58 3.78,0.59 5.33,1.77a66.21,66.21 0 0 0 7,5.07a13.68,13.68 0 0 0 8.25,2a7.47,7.47 0 0 1 2.78,-0.12c1.77,0.47 2.55,2.5 3,4.28c0.73,3.18 1.25,6.68 -0.17,9.64z"/>
  <path id="svg_99" fill="#3f3d56" d="m554.65,107.19a10.32,10.32 0 0 0 -1.14,0.2a18.43,18.43 0 0 0 -3.08,1.17a45.06,45.06 0 0 0 -5,3l-12.32,8.06a10.15,10.15 0 0 0 -3,2.58c-2.09,3.07 -0.13,7.46 2.9,9.62c1.4,1 3,1.7 4.37,2.72a6,6 0 0 1 2.68,4.2c0.15,2.61 -2.25,4.66 -4.66,5.65s-5.11,1.38 -7.22,2.91a4.16,4.16 0 0 1 -1.44,0.82a3.16,3.16 0 0 1 -1.82,-0.35a75.56,75.56 0 0 1 -10.88,-5.61a1.47,1.47 0 0 1 0.45,1.57a21.72,21.72 0 0 1 -12.41,-31.65c1.29,-2.21 3,-4.2 4,-6.53s1.38,-5.22 0,-7.35c-1,-1.49 -2.75,-2.49 -3.27,-4.2s0.56,-3.76 1.87,-5.15c2.89,-3 6.88,-4.8 10.07,-7.54s5.6,-7.28 3.79,-11.07c-1.44,-3 -5.31,-5.23 -4.66,-8.5a5.79,5.79 0 0 1 2.77,-3.45a16.47,16.47 0 0 1 16,-1a3.69,3.69 0 0 1 1.57,-4a3.59,3.59 0 0 1 4.26,0.49a18.35,18.35 0 0 0 1.42,1.61a1.37,1.37 0 0 0 1.91,-0.08a1.88,1.88 0 0 0 0.21,-1a12.56,12.56 0 0 1 1.38,-5.29a40.21,40.21 0 0 1 4.73,36.31a14.33,14.33 0 0 0 -1.33,5.25c0.11,3.77 3.64,6.57 7.18,7.85l0.19,0.06c1.11,0.36 3,0.67 4.84,1.18c2.42,0.67 4.75,1.69 5,3.6c0.54,3.11 -6.2,3.49 -9.36,3.92z"/>
  <path id="svg_100" fill="#ffcccc" d="m503.15,121.12c-1.83,2 -11.33,24.5 -11.33,24.5c0.79,5.51 17.58,12.06 24.69,14.59c1.92,0.69 3.14,1.08 3.14,1.08l6.83,6s-7,38.67 -7.56,29.17s-12.94,-14.34 -12.94,-14.34s-3.24,-1.32 -7.12,-3.11c-5.44,-2.49 -12.16,-5.87 -13,-7.72c-1.5,-3.17 -3.5,-4.17 -13.84,-13.5s-3.5,-17 -3.16,-18c1.66,-5 18.33,-27.07 18.33,-27.07l24.13,-29.43s6.66,-27.33 23.4,-16.67s-19.07,36.17 -19.07,36.17s-10.67,16.33 -12.5,18.33z"/>
  <path id="svg_101" opacity="0.1" d="m526.48,167.29s-7,38.67 -7.56,29.17s-12.94,-14.34 -12.94,-14.34s-3.24,-1.32 -7.12,-3.11c1.25,-8.86 10.47,-15.17 17.65,-18.8c1.92,0.69 3.14,1.08 3.14,1.08l6.83,6z"/>
  <path id="svg_102" fill="#fff" d="m534.55,163.22l-7.33,-6.68s-47.42,15 -15.42,43.42l13.49,0l12.36,-16.42l-3.1,-20.32z"/>
  <path id="svg_103" opacity="0.1" d="m596.65,169.48c0.1,0.33 0.21,0.66 0.32,1a36.05,36.05 0 0 1 -38.14,-13.95a66.24,66.24 0 0 0 6.54,-8.47s36.75,-1.75 31,7c-2.21,3.39 -1.45,8.93 0.28,14.42z"/>
  <path id="svg_104" fill="#ffcccc" d="m624.14,134.56a36,36 0 1 1 -36,-36a35.86,35.86 0 0 1 36,36z"/>
  <path id="svg_105" opacity="0.1" d="m624.14,134.56a35.86,35.86 0 0 1 -2.8,13.93a16.21,16.21 0 0 1 -6.13,0.1a3.63,3.63 0 0 1 -2.17,-1a4,4 0 0 1 -0.73,-2q-0.57,-3.33 -1.12,-6.64c-3.24,1.27 -7,0.33 -10,-1.37s-5.64,-4.07 -8.56,-6s-6.41,-3.3 -9.84,-2.68a16.64,16.64 0 0 0 -5.26,2.21a36.77,36.77 0 0 0 -9,6.73c-1.82,2 -3.41,4.4 -5.93,5.31a6.28,6.28 0 0 1 -7.83,-4c-0.53,-1.85 -0.17,-3.83 -0.39,-5.74a4.46,4.46 0 0 0 -1.91,-3.32a36,36 0 0 1 71.73,4.43l-0.06,0.04z"/>
  <path id="svg_106" fill="#3f3d56" d="m554.32,132.45c0.22,1.91 -0.14,3.89 0.39,5.74a6.28,6.28 0 0 0 7.83,4c2.52,-0.91 4.11,-3.33 5.93,-5.31a36.77,36.77 0 0 1 9,-6.73a16.64,16.64 0 0 1 5.26,-2.21c3.43,-0.62 6.91,0.79 9.84,2.68s5.52,4.27 8.56,6s6.77,2.64 10,1.37l1.12,6.64a4,4 0 0 0 0.73,2a3.63,3.63 0 0 0 2.17,1a16.19,16.19 0 0 0 7.45,-0.43a4.28,4.28 0 0 0 2.92,-2.08a4.67,4.67 0 0 0 0.3,-1.58a86.71,86.71 0 0 0 -5.78,-37.48c-1.71,-4.34 -3.89,-8.69 -7.57,-11.54a30.56,30.56 0 0 0 -7,-3.7c-7.48,-3.17 -15.72,-6.4 -23.53,-4.13c-3.44,1 -6.49,3 -9.49,5l-14,9.29a8.74,8.74 0 0 0 -2,1.65a9.54,9.54 0 0 0 -1.51,3.3a64,64 0 0 1 -5.74,12.88a6.39,6.39 0 0 0 -1.08,2.67a6.1,6.1 0 0 0 0.58,2.57c0.72,1.87 1,3.26 2.64,4.36s2.72,1.88 2.98,4.04z"/>
  <g id="svg_107" opacity="0.1">
   <path id="svg_108" d="m535.41,141.36c-2.41,1 -5.11,1.38 -7.22,2.91a4.16,4.16 0 0 1 -1.44,0.82a3.16,3.16 0 0 1 -1.82,-0.35a74.78,74.78 0 0 1 -11,-5.71a1.45,1.45 0 0 1 0.6,1.67a22.06,22.06 0 0 1 -13.88,-12.83c-0.8,-2.05 0.15,2.19 0,0c-0.22,3.19 -1.16,0 0,3a22.06,22.06 0 0 0 13.84,12.83a1.45,1.45 0 0 0 -0.6,-1.67a74.78,74.78 0 0 0 11,5.71a3.16,3.16 0 0 0 1.82,0.35a4.16,4.16 0 0 0 1.44,-0.82c2.11,-1.53 4.81,-1.93 7.22,-2.91s4.81,-3 4.66,-5.65a4.2,4.2 0 0 0 -0.29,-1.27a7.77,7.77 0 0 1 -4.33,3.92z"/>
   <path id="svg_109" d="m546.82,87.59a6,6 0 0 0 0.18,1.27a25.84,25.84 0 0 1 1.15,-3.52a39,39 0 0 0 2.31,-14.8a38.69,38.69 0 0 1 -2.31,11.8a14.33,14.33 0 0 0 -1.33,5.25z"/>
   <path id="svg_110" d="m630.11,121.58c-1.34,-2.87 -3.88,-4.78 -6.33,-6.72c0.28,1.19 0.53,2.39 0.76,3.6c2.2,1.74 4.37,3.55 5.57,6.12a14.48,14.48 0 0 1 1.12,5.49c0,-0.9 0,-1.8 0,-2.71a14.81,14.81 0 0 0 -1.12,-5.78z"/>
   <path id="svg_111" d="m518.08,69.43c0.3,-1.47 1.1,-0.83 0.44,-2.22c-1.09,-2.26 -3.55,-4.08 -4.42,-6.24a3.76,3.76 0 0 0 -0.24,0.74c-0.65,3.27 2.78,4.71 4.22,7.72c0.21,0.43 -0.89,-2.14 0,0z"/>
   <path id="svg_112" d="m554.5,104.21a7.36,7.36 0 0 0 -1,0.18a28.9,28.9 0 0 0 -8.08,4.14l-12.32,8.06a10.15,10.15 0 0 0 -3,2.58a5.45,5.45 0 0 0 -0.67,4.47a4.75,4.75 0 0 1 0.67,-1.47a10.15,10.15 0 0 1 3,-2.58l12.32,-8.06a29.53,29.53 0 0 1 7.86,-4.07c0.43,-1.08 0.84,-2.17 1.22,-3.25z"/>
   <path id="svg_113" d="m649.59,144.4a9.14,9.14 0 0 1 -1.92,3.94a14.33,14.33 0 0 1 -5.93,4c-1.31,0.51 -2.76,1 -3.56,2.13a4.63,4.63 0 0 0 -0.39,3.77a3.1,3.1 0 0 1 0.39,-0.77c0.8,-1.16 2.25,-1.62 3.56,-2.13a14.33,14.33 0 0 0 5.93,-4a8.34,8.34 0 0 0 2,-6.72c-0.02,-0.08 -0.02,-0.15 -0.08,-0.22z"/>
   <path id="svg_114" d="m652.75,129.66c-1.3,2.69 -4.13,4.84 -4.09,7.83a5.78,5.78 0 0 0 0.23,1.48c0.69,-2.25 2.79,-4.1 3.86,-6.31a11,11 0 0 0 0.81,-6a9.37,9.37 0 0 1 -0.81,3z"/>
   <path id="svg_115" d="m613.04,146.59a3.63,3.63 0 0 0 2.17,1a16.19,16.19 0 0 0 7.45,-0.43a4.28,4.28 0 0 0 2.92,-2.08a4.67,4.67 0 0 0 0.3,-1.58c0.17,-2.46 0.22,-4.92 0.17,-7.38c0,1.46 -0.07,2.92 -0.17,4.38a4.67,4.67 0 0 1 -0.3,1.58a4.28,4.28 0 0 1 -2.92,2.08a16.19,16.19 0 0 1 -7.45,0.43a3.63,3.63 0 0 1 -2.17,-1a4,4 0 0 1 -0.73,-2q-0.57,-3.33 -1.12,-6.64c-3.24,1.27 -7,0.33 -10,-1.37s-5.64,-4.07 -8.56,-6s-6.41,-3.3 -9.84,-2.68a16.64,16.64 0 0 0 -5.26,2.21a36.77,36.77 0 0 0 -9,6.73c-1.82,2 -3.41,4.4 -5.93,5.31a6.28,6.28 0 0 1 -7.83,-4c-0.53,-1.85 -0.17,-3.83 -0.39,-5.74c-0.26,-2.18 -1.35,-3 -3,-4.08s-1.92,-2.49 -2.64,-4.36c-0.09,-0.24 -0.19,-0.5 -0.27,-0.75a3.75,3.75 0 0 0 -0.31,1.18a6.1,6.1 0 0 0 0.58,2.57c0.72,1.87 1,3.26 2.64,4.36s2.7,1.9 3,4.08c0.22,1.91 -0.14,3.89 0.39,5.74a6.28,6.28 0 0 0 7.83,4c2.52,-0.91 4.11,-3.33 5.93,-5.31a36.77,36.77 0 0 1 9,-6.73a16.64,16.64 0 0 1 5.26,-2.21c3.43,-0.62 6.91,0.79 9.84,2.68s5.52,4.27 8.56,6s6.77,2.64 10,1.37q0.56,3.32 1.12,6.64a4,4 0 0 0 0.73,2z"/>
   <path id="svg_116" d="m634.46,170.36c-1.89,0.6 -4.15,0.19 -5.71,1.4s-1.72,3.63 -2.69,5.43a6.22,6.22 0 0 1 -8.14,2.44a6.29,6.29 0 0 1 0.35,-2.72a5.12,5.12 0 0 1 -5.71,-2.33a5.24,5.24 0 0 1 -0.51,-1.31a6.15,6.15 0 0 0 0.51,4.31a5.12,5.12 0 0 0 5.71,2.33a6.29,6.29 0 0 0 -0.35,2.72a6.22,6.22 0 0 0 8.14,-2.44c1,-1.8 1.07,-4.17 2.69,-5.43s3.82,-0.8 5.71,-1.4c3.33,-1.06 4.78,-5.12 4.21,-8.61c-0.4,2.54 -1.82,4.85 -4.21,5.61z"/>
  </g>
  <path id="svg_117" fill="#39ddc7" d="m559.03,99.68a35.92,35.92 0 0 1 -4.38,7.51a10.32,10.32 0 0 0 -1.14,0.2a18.43,18.43 0 0 0 -3.08,1.17a62.45,62.45 0 0 1 3.77,-10.06c1.1,0.36 2.99,0.67 4.83,1.18z"/>
  <path id="svg_118" fill="#39ddc7" d="m626.17,119.8c-0.83,-0.72 -1.71,-1.4 -2.57,-2.09c-0.5,-2 -1,-4.39 -1.33,-6.52a9.93,9.93 0 0 0 2,-0.16a27.53,27.53 0 0 1 1.9,8.77z"/>
  <path id="svg_119" fill="url(#65aaeda9-82be-4b39-9919-e403ba36e3f2)" transform="translate(-55.35 -18.71)" d="m1023.72,436.35c0.31,-0.15 0.61,-0.3 0.91,-0.47c-0.61,-0.12 -1.22,-0.26 -1.82,-0.41c-0.43,0.12 -0.87,0.21 -1.31,0.31a49.27,49.27 0 0 1 -22,-13.27c-6.1,-6.43 -10.37,-14.85 -10.28,-23.6c0.07,-6.38 2.41,-12.6 2.34,-19s-3.79,-13.61 -10.31,-14.33c-2.27,-0.25 -4.54,0.34 -6.83,0.42s-4.84,-0.52 -6,-2.41c-1,-1.63 -0.74,-3.75 -0.1,-5.56c1.74,-4.89 5.65,-8.84 7.33,-13.75a16.52,16.52 0 0 0 0.45,-9.06c-0.58,-2.5 -1.91,-5 -4.24,-6.21c-3.86,-2 -8.45,0.32 -12.74,1.13c-7.34,1.4 -14.79,-1.79 -21.11,-5.69s-12.24,-8.64 -19.35,-10.93a46.57,46.57 0 0 0 -14.36,-1.86c-3,0 -6.25,0.24 -8.46,2.19c-0.11,0.1 -0.19,0.21 -0.3,0.31a7.72,7.72 0 0 1 0.87,-1.75a6.22,6.22 0 0 0 -0.93,0.69c-4.59,4.05 -1.38,11.78 -4.08,17.2a9,9 0 0 1 -1.1,1.68a13.21,13.21 0 0 0 1.78,-1.64c-0.1,0.24 -0.19,0.48 -0.31,0.72c-1.55,3.12 -4.83,5 -8,6.54s-6.62,2.95 -8.91,5.6c-0.06,0.06 -0.1,0.12 -0.16,0.19a9.8,9.8 0 0 1 1.6,-2.64a13.14,13.14 0 0 0 -1.81,1.69c-2.51,2.91 -2.7,5.33 -1.58,7.19c0.8,2.13 3.24,3.64 6.09,4.43c-0.14,0.63 -0.27,1.26 -0.38,1.9a31.62,31.62 0 0 0 -0.38,4.8c0,14.76 10.62,27.11 24.84,30.24c0,0.64 -0.08,1.29 -0.16,2c-0.48,4.54 -1.88,9.46 -5.55,10.66c-3.43,-1.17 -10.3,4 -11.84,5.5s-7,0.16 -12,0.33s-6.69,-1.33 -6.69,-1.33a28.46,28.46 0 0 0 -0.18,8.16c0.52,5 -3.6,5.17 -3.6,5.17s0.86,7.17 -1,10.83a12.15,12.15 0 0 0 -1.37,6.85s5.83,-0.5 5.31,1.5a1.78,1.78 0 0 0 0.34,1.33l-0.06,1.91l-0.79,26.42l-1.54,15.75a2.66,2.66 0 0 0 -1.72,1.58c-1.39,3.16 -3.63,7.37 -5.39,10.59c-7.15,4.33 -17.89,12.36 -14.85,20.08c4.46,11.34 10.81,9.84 14.58,8.5s10.51,-11.83 10.51,-11.83s2.23,-4.17 3.94,-4.17a22.18,22.18 0 0 0 2.73,-0.29c0,0.18 0,0.29 0,0.29s-3.6,14.17 -2.4,17.67s0.17,8 0.17,8s-1,10.33 0.34,13.67s-1.86,12.31 -1.86,12.31s0.92,0.28 2.51,0.67c-0.12,0.57 -0.26,1.2 -0.41,1.9c-2.1,9.93 -5.87,32.6 -1.58,51.26c0,0 2.4,10 2.74,12.68s2.4,5 1,11s2.74,17.01 2.74,17.01s2.06,10.5 0.86,15.33s12.52,59 12.52,59l2.24,-0.32l0.5,1.93l2.23,8.6l0.24,0.94a7.4,7.4 0 0 0 -4,2.52s-6,13.67 -13.55,17.5c-2,1 -4.45,2.34 -6.81,3.79c-6.74,4.12 -12.52,9.08 -2.7,9.21c10.76,0.14 28.44,0.71 34.78,0.92c1.35,0.73 3.62,1.15 7.15,1.08c17.66,-0.33 42.71,-2.17 43.23,-3.83c0.25,-0.81 -0.8,-2.53 -1.94,-4.08s-2.53,-3.09 -2.53,-3.09l-0.51,-15.17s-1.44,-1.3 -3.67,-3.09l-0.08,-1.06l-1.12,-14.63l-0.15,-2a5.77,5.77 0 0 0 2.1,-0.91l1.21,-15.15s7.37,-25.33 -2.06,-50.17c0,0 -8.23,-17.16 -6,-23.33l0.35,-13.17s3.94,-15.51 5.83,-19.67a106.58,106.58 0 0 0 5.88,-19.88c6.77,-10.74 5.66,-25 5.66,-25l4.8,-15l6.69,-19.16s1.89,-11.67 2.58,-14s0,-15 0,-15s5.8,-46.2 0.95,-64.25l0,-0.69l0.05,0s0,-0.38 0,-1c0.08,-0.09 5.28,-5.51 2.9,-7c-2,-1.24 -5.59,-6.78 -8.33,-10.09c-0.37,-0.43 -0.71,-0.82 -1,-1.17a34.29,34.29 0 0 0 8.25,-9.16c0.84,-1.37 1.87,-3 3.51,-3.07a4.43,4.43 0 0 1 2.45,0.81c12.57,7.53 14.59,26.36 27.84,32.69a19.78,19.78 0 0 0 17.69,-0.51l-1.32,-0.32zm-100.56,301.14l-0.11,1a5.4,5.4 0 0 0 -1.25,0.62s-1.72,8.83 -2.75,9.5a8.28,8.28 0 0 0 -1.27,2.24l-0.25,-0.45c-0.08,0.18 -0.17,0.36 -0.25,0.55l-0.46,-0.84l-0.13,-1l-2.86,-22.11c-0.24,-3.23 -0.94,-13.93 0.08,-19.55c1.2,-6.67 1,-30 -6.69,-39.33c0,0 -3.6,-8.5 -0.34,-14l0.51,-34.68l1.2,-1.17l0.17,32a32.27,32.27 0 0 0 7.72,18.34l1.21,16.83s1,18.33 4.11,28.5l0,15.67s0.83,0.14 2.16,0.33l-0.21,2l-0.59,5.55z"/>
  <path id="svg_120" fill="#d68694" d="m888.15,384.46l-7.17,16l-2.65,1.55l-17.85,10.45s-22.5,-2.17 -23.16,-2.5s-1.72,-19.44 4.1,-23.46a3.84,3.84 0 0 1 1.05,-0.53l0,0c3.57,-1.2 4.93,-6.12 5.4,-10.66c0.07,-0.67 0.12,-1.32 0.15,-2a47.41,47.41 0 0 0 0,-6.38s5.46,-5.46 12,-11.11c11.59,-10 26.58,-20.55 20.83,-2.56a60.08,60.08 0 0 0 -2.34,9.94c-0.12,0.79 -0.2,1.56 -0.26,2.29c-0.7,8.86 2.07,13.64 4.86,16.18c0.3,0.28 0.61,0.52 0.91,0.75a11,11 0 0 0 4.13,2.04z"/>
  <polygon id="svg_121" fill="#d68694" points="861.48 732.46 858.98 733.62 842.15 729.79 840.65 723.83 838.48 715.23 836.98 709.29 858.57 709.29 861.35 731.42 861.48 732.46"/>
  <path id="svg_122" opacity="0.1" d="m858.98,733.62l-16.83,-3.83l-1.5,-6c6.38,-1.91 15.67,3.46 15.67,3.46c-0.61,2.12 4.18,3.84 5,4.13l0.13,1l-2.47,1.24z"/>
  <path id="svg_123" opacity="0.1" d="m866.98,741.79l-12.07,11.83l-4.26,4.17l-2.31,-0.08c-4.35,-2.44 1.29,-8.37 5.06,-11.66c0.74,-0.65 1.41,-1.19 1.92,-1.59c2.7,-2.11 5.23,-8.12 6.85,-11.71l4.81,9.04z"/>
  <path id="svg_124" opacity="0.1" d="m862.17,732.75l4.81,9l-12.07,11.83l-4.26,4.21l-2.31,-0.08c-4.35,-2.44 1.29,-8.37 5.06,-11.66c0.74,-0.65 1.41,-1.19 1.92,-1.59c2.7,-2.11 5.23,-8.12 6.85,-11.71z"/>
  <path id="svg_125" opacity="0.1" d="m889.15,733.62l-22.17,-7.5l0.66,-6.33c5.78,-2 15.83,5.27 21.2,9.68l0.31,4.15z"/>
  <path id="svg_126" fill="#3f3d56" d="m866.98,742.79l-12.07,11.83l-4.26,4.17s-23.17,-0.83 -36.07,-1c-9.54,-0.13 -3.93,-5.09 2.62,-9.21c2.3,-1.45 4.71,-2.79 6.62,-3.79c7.33,-3.83 13.16,-17.5 13.16,-17.5c5.5,-7 19.34,1 19.34,1c-0.67,2.33 5.16,4.17 5.16,4.17l5.5,10.33z"/>
  <path id="svg_127" opacity="0.1" d="m854.91,754.62l-4.26,4.17s-23.17,-0.83 -36.07,-1c-9.54,-0.13 -3.93,-5.09 2.62,-9.21c3.53,0.8 7.08,2.5 8.28,6l29.43,0.04z"/>
  <polygon id="svg_128" fill="#d68694" points="889.15 733.62 866.98 726.12 867.64 719.79 868.21 714.26 868.98 706.79 887.15 706.79 887.75 714.84 888.84 729.47 889.15 733.62"/>
  <path id="svg_129" fill="#3f3d56" d="m897.32,755.96c-0.5,1.66 -24.84,3.5 -42,3.83c-14.9,0.29 -6.83,-8.46 -1.92,-12.74c0.74,-0.65 1.41,-1.19 1.92,-1.59c3.83,-3 7.33,-13.84 8.33,-14.5s2.67,-9.5 2.67,-9.5c7.5,-5.34 26.16,12.16 26.16,12.16l0.5,15.17s1.28,1.45 2.46,3.09s2.12,3.27 1.88,4.08z"/>
  <path id="svg_130" opacity="0.1" d="m897.32,755.96c-0.5,1.66 -24.84,3.5 -42,3.83c-14.9,0.29 -6.83,-8.46 -1.92,-12.74a22.1,22.1 0 0 1 9.42,7.57l19.16,0s9.24,-1.34 13.46,-2.74c1.1,1.55 2.12,3.27 1.88,4.08z"/>
  <path id="svg_131" opacity="0.1" d="m858.44,709.29c0.11,1.83 0.21,3 0.21,3l-20.17,2.94l-1.5,-5.94l21.46,0z"/>
  <path id="svg_132" opacity="0.1" d="m887.75,714.84c-4.93,1.37 -15.28,0.05 -19.54,-0.58l0.77,-7.47l18.17,0l0.6,8.05z"/>
  <path id="svg_133" fill="#4d488e" d="m888.82,646.62c9.16,24.84 2,50.17 2,50.17l-1.17,15.17c-4.17,3.33 -23.33,0 -23.33,0l0,-15.67c-3,-10.17 -4,-28.5 -4,-28.5l-1.17,-16.83a32.8,32.8 0 0 1 -7.5,-18.34l-0.17,-32l-1.16,1.17l-0.5,34.67c-3.17,5.5 0.33,14 0.33,14c7.5,9.33 7.67,32.66 6.5,39.33s0,20.5 0,20.5l-22.83,3.33s-13.34,-54.16 -12.17,-59s-0.83,-15.33 -0.83,-15.33s-4,-11 -2.67,-17s-0.67,-8.33 -1,-11s-2.67,-12.67 -2.67,-12.67c-4.16,-18.66 -0.5,-41.33 1.54,-51.26c0.65,-3.19 1.13,-5.07 1.13,-5.07s62,-18 72.5,-3a21.54,21.54 0 0 1 2.84,5.91c5.13,16.21 -3.89,41.58 -5.51,45.26c-1.83,4.16 -5.66,19.66 -5.66,19.66l-0.34,13.17c-2.16,6.17 5.84,23.33 5.84,23.33z"/>
  <circle id="svg_134" fill="#ff682b" r="0.67" cy="671.46" cx="872.81"/>
  <circle id="svg_135" fill="#ff682b" r="0.67" cy="688.18" cx="839.63"/>
  <circle id="svg_136" fill="#ff682b" r="0.67" cy="677.63" cx="837.31"/>
  <circle id="svg_137" fill="#ff682b" r="0.67" cy="678.46" cx="841.89"/>
  <circle id="svg_138" fill="#ff682b" r="0.67" cy="684.11" cx="839.93"/>
  <circle id="svg_139" fill="#ff682b" r="0.67" cy="682.46" cx="869.98"/>
  <circle id="svg_140" fill="#ff682b" r="0.67" cy="686.29" cx="883.98"/>
  <circle id="svg_141" fill="#ff682b" r="0.67" cy="681.79" cx="888.48"/>
  <circle id="svg_142" fill="#ff682b" r="0.67" cy="679.13" cx="874.15"/>
  <circle id="svg_143" fill="#ff682b" r="0.67" cy="674.56" cx="846.96"/>
  <circle id="svg_144" fill="#ff682b" r="0.67" cy="678.46" cx="852.52"/>
  <circle id="svg_145" fill="#ff682b" r="0.67" cy="695.38" cx="842.96"/>
  <circle id="svg_146" fill="#ff682b" r="0.67" cy="703.46" cx="845.26"/>
  <circle id="svg_147" fill="#ff682b" r="0.67" cy="706.28" cx="852.81"/>
  <circle id="svg_148" fill="#ff682b" r="0.67" cy="706.79" cx="848.29"/>
  <circle id="svg_149" fill="#ff682b" r="0.67" cy="710.6" cx="844.29"/>
  <circle id="svg_150" fill="#ff682b" r="0.67" cy="683.44" cx="847.63"/>
  <circle id="svg_151" fill="#ff682b" r="0.67" cy="691.63" cx="847.63"/>
  <circle id="svg_152" fill="#ff682b" r="0.67" cy="697.02" cx="851.86"/>
  <circle id="svg_153" fill="#ff682b" r="0.67" cy="699.45" cx="848.02"/>
  <circle id="svg_154" fill="#ff682b" r="0.67" cy="710.6" cx="840.29"/>
  <circle id="svg_155" fill="#ff682b" r="0.67" cy="700.86" cx="852.15"/>
  <circle id="svg_156" fill="#ff682b" r="0.67" cy="676.96" cx="883.98"/>
  <circle id="svg_157" fill="#ff682b" r="0.67" cy="686.29" cx="877.4"/>
  <circle id="svg_158" fill="#ff682b" r="0.67" cy="700.12" cx="872.81"/>
  <circle id="svg_159" fill="#ff682b" r="0.67" cy="709.29" cx="871.31"/>
  <circle id="svg_160" fill="#ff682b" r="0.67" cy="680.46" cx="879.15"/>
  <circle id="svg_161" fill="#ff682b" r="0.67" cy="690.29" cx="876.73"/>
  <circle id="svg_162" fill="#ff682b" r="0.67" cy="697.69" cx="878.73"/>
  <circle id="svg_163" fill="#ff682b" r="0.67" cy="705.22" cx="868.23"/>
  <circle id="svg_164" fill="#ff682b" r="0.67" cy="702.79" cx="874.15"/>
  <circle id="svg_165" fill="#ff682b" r="0.67" cy="704.79" cx="872.15"/>
  <circle id="svg_166" fill="#ff682b" r="0.67" cy="701.88" cx="883.98"/>
  <circle id="svg_167" fill="#ff682b" r="0.67" cy="704.13" cx="883.98"/>
  <circle id="svg_168" fill="#ff682b" r="0.67" cy="709.29" cx="877.4"/>
  <circle id="svg_169" fill="#ff682b" r="0.67" cy="711.27" cx="875.48"/>
  <circle id="svg_170" fill="#ff682b" r="0.67" cy="705.22" cx="880.06"/>
  <circle id="svg_171" fill="#ff682b" r="0.67" cy="708.63" cx="874.81"/>
  <circle id="svg_172" fill="#ff682b" r="0.67" cy="700.12" cx="886.46"/>
  <circle id="svg_173" fill="#ff682b" r="0.67" cy="704.13" cx="887.81"/>
  <circle id="svg_174" fill="#ff682b" r="0.67" cy="702.79" cx="878.06"/>
  <circle id="svg_175" fill="#ff682b" r="0.67" cy="709.6" cx="880.06"/>
  <circle id="svg_176" fill="#ff682b" r="0.67" cy="708.63" cx="883.98"/>
  <circle id="svg_177" fill="#ff682b" r="0.67" cy="711.27" cx="883.31"/>
  <circle id="svg_178" fill="#ff682b" r="0.67" cy="711.94" cx="880.06"/>
  <circle id="svg_179" fill="#ff682b" r="0.67" cy="694.98" cx="883.31"/>
  <circle id="svg_180" fill="#ff682b" r="0.67" cy="700.19" cx="837.38"/>
  <circle id="svg_181" fill="#ff682b" r="0.67" cy="702.44" cx="837.38"/>
  <circle id="svg_182" fill="#ff682b" r="0.67" cy="698.44" cx="839.86"/>
  <circle id="svg_183" fill="#ff682b" r="0.67" cy="706.28" cx="841.88"/>
  <circle id="svg_184" fill="#ff682b" r="0.67" cy="702.44" cx="841.21"/>
  <circle id="svg_185" fill="#ff682b" r="0.67" cy="706.94" cx="837.38"/>
  <circle id="svg_186" fill="#ff682b" r="0.67" cy="693.3" cx="836.71"/>
  <polygon id="svg_187" opacity="0.1" points="850.48 543.63 852.15 594.63 853.98 593.29 855.32 540.79 850.48 543.63"/>
  <path id="svg_188" fill="#d68694" d="m822.32,474.96s-11.5,-10.84 -14,-5s-7.84,15.33 -7.84,15.33l12.67,12s2.17,-4.17 3.83,-4.17a54.81,54.81 0 0 0 6.5,-1l-1.16,-17.16z"/>
  <polygon id="svg_189" fill="#d68694" points="830.15 429.96 822.48 487.62 819.6 483.21 809.98 468.46 811.48 452.62 812.25 426.2 812.48 418.29 830.15 429.96"/>
  <path id="svg_190" opacity="0.1" d="m880.82,353.29a55.35,55.35 0 0 0 -2.6,12.23a30.93,30.93 0 0 1 -23.32,10.58a31.28,31.28 0 0 1 -7,-0.8a48.24,48.24 0 0 0 0.1,-8.34s41.82,-41.84 32.82,-13.67z"/>
  <path id="svg_191" fill="#d68694" d="m885.9,343.1a30.88,30.88 0 0 1 -7.42,20.13a31.23,31.23 0 0 1 -10.43,7.95a31,31 0 0 1 -44.15,-28.08a31.62,31.62 0 0 1 0.37,-4.8a31,31 0 0 1 61.63,4.8z"/>
  <path id="svg_192" opacity="0.1" d="m821.15,434.12c-3.67,-3.12 -7.78,-5.91 -8.9,-7.92l0.23,-7.91l17.67,11.67l-7.67,57.66l-2.83,-4.41c0.16,-3 0.52,-5.84 1.22,-7.25c2,-4 0.5,-10.17 0.5,-12.17s2.83,-5.17 2.66,-6.5a79.16,79.16 0 0 0 -1,-8.33c-0.71,-3.17 2.62,-11 -1.88,-14.84z"/>
  <path id="svg_193" opacity="0.1" d="m894.49,545.2l0,0.09s-21.84,-3.5 -38.84,2.5c-13.94,4.92 -31.7,1.1 -37.63,-0.43c0.65,-3.19 1.13,-5.07 1.13,-5.07s62,-18 72.5,-3a21.54,21.54 0 0 1 2.84,5.91z"/>
  <path id="svg_194" opacity="0.1" d="m888.15,384.46l-7.17,16l-20.5,12s-22.5,-2.17 -23.16,-2.5s-1.72,-19.44 4.1,-23.46c-1.64,4.62 -3.43,14 8.73,14.79a50.46,50.46 0 0 0 32.93,-19.59a11.5,11.5 0 0 0 5.07,2.76z"/>
  <path id="svg_195" fill="#f9d4f2" d="m914.82,416.46l-0.34,7.5l-20,119.33s-21.83,-3.5 -38.83,2.5s-39.67,-1 -39.67,-1s3.17,-9 1.84,-12.33s-0.34,-13.67 -0.34,-13.67s1,-4.5 -0.16,-8s2.33,-17.67 2.33,-17.67s-0.83,-15.16 1.17,-19.16s0.5,-10.17 0.5,-12.17s2.83,-5.17 2.66,-6.5a79.16,79.16 0 0 0 -1,-8.33c-0.66,-3.17 2.67,-11 -1.83,-14.84s-9.67,-7.16 -9.17,-9.16s-5.16,-1.5 -5.16,-1.5a12.39,12.39 0 0 1 1.33,-6.84c1.83,-3.66 1,-10.83 1,-10.83s4,-0.17 3.5,-5.17a29.21,29.21 0 0 1 0.17,-8.16s1.66,1.5 6.5,1.33s10.16,1.17 11.66,-0.33s8.17,-6.67 11.5,-5.5l0,0c-0.26,0.51 -8.23,16.34 7.68,17.32a50.45,50.45 0 0 0 33.84,-20.84s1.83,-2 7.83,4.51s11.16,4 11.16,4l6.67,0.5s-4.33,3.66 -1.67,6.16a17.3,17.3 0 0 1 1.57,1.75c2.67,3.31 6.18,8.85 8.1,10.09c2.32,1.51 -2.84,7.01 -2.84,7.01z"/>
  <path id="svg_196" fill="#d68694" d="m808.82,477.29s-24.5,12 -20.17,23.33s10.5,9.84 14.17,8.5s10.33,-11.83 10.33,-11.83l-4.33,-20z"/>
  <path id="svg_197" opacity="0.1" d="m877.9,410.22c0,1.07 -6.25,14.57 0,18.07s0,-18.07 0,-18.07z"/>
  <path id="svg_198" opacity="0.1" d="m828.65,405.54s-8.83,9.5 -5.17,10.5s5.17,-10.5 5.17,-10.5z"/>
  <path id="svg_199" fill="#d68694" d="m888.15,424.12s3.83,23.67 4,30.67s1.17,18.33 1.17,18.33s2.83,27 -1.5,38s-3.67,23 -3.67,23s-12.67,24.67 -14.5,27.17s1.5,26.17 14.83,16.17s11.67,-31.84 11.67,-31.84l4.67,-15l6.5,-19.16s1.83,-11.67 2.5,-14s0,-15 0,-15s7.83,-64.17 -2.67,-70.84s-23,12.5 -23,12.5z"/>
  <path id="svg_200" opacity="0.1" d="m888.15,432.29s15.67,-17.17 20.5,-15.67s6.17,0.84 6.17,0.84s0.66,-9.5 -6.5,-13s-15,-14.17 -21,-1.5s0.83,29.33 0.83,29.33z"/>
  <path id="svg_201" fill="#f9d4f2" d="m888.15,431.29s15.67,-17.17 20.5,-15.67s6.17,0.84 6.17,0.84s0.66,-9.5 -6.5,-13s-15,-14.17 -21,-1.5s0.83,29.33 0.83,29.33z"/>
  <path id="svg_202" opacity="0.1" d="m909.55,399.37a31.7,31.7 0 0 1 -3.63,2.71a27,27 0 0 1 -10.49,4a23.43,23.43 0 0 1 -9.46,-0.53a22.91,22.91 0 0 1 -7.64,-3.55a19.42,19.42 0 0 1 -5.79,-6.43c-0.2,-0.36 -0.38,-0.72 -0.55,-1.08c-3.36,-7.08 -2.46,-15.51 -3.94,-23.32c-0.11,-0.55 -0.23,-1.11 -0.36,-1.66a27.19,27.19 0 0 0 -7.7,-13.67c-5.35,-5.17 -12.56,-8.31 -20,-12.21c-4.33,-2.28 -8,-4.09 -12.92,-4.73a16.77,16.77 0 0 1 -2.83,-0.61a31,31 0 1 1 54.21,24.93c-0.12,0.79 -0.2,1.56 -0.26,2.29c-0.7,8.86 2.07,13.64 4.86,16.18c0.3,0.28 0.61,0.52 0.91,0.75c0,0 1.83,-2 7.83,4.51s11.16,4 11.16,4l6.67,0.5s-4.33,3.66 -1.67,6.16a17.3,17.3 0 0 1 1.6,1.76z"/>
  <path id="svg_203" fill="#512e4e" d="m820.65,325.54c2.23,-2.65 5.55,-4.07 8.66,-5.6s6.3,-3.42 7.8,-6.54c2.62,-5.42 -0.5,-13.15 4,-17.21c2.15,-1.95 5.31,-2.19 8.21,-2.19a44.36,44.36 0 0 1 14,1.86c6.9,2.29 12.66,7 18.8,10.93s13.37,7.09 20.51,5.69c4.17,-0.81 8.62,-3.12 12.38,-1.13c2.26,1.2 3.55,3.71 4.12,6.21a17,17 0 0 1 -0.44,9.06c-1.63,4.91 -5.44,8.86 -7.12,13.75c-0.62,1.81 -0.91,3.93 0.09,5.56c1.17,1.89 3.66,2.49 5.88,2.41s4.42,-0.67 6.63,-0.42c6.34,0.72 10,7.95 10,14.33s-2.21,12.6 -2.28,19c-0.09,8.75 4.07,17.16 10,23.59a47.35,47.35 0 0 0 24.8,14.13a18.71,18.71 0 0 1 -17.19,0.51c-12.87,-6.33 -14.84,-25.15 -27,-32.68a4.14,4.14 0 0 0 -2.38,-0.81c-1.59,0.1 -2.59,1.7 -3.41,3.06c-4.59,7.67 -12.29,13.73 -21.13,15.06s-18.58,-2.67 -22.89,-10.51s-2.76,-17.41 -4.85,-26.06c-3.63,-15 -15.37,-19.4 -27.67,-25.88c-4.33,-2.28 -8,-4.09 -12.92,-4.73c-6.27,-0.81 -12.11,-4.87 -6.6,-11.39z"/>
  <g id="svg_204" opacity="0.1">
   <path id="svg_205" d="m838.72,310.64c2.36,-4.88 0.08,-11.63 2.86,-15.89a6.61,6.61 0 0 0 -0.91,0.69c-4.45,4.05 -1.33,11.78 -3.95,17.2a9.44,9.44 0 0 1 -1.07,1.65a10.62,10.62 0 0 0 3.07,-3.65z"/>
   <path id="svg_206" d="m951.05,416.71c-12.88,-6.33 -14.85,-25.15 -27.06,-32.69a4.19,4.19 0 0 0 -2.38,-0.81c-1.28,0.08 -2.17,1.13 -2.9,2.25a2.51,2.51 0 0 1 0.9,-0.25a4.19,4.19 0 0 1 2.38,0.81c12.21,7.54 14.18,26.36 27.06,32.69a18.72,18.72 0 0 0 17.18,-0.51c-0.59,-0.13 -1.19,-0.27 -1.78,-0.42a18.76,18.76 0 0 1 -13.4,-1.07z"/>
   <path id="svg_207" d="m897.07,401.34c-8.83,1.33 -18.58,-2.68 -22.88,-10.51s-2.76,-17.42 -4.85,-26.06c-3.64,-15 -15.38,-19.4 -27.68,-25.88c-4.32,-2.29 -8,-4.09 -12.91,-4.73c-6,-0.79 -11.77,-4.73 -6.74,-11.07a12.15,12.15 0 0 0 -1.75,1.69c-5.48,6.52 0.36,10.58 6.49,11.38c4.91,0.64 8.59,2.44 12.91,4.73c12.3,6.48 24,10.84 27.68,25.88c2.09,8.64 0.56,18.27 4.85,26.06s14.05,11.84 22.88,10.51a29.38,29.38 0 0 0 16.92,-9.42a28.7,28.7 0 0 1 -14.92,7.42z"/>
  </g>
  <path id="svg_209" fill="#f7c3c6" d="m163.65,380.04c-0.75,0 -59.75,11.25 -45,-8.75a35.87,35.87 0 0 0 6,-12.54a41.33,41.33 0 0 0 0.9,-14.56a51.35,51.35 0 0 0 -4.9,-16.9s48.75,-10.75 41,-2.5c-3.38,3.6 -3.29,14.59 -2.17,25.82c0.6,6.07 1.5,12.2 2.31,17.29c1.14,7.09 2.1,12.14 1.86,12.14z"/>
  <path id="svg_210" fill="#3f3d56" d="m113.65,764.51s15.25,14.06 24.5,15.16s22.25,5.09 13.5,11.34s-52.75,3.81 -52.75,3.81s-10.19,-6.66 -4.75,-15.06s19.5,-15.25 19.5,-15.25z"/>
  <path id="svg_211" opacity="0.1" d="m151.65,791.01a16.22,16.22 0 0 1 -5.48,2.13c-14.65,3.49 -47.27,1.68 -47.27,1.68s-10.19,-6.66 -4.75,-15.06s19.5,-15.25 19.5,-15.25s15.25,14.06 24.5,15.16l1.31,0.17c9.1,1.3 20.53,5.21 12.19,11.17z"/>
  <path id="svg_212" opacity="0.1" d="m151.65,791.01a16.22,16.22 0 0 1 -5.48,2.13l-1,-0.05s-8.77,-5.72 -5.69,-13.25c9.08,1.3 20.51,5.21 12.17,11.17z"/>
  <path id="svg_213" fill="#3f3d56" d="m161.9,762.79s15.25,14 24.5,15.15s22.25,5.1 13.5,11.35s-52.75,3.8 -52.75,3.8s-10.19,-6.65 -4.75,-15s19.5,-15.3 19.5,-15.3z"/>
  <path id="svg_214" opacity="0.1" d="m161.9,762.79s15.25,14 24.5,15.15s22.25,5.1 13.5,11.35s-52.75,3.8 -52.75,3.8s-10.19,-6.65 -4.75,-15s19.5,-15.3 19.5,-15.3z"/>
  <path id="svg_215" fill="#3f3d56" d="m147.99095,772.04c-1.85292,1.47 -6.29991,2.24 -11.68263,2.58l-0.08338,0l-1.00984,0.06c-0.59293,0 -1.2044,0.06 -1.85292,0.07c-13.55408,0.47 -31.03634,-1.21 -31.03634,-1.21s1.38969,-2.5 -2.08453,-4.25s0.46323,-4 0.92646,-8.25s-8.06945,-17.75 -8.06945,-17.75s-5.32713,-52.5 -2.9554,-56.75s-2.37173,-10.5 -2.37173,-10.5s4.40068,-2.5 1.21366,-6.75s-2.14012,-20.75 -0.2872,-25.5s-5.79036,-25.5 -5.55875,-30.75s-1.6213,-11.75 -8.10651,-41.75c-4.53038,-21 2.36247,-38.26 6.92064,-46.78a43.85852,47.34 0 0 1 3.50201,-5.72l44.23837,0l1.12101,11.24l0.05559,0.62c0.37058,3.79 0.82455,8.38 1.3341,13.65c6.17947,63.42 21.16956,223.53 15.78684,227.74z"/>
  <path id="svg_216" opacity="0.1" d="m146.9,773.04c-2.17,1.57 -7.45,2.34 -13.79,2.64a33.69,33.69 0 0 0 -5,0.07s-0.75,-1.71 -9.75,-8s0,-20.5 0,-20.5l-9.36,-38.25s-2.35,-10.21 -0.35,-16.21s-4.31,-7.5 -4.31,-7.5s6.31,-4 0,-9.25s-7.19,-24.5 -7.19,-24.5s-9,-12 -5,-16s-2.5,-13.5 -2.5,-13.5s-9.5,-15 -8.5,-20s14.5,-3.25 10.5,-19.25s20.65,6 20.65,6l16.12,-57.14c5.23,49.44 24.77,236.83 18.48,241.39z"/>
  <path id="svg_217" fill="#3f3d56" d="m171.15,764.29s-27,17 -28.75,13.75c-1.09,-2 -5.18,-2.41 -8.11,-2.42l-0.09,0c-1.74,0 -3.05,0.13 -3.05,0.13s-0.75,-1.71 -9.75,-8s0,-20.5 0,-20.5l-9.36,-38.25s-2.39,-10.21 -0.39,-16.21s-4.31,-7.5 -4.31,-7.5s6.31,-4 0,-9.25s-7.19,-24.5 -7.19,-24.5s-9,-12 -5,-16s-2.5,-13.5 -2.5,-13.5s-9.5,-15 -8.5,-20s0,-4 -4,-20c-3,-12.06 4.76,-39.17 8.78,-51.79c1.31,-4.13 2.22,-6.71 2.22,-6.71l37.21,7.49l37.29,7.51l1,13.25l-0.28,2.1l-5,37l-3,32.11s0,9.25 -1.5,13.5s0.75,22 0.75,22s0,3.5 -3.75,17.5s3.25,19.5 3.25,19.5s4.5,38.75 3,47.25s11.03,21.54 11.03,21.54z"/>
  <path id="svg_218" opacity="0.1" d="m116.28,671.29c3.75,0.63 23.12,1 18,3.38s-18,-3.38 -18,-3.38z"/>
  <path id="svg_219" opacity="0.1" d="m114.15,683.92c1.5,-0.13 8.38,-3.13 10.25,-2.88s4.38,-0.53 6.63,0s6.46,2 4.1,2.89s-7.3,0.12 -10.14,1s-10.84,-1.01 -10.84,-1.01z"/>
  <path id="svg_220" opacity="0.1" d="m93.65,678.67c1,-0.13 8.75,-2.13 8.13,0s-8.13,0 -8.13,0z"/>
  <path id="svg_221" opacity="0.1" d="m81.28,615.92c0.75,1 5.12,11 7.25,11s-7.25,-11 -7.25,-11z"/>
  <path id="svg_222" opacity="0.1" d="m161.65,324.79c-3.38,3.6 -3.29,14.59 -2.17,25.82a40.09,40.09 0 0 1 -10.29,1.34c-8.87,0 -9.57,-11.19 -16.2,-16.06c-1.05,-9.75 -12.34,-8.6 -12.34,-8.6s48.75,-10.75 41,-2.5z"/>
  <path id="svg_223" fill="#f7c3c6" d="m189.19,309.95a40,40 0 1 1 -1.4,-10.51a40,40 0 0 1 1.4,10.51z"/>
  <path id="svg_224" opacity="0.1" d="m163.65,380.04c-0.75,0 -59.75,11.25 -45,-8.75a35.87,35.87 0 0 0 6,-12.54c11.93,-3.81 26.55,2.54 26.55,2.54l6.75,5a23.22,23.22 0 0 1 3.89,1.61c1.09,7.09 2.05,12.14 1.81,12.14z"/>
  <path id="svg_225" opacity="0.1" d="m166.65,551.79l-0.28,2.1c-1.59,0.54 -8.9,2.57 -26.38,-4.6c-2.81,-1.15 -6.28,-2.51 -10.13,-4c-12.41,-4.75 -28.89,-10.73 -40.93,-15c-5.77,-2.07 -10.52,-3.76 -13.31,-4.74a47.34,47.34 0 0 1 3.78,-5.72l47.75,0l1.21,11.24l37.29,7.47l1,13.25z"/>
  <path id="svg_226" fill="#d0cde1" d="m151.15,362.29s-26.5,-11.5 -37.25,5.75s-15.5,27.5 -15.5,27.5s-1.5,11.5 -4.25,14.25s5,52.25 5,52.25s-9.25,19 -1,22.37s-0.75,6.13 -0.75,6.13s2.5,5.75 -2.25,6.25s-7.5,9.25 -7.5,9.25l-14.75,16.5s48.17,17 67.09,24.75s25.91,4.75 26.66,4.5s12.25,-31.75 12.25,-31.75s-0.5,-8.75 3.75,-11.75s0,-67.75 0,-67.75l-1.46,-40.43a36.55,36.55 0 0 0 -18.21,-30.57a25.32,25.32 0 0 0 -5.08,-2.25l-6.75,-5z"/>
  <path id="svg_227" fill="#b1adc9" d="m177.4,431.29l5.25,9.25s-42,12 -43.65,0.5c-0.25,-1.68 16.4,-15 16.4,-15l22,5.25z"/>
  <path id="svg_228" opacity="0.1" d="m178.88148,431.29l5.25,9.25s-42,12 -43.65,0.5c-0.25,-1.68 16.4,-15 16.4,-15l22,5.25z"/>
  <path id="svg_229" opacity="0.1" d="m105.9,481.29s20,-6.5 15.75,-1.25s-15.75,1.25 -15.75,1.25z"/>
  <path id="svg_230" opacity="0.1" d="m128.72,482.75s10.23,12.78 12.68,8s-12.68,-8 -12.68,-8z"/>
  <path id="svg_231" opacity="0.1" d="m187.79,299.44a25.88,25.88 0 0 0 -3.52,4.47c-3.5,5.5 -6.12,5.63 -6.12,5.63s0,11.9 -1.62,13.14s-10.88,-5.27 -11,-6.89s-11.43,-19.25 -16.34,3.12l-0.92,18.13s-16.2,2 -24.49,3.81a40,40 0 1 1 64,-41.41l0.01,0z"/>
  <path id="svg_232" fill="#3f3d56" d="m162.15,259.67l3.13,0l-1.57,1.25l4.07,0l0,1.5l3.37,1.37l0,1l3.13,0.63l-0.75,2.12l5.5,0l-0.63,2.41l3.75,1.72l0,2.62s3.75,1.75 5,1.75s3.32,1.13 2,1.75s1,1.38 2.09,1.5s2.5,1.38 1.87,1.88l-0.62,0.5s3.37,2.87 4,2.87s0.62,2.38 0,2.63s-3,1.62 -1,2.87s1.75,3.63 0.5,3.63s-1.75,-1.63 -1.88,0.62s-2,5.13 -2.25,2.88s-4.12,0.25 -7.62,5.75s-6.13,5.62 -6.13,5.62s0,11.9 -1.62,13.14s-10.88,-5.26 -11,-6.89s-11.43,-19.25 -16.34,3.13l-0.91,18.12s-27,3.38 -29.13,5.25s-34.17,-24 -21.67,-51.17s15.17,-29.5 24.34,-32.66s32.2,-3.59 40.37,2.21z"/>
  <path id="svg_233" fill="#f7c3c6" d="m141.15,435.54s-0.25,20.25 -2,25.25s12,51.75 12,51.75s11,24.65 9,32.25s0.75,56.25 17.25,44.25s4.25,-51.25 4.25,-51.25s-5.25,-21.86 -5.25,-24.55s-5.5,-43.2 -5.5,-43.2s-4.25,-13.25 -3,-21.25s1.75,-22.75 1.75,-22.75l-28.5,9.5z"/>
  <path id="svg_234" opacity="0.1" d="m157.9,397.54s-20.06,6.5 -20.9,24.25s0,19.25 0,19.25s29.9,-15 43.65,-0.5l-1.41,-39.25l-21.34,-3.75z"/>
  <path id="svg_235" fill="#d0cde1" d="m159.9,397.54s-20.06,6.5 -20.9,24.25s0,19.25 0,19.25s29.9,-15 43.65,-0.5l-1.41,-39.25l-21.34,-3.75z"/>
  <g id="svg_236" opacity="0.1">
   <path id="svg_237" d="m186.87,276.02c-0.45,0.56 1.41,1.16 2.41,1.27a1.63,1.63 0 0 1 0.3,0.07c0.07,-0.61 -1.43,-1.32 -2.43,-1.32l-0.28,-0.02z"/>
   <path id="svg_238" d="m180.15,272.29s0.92,0.43 2,0.86l0,-1.48l-2,-0.92l0,1.54z"/>
   <path id="svg_239" d="m191.04,279.29l-0.51,0.41s1.15,1 2.24,1.8l0.38,-0.3c0.63,-0.5 -0.75,-1.75 -1.87,-1.88l-0.24,-0.03z"/>
   <polygon id="svg_240" points="176.4 267.96 178.65 268.98 179.02 267.54 176.51 267.54 176.4 267.96"/>
   <path id="svg_241" d="m147.19,315.92l-0.91,18.12s-27,3.38 -29.13,5.25c-0.66,0.59 -4.25,-1.54 -8.49,-5.57c5.06,5.31 9.72,8.25 10.49,7.57c2.13,-1.87 29.13,-5.25 29.13,-5.25l0.91,-18.12c2.87,-13.12 8,-12.49 11.68,-9.4c-3.68,-4.33 -10.22,-8.23 -13.68,7.4z"/>
   <path id="svg_242" d="m195.53,290.04c-2,-1.25 0.37,-2.62 1,-2.87s0.62,-2.63 0,-2.63a4.65,4.65 0 0 1 -1.54,-0.91c0,0.66 -0.13,1.4 -0.46,1.54c-0.63,0.25 -3,1.62 -1,2.87s1.75,3.63 0.5,3.63s-1.75,-1.63 -1.88,0.62s-2,5.13 -2.25,2.88s-4.12,0.25 -7.62,5.75s-6.13,5.62 -6.13,5.62s0,11.9 -1.62,13.14c-1.13,0.85 -5.87,-2 -8.75,-4.34c1.47,2.18 9.26,7.47 10.75,6.34s1.62,-13.14 1.62,-13.14s2.63,-0.12 6.13,-5.62s7.37,-8 7.62,-5.75s2.13,-0.63 2.25,-2.88s0.63,-0.62 1.88,-0.62s1.5,-2.38 -0.5,-3.63z"/>
   <polygon id="svg_243" points="171.52 265.54 174.23 265.54 174.27 265.42 171.75 264.91 171.52 265.54"/>
   <polygon id="svg_244" points="167.77 261.23 167.77 260.92 167 260.92 167.77 261.23"/>
  </g>
  <g transform="rotate(-0.906438, 536.872, 692.983)">
   <g id="svg_251">
    <path fill-rule="evenodd" fill="#878784" d="m508.19348,627.09705c-12.60929,0.76568 -19.91371,1.37822 -32.47881,2.72029c-15.4672,1.65153 -39.07952,5.77769 -41.38286,7.22929c-3.33184,2.10243 -3.35172,7.23993 -0.03535,9.33172c2.00286,1.26337 25.70687,5.49269 39.20877,6.9964c54.86599,6.10842 112.51256,4.25165 157.45705,-5.07156c9.20233,-1.90888 11.73987,-4.34417 9.2664,-8.88933c-1.73552,-3.18821 -10.54346,-5.28957 -37.47105,-8.94144c-8.81568,-1.19531 -24.39998,-2.54482 -39.56118,-3.42535c-8.51188,-0.4945 -46.61593,-0.46047 -55.00298,0.04998m-152.6725,14.8393c0,0.46792 0.19885,0.85076 0.44189,0.85076c0.24304,0 0.44189,0.46792 0.44189,1.03898c0,0.81034 -0.19443,1.00283 -0.88378,0.87521c-0.76336,-0.14144 -0.88378,0.06487 -0.88378,1.51328c0,0.92201 -0.19885,1.67705 -0.44189,1.67705c-0.24304,0 -0.44189,0.57426 -0.44189,1.27613c0,0.70187 -0.19885,1.27613 -0.44189,1.27613c-0.24304,0 -0.44189,0.65827 -0.44189,1.4633c0,0.80503 -0.18559,1.57496 -0.41206,1.70895c-0.22647,0.13506 -0.39439,0.85395 -0.37229,1.59836c0.02209,0.74441 -0.19001,1.42608 -0.47172,1.51647c-0.2817,0.09039 -0.51149,0.91456 -0.51149,1.83019c0,0.91669 -0.15356,1.66642 -0.34136,1.66642c-0.1878,0 -0.59434,1.28677 -0.90366,2.85854c-0.31043,1.57177 -0.70371,2.95956 -0.87494,3.08399c-0.17013,0.12442 -0.36345,0.60829 -0.42753,1.07621c-0.12152,0.88904 -0.91471,3.79224 -1.33671,4.89184c-0.13367,0.35094 -0.30932,1.19318 -0.38886,1.8706c-0.08064,0.67741 -0.35903,1.48031 -0.61975,1.78233c-0.26071,0.30308 -0.41538,0.89648 -0.34246,1.31973c0.07181,0.42325 -0.0243,1.00814 -0.21432,1.29953c-0.38776,0.59659 -0.67167,1.69726 -1.04396,4.05385c-0.1403,0.88266 -0.42642,1.70789 -0.63632,1.83231c-0.2099,0.12549 -0.38223,0.87521 -0.38223,1.66642c0,0.7912 -0.19885,1.55688 -0.44189,1.70151c-0.24304,0.14463 -0.44189,0.92201 -0.44189,1.72703c0,0.80503 -0.19885,1.4633 -0.44189,1.4633c-0.24304,0 -0.44189,0.77738 -0.44189,1.72703c0,1.04218 -0.17455,1.62175 -0.44189,1.4633c-0.26292,-0.15633 -0.44189,0.34987 -0.44189,1.25061c0,0.83268 -0.19885,1.51434 -0.44189,1.51434c-0.24304,0 -0.44189,0.76568 -0.44189,1.70151c0,0.93583 -0.19885,1.70151 -0.44189,1.70151c-0.24304,0 -0.44189,0.76568 -0.44189,1.70151c0,0.93583 -0.19885,1.70151 -0.44189,1.70151c-0.24304,0 -0.44189,0.57426 -0.44189,1.27613c0,0.70187 -0.19885,1.27613 -0.44189,1.27613c-0.24304,0 -0.44189,0.66997 -0.44189,1.48882c0,0.81885 -0.19885,1.48882 -0.44189,1.48882c-0.24304,0 -0.44189,0.76568 -0.44189,1.70151c0,0.93583 -0.19885,1.70151 -0.44189,1.70151c-0.24304,0 -0.44189,0.66997 -0.44189,1.48882c0,0.81885 -0.19885,1.48882 -0.44189,1.48882c-0.24304,0 -0.44189,0.65827 -0.44189,1.4633c0,0.80503 -0.19885,1.5824 -0.44189,1.72703c-0.24304,0.14463 -0.44189,0.91031 -0.44189,1.70151c0,0.7912 -0.19885,1.55688 -0.44189,1.70151c-0.24304,0.14463 -0.44189,0.93264 -0.44189,1.75149c0,0.88479 -0.17896,1.38248 -0.44189,1.22615c-0.2574,-0.15314 -0.44189,0.27118 -0.44189,1.01346c0,0.70187 -0.20106,1.39524 -0.44631,1.54199c-0.24635,0.14569 -0.40433,0.80822 -0.3513,1.47074c0.05192,0.66359 -0.16792,1.51115 -0.48939,1.88442c-0.32147,0.37327 -0.48829,1.16234 -0.37119,1.75468c0.12152,0.61042 -0.0232,1.2102 -0.33363,1.3846c-0.30159,0.17015 -0.65179,0.97837 -0.77883,1.79722c-0.79319,5.14388 -0.84511,5.18748 -5.91247,4.96841c-3.1595,-0.13718 -4.23771,-0.04041 -4.62989,0.41474c-0.2817,0.32541 -0.6087,0.49876 -0.72801,0.3839c-1.36765,-1.31548 -2.83361,10.10804 -1.52893,11.90845c0.6794,0.93796 3.70965,2.39913 4.54041,2.18963c0.47613,-0.12017 0.8661,-0.04466 0.8661,0.16696c0,0.8816 27.60036,0.46047 30.15448,-0.45941c2.19066,-0.78908 4.06537,-2.63734 4.10404,-4.0464c0.00552,-0.23396 0.19333,-0.70506 0.41538,-1.04749c0.56672,-0.87309 0.74458,-4.26973 0.22426,-4.26973c-0.23752,0 -0.43084,-0.42325 -0.43084,-0.94008c0,-0.57107 -0.78546,-1.63451 -2.00176,-2.70859l-2.00176,-1.76957l-3.85327,0.14037c-2.11886,0.07657 -3.60471,0.03509 -3.30091,-0.09146c0.3038,-0.12761 0.55236,-0.87415 0.55236,-1.66004c0,-0.78482 0.19885,-1.54625 0.44189,-1.69088c0.24304,-0.14463 0.44189,-0.71889 0.44189,-1.27613c0,-0.55724 0.19885,-1.1315 0.44189,-1.27613c0.24304,-0.14463 0.44189,-0.91031 0.44189,-1.70151c0,-0.7912 0.19885,-1.55688 0.44189,-1.70151c0.24304,-0.14463 0.44189,-0.92201 0.44189,-1.72703c0,-0.80503 0.17676,-1.4633 0.39328,-1.4633c0.21653,0 0.5148,-0.66997 0.66283,-1.48882c0.14803,-0.81885 0.39107,-2.15879 0.5391,-2.97764c0.14803,-0.81885 0.44631,-1.48882 0.66283,-1.48882c0.21653,0 0.39328,-0.75398 0.39328,-1.67599c0,-0.92201 0.19885,-1.79509 0.44189,-1.93972c0.24304,-0.14463 0.44189,-0.92201 0.44189,-1.72703c0,-0.80503 0.19885,-1.4633 0.44189,-1.4633c0.24304,0 0.44189,-0.56256 0.44189,-1.25061c0,-0.68805 0.19885,-1.36972 0.44189,-1.51434c0.24304,-0.14463 0.44189,-0.8263 0.44189,-1.51434c0,-0.68805 0.19333,-1.25061 0.42863,-1.25061c0.23531,0 0.40101,-0.68698 0.36898,-1.52711c-0.03535,-0.90393 0.19443,-1.6845 0.56562,-1.9142c0.53689,-0.33179 0.53358,-0.44452 -0.02209,-0.78801c-0.72249,-0.44665 -0.7711,-3.28179 -0.08727,-5.10028c0.38444,-1.02197 0.65179,-1.9461 1.88576,-6.51572c0.26845,-0.99432 0.66615,-2.24706 0.88378,-2.78516c0.21763,-0.53704 0.39549,-1.43565 0.39549,-1.99502c0,-0.56043 0.17676,-1.12406 0.39328,-1.25274c0.21542,-0.12868 0.5137,-0.90499 0.66283,-1.72597c0.14803,-0.82098 0.39107,-2.16517 0.5391,-2.98615c0.14914,-0.82098 0.44741,-1.59729 0.66283,-1.72597c0.21653,-0.12868 0.39328,-0.78589 0.39328,-1.46011c0,-0.67422 0.19885,-1.34419 0.44189,-1.48882c0.24304,-0.14463 0.44189,-0.8146 0.44189,-1.48882c0,-0.67422 0.19885,-1.34419 0.44189,-1.48882c0.24304,-0.14463 0.44189,-0.91031 0.44189,-1.70151c0,-0.7912 0.17676,-1.54412 0.39328,-1.6728c0.21542,-0.12868 0.5137,-0.90499 0.66283,-1.72597c0.14803,-0.82098 0.39107,-2.16517 0.5391,-2.98615c0.14914,-0.82098 0.44741,-1.59729 0.66283,-1.72597c0.21653,-0.12868 0.39328,-0.78589 0.39328,-1.46011c0,-0.67422 0.19885,-1.34419 0.44189,-1.48882c0.24304,-0.14463 0.44189,-0.83161 0.44189,-1.52711c0,-1.98864 2.56958,-1.71427 4.41889,0.47111c0.20106,0.23821 3.16171,2.10456 6.3411,3.99749c3.59366,2.13965 10.89255,5.60116 10.89255,5.16515c0,-0.09784 -2.23706,-1.26018 -4.97125,-2.58417c-4.36586,-2.11306 -8.86539,-4.82485 -15.2076,-9.1637c-2.28898,-1.56433 -5.53797,-5.01201 -7.48338,-7.93967c-1.41736,-2.13221 -2.12327,-3.91454 -3.28986,-8.3055c-0.54352,-2.04607 -1.30578,-2.7288 -1.30578,-1.16979m360.1193,1.58985c-1.36765,6.3679 -5.13143,11.82443 -11.02733,15.98888c-1.33671,0.94434 -2.52981,1.827 -2.65133,1.96312c-0.80645,0.89861 -7.95731,5.04391 -12.06466,6.99321c-1.89681,0.89967 -3.35946,1.72278 -3.24899,1.82806c0.53027,0.51045 11.47806,-5.51396 16.11568,-8.86806c3.20811,-2.31937 3.71407,-1.77701 5.23196,5.60222c0.12041,0.58489 0.38776,1.44628 0.59434,1.9142c0.20658,0.46792 0.47613,1.32931 0.59876,1.9142c0.12262,0.58489 0.44962,1.82912 0.72691,2.76495c0.27729,0.93583 0.60428,2.18006 0.72691,2.76495c0.12262,0.58489 0.39218,1.44628 0.59876,1.9142c0.39549,0.89755 0.78988,2.48952 1.18537,4.78975c0.13036,0.76249 0.41538,1.49095 0.6308,1.61963c0.21653,0.12868 0.39328,0.78589 0.39328,1.46011c0,0.67422 0.17676,1.33143 0.39328,1.46011c0.21542,0.12868 0.50044,0.85714 0.6308,1.61963c0.39549,2.30023 0.78988,3.89221 1.18537,4.78975c0.20658,0.46792 0.47613,1.32931 0.59876,1.9142c0.12262,0.58489 0.44852,1.82912 0.7247,2.76495c1.19752,4.06874 1.34224,5.41506 0.70923,6.63695c-0.41427,0.79865 -0.46177,1.23998 -0.14361,1.34207c0.26182,0.08401 0.53358,0.7157 0.60649,1.40375c0.23641,2.24387 0.69156,4.02195 1.09036,4.26016c0.21542,0.12761 0.39107,0.89117 0.39107,1.69619c0,0.80503 0.19885,1.4633 0.44189,1.4633c0.24304,0 0.44189,0.76568 0.44189,1.70151c0,0.93583 0.19885,1.70151 0.44189,1.70151c0.24304,0 0.44189,0.46685 0.44189,1.03792c0,0.57107 0.19885,1.15703 0.44189,1.30166c0.24304,0.14463 0.44189,1.01772 0.44189,1.93972c0,0.92201 0.19885,1.67599 0.44189,1.67599c0.24304,0 0.44189,0.65827 0.44189,1.4633c0,0.80503 0.19885,1.5824 0.44189,1.72703c0.24304,0.14463 0.44189,1.01772 0.44189,1.93972c0,0.92201 0.19885,1.67599 0.44189,1.67599c0.24304,0 0.45625,0.71782 0.47282,1.59517c0.02541,1.27932 0.10605,1.42714 0.41096,0.74441c0.28612,-0.64019 0.38776,-0.35094 0.41096,1.16979c0.01657,1.1113 0.22978,2.02054 0.47282,2.02054c0.24304,0 0.44189,0.74973 0.44189,1.66642c0,0.91669 0.24856,1.77808 0.55236,1.9142c0.3038,0.13718 -0.85947,0.14463 -2.58615,0.01595c-4.41889,-0.32754 -8.57043,1.99927 -8.57153,4.80464c0,0.5264 -0.21873,0.9571 -0.48608,0.9571c-0.31264,0 -0.40322,0.64232 -0.25409,1.80785c0.30269,2.37148 0.75011,3.72205 1.23397,3.72205c0.21432,0 0.38997,0.25416 0.38997,0.56363c0,0.90924 1.83494,2.30023 3.977,3.01486c2.12769,0.70932 29.60543,1.04005 29.60764,0.35625c0.0011,-0.17547 0.68382,-0.33286 1.51678,-0.34987c1.11908,-0.02233 1.87029,-0.3956 2.87117,-1.42714c0.74569,-0.76887 1.35549,-1.23891 1.35549,-1.0443c0,0.19355 0.27618,-0.02765 0.61423,-0.49237c1.31462,-1.80679 0.9136,-7.88756 -0.61091,-9.2711c-0.73133,-0.66359 -1.32898,-1.34207 -1.32898,-1.51009c0,-0.79227 -3.1109,-1.31229 -6.30023,-1.05281c-3.74832,0.30414 -4.62657,-0.09677 -5.00991,-2.28959c-0.11268,-0.64551 -0.3281,-1.46011 -0.47834,-1.81105c-0.15024,-0.35094 -0.22978,-1.06876 -0.17676,-1.59517c0.05413,-0.5264 -0.07512,-0.9571 -0.28612,-0.9571c-0.2099,0 -0.43305,-0.71251 -0.49381,-1.5824c-0.06076,-0.8699 -0.28833,-1.68769 -0.50486,-1.81636c-0.42421,-0.25204 -0.79982,-1.68875 -1.19752,-4.57706c-0.13699,-0.99432 -0.42311,-1.80785 -0.63411,-1.80785c-0.211,0 -0.38444,-0.57426 -0.38444,-1.27613c0,-0.70187 -0.19885,-1.27613 -0.44189,-1.27613c-0.24304,0 -0.44189,-0.57426 -0.44189,-1.27613c0,-0.70187 -0.19885,-1.27613 -0.44189,-1.27613c-0.24304,0 -0.41869,-0.14356 -0.38997,-0.31903c0.21873,-1.33143 -0.12704,-3.94006 -0.49381,-3.72205c-0.26624,0.15845 -0.44189,-0.41262 -0.44189,-1.43884c0,-0.93583 -0.19885,-1.81955 -0.44189,-1.96418c-0.24304,-0.14463 -0.44189,-0.71889 -0.44189,-1.27613c0,-0.55724 -0.19885,-1.1315 -0.44189,-1.27613c-0.24304,-0.14463 -0.44189,-0.91031 -0.44189,-1.70151c0,-0.7912 -0.19885,-1.55688 -0.44189,-1.70151c-0.24304,-0.14463 -0.44189,-0.8146 -0.44189,-1.48882c0,-0.67422 -0.19885,-1.34419 -0.44189,-1.48882c-0.24304,-0.14463 -0.44189,-0.83693 -0.44189,-1.5388c0,-0.74228 -0.18449,-1.1666 -0.44189,-1.01346c-0.26955,0.16058 -0.44189,-0.49237 -0.44189,-1.67599c0,-1.06663 -0.19885,-1.93972 -0.44189,-1.93972c-0.24304,0 -0.44189,-0.65827 -0.44189,-1.4633c0,-0.80503 -0.17565,-1.56858 -0.39107,-1.69619c-0.37008,-0.22013 -0.58329,-1.02091 -1.20304,-4.4973c-0.14582,-0.81885 -0.40543,-1.68024 -0.57777,-1.9142c-0.17234,-0.23396 -0.28723,-0.71251 -0.2563,-1.06344c0.03093,-0.35094 -0.14582,-1.02091 -0.39218,-1.48882c-0.24746,-0.46792 -0.39549,-1.28145 -0.32921,-1.80785c0.06518,-0.5264 -0.06076,-0.9571 -0.2806,-0.9571c-0.38997,0 -0.54352,-0.62531 -0.57335,-2.32682c-0.00773,-0.46047 -0.18449,-0.93902 -0.39218,-1.06344c-0.20769,-0.12336 -0.48718,-0.89223 -0.61975,-1.70683c-0.13367,-0.81566 -0.41648,-1.53774 -0.62859,-1.6058c-0.21211,-0.06806 -0.30711,-0.64551 -0.211,-1.28358c0.09722,-0.637 -0.12152,-1.70895 -0.48497,-2.38211c-0.36345,-0.6721 -0.55567,-1.48457 -0.42863,-1.8036c0.12815,-0.3201 -0.05082,-0.68698 -0.3977,-0.8146c-0.41538,-0.15314 -0.56451,-0.6604 -0.43747,-1.49201c0.11489,-0.75292 -0.00663,-1.26018 -0.30048,-1.26018c-0.2806,0 -0.4916,-0.74228 -0.4916,-1.72703c0,-1.04218 -0.17455,-1.62175 -0.44189,-1.4633c-0.25961,0.1542 -0.44852,-0.31797 -0.45735,-1.14427c-0.00884,-0.77419 -0.28612,-1.87698 -0.61533,-2.45018c-0.32921,-0.5732 -0.50817,-1.27188 -0.39659,-1.55156c0.11268,-0.28075 -0.00884,-0.637 -0.26845,-0.7912c-0.25961,-0.1542 -0.47172,-0.94008 -0.47172,-1.74511c0,-0.80503 -0.19885,-1.4633 -0.44189,-1.4633c-0.24304,0 -0.44189,-0.76568 -0.44189,-1.70151c0,-0.93583 -0.19885,-1.70151 -0.44189,-1.70151c-0.24304,0 -0.44189,-0.57426 -0.44189,-1.27613c0,-0.70187 -0.16571,-1.27613 -0.36787,-1.27613c-0.3745,0 -0.53027,-0.72208 -0.52695,-2.44592c0.0011,-0.6721 -0.26071,-0.9571 -0.87715,-0.9571c-0.97989,0 -1.24502,-1.60474 -0.3988,-2.41934c0.31926,-0.30734 0.33031,-0.55193 0.03204,-0.72846c-0.26403,-0.15739 -0.66283,0.73803 -0.97436,2.18538m-325.69839,28.65131c1.06827,0.45622 2.0349,0.74122 2.14758,0.63275c0.24525,-0.23608 -2.88111,-1.53561 -3.59145,-1.49308c-0.27397,0.01702 0.37561,0.40411 1.44387,0.86033m3.58151,1.42076c1.68801,0.87947 15.55558,5.38847 16.06707,5.22364c0.24635,-0.07869 -2.02385,-0.93051 -5.04747,-1.89293c-3.02252,-0.96242 -6.88683,-2.24174 -8.587,-2.84471c-3.43237,-1.21658 -4.08526,-1.34632 -2.4326,-0.48599m283.91341,0.27224c-0.97215,0.44984 -1.27043,0.69868 -0.66283,0.55299c1.25165,-0.29989 3.54837,-1.408 2.87228,-1.38567c-0.24304,0.00744 -1.23729,0.38284 -2.20944,0.83268m-10.38438,3.38388c-4.25318,1.37822 -7.42815,2.51398 -7.05475,2.52355c0.72801,0.01808 14.98002,-4.49305 15.36557,-4.86419c0.47172,-0.45409 -0.749,-0.10953 -8.31082,2.34064m-256.7008,1.85996c0.67278,0.62424 21.52992,5.58414 21.91657,5.213c0.10384,-0.10103 -1.36212,-0.50301 -3.25893,-0.89436c-1.89681,-0.39028 -6.74543,-1.56114 -10.77545,-2.60012c-7.06359,-1.82062 -8.27878,-2.08541 -7.88219,-1.71853m242.11848,2.18219c-3.03798,0.77844 -7.07574,1.7366 -8.97255,2.13114c-1.89681,0.39454 -3.36388,0.79758 -3.26003,0.89755c0.3745,0.36157 18.12406,-3.75821 18.82445,-4.36969c0.41096,-0.35944 -1.34113,-0.00213 -6.59187,1.341m-219.58216,3.3339c0.10163,0.08614 0.97989,0.27331 1.95204,0.41581c1.23176,0.17972 1.50021,0.14144 0.88378,-0.12655c-0.84843,-0.37008 -3.21474,-0.61148 -2.83582,-0.28926m203.45323,0.28607c-0.72912,0.19461 -2.22049,0.54767 -3.31416,0.78269l-1.9885,0.42857l2.28346,-0.22332c2.67453,-0.26267 7.09673,-1.35695 5.44959,-1.34845c-0.6076,0.00213 -1.70127,0.16483 -2.43039,0.36051m-199.47623,0.56682c0.10163,0.0872 1.17874,0.27437 2.39393,0.41687c1.48696,0.1744 1.92111,0.13187 1.32567,-0.12868c-0.84069,-0.36795 -4.10625,-0.62105 -3.7196,-0.28819m5.92904,1.11768c1.98518,0.48599 3.82676,0.48599 2.65133,0c-0.48608,-0.20099 -1.57975,-0.35625 -2.43039,-0.34562l-1.54661,0.02127l1.32567,0.32435m184.70942,0l-0.88378,0.36582l0.88378,-0.02021c0.48608,-0.0117 1.48033,-0.16696 2.20944,-0.34562l1.32567,-0.32435l-1.32567,-0.02127c-0.72912,-0.01063 -1.72337,0.14463 -2.20944,0.34562m-179.84865,0.85076c0.72912,0.17866 1.72337,0.33392 2.20944,0.34562l0.88378,0.02021l-0.88378,-0.36582c-0.48608,-0.20099 -1.48033,-0.35625 -2.20944,-0.34562l-1.32567,0.02127l1.32567,0.32435m175.20882,0.02233c-0.47503,0.31159 -0.16129,0.35413 1.10472,0.14995c2.19177,-0.35306 2.54528,-0.59978 0.84732,-0.59127c-0.70923,0.00319 -1.58748,0.20205 -1.95204,0.44133m-169.90616,0.85288c0.97215,0.19355 2.26468,0.34349 2.87228,0.33392l1.10472,-0.01808l-1.10472,-0.3403c-0.6076,-0.18717 -1.90012,-0.33711 -2.87228,-0.33392l-1.76755,0.00638l1.76755,0.352m163.71972,-0.02446l-1.10472,0.3403l1.10472,0.01063c0.6076,0.00638 1.99955,-0.14144 3.09322,-0.32967l1.9885,-0.3403l-1.9885,-0.01063c-1.09367,-0.00638 -2.48562,0.1425 -3.09322,0.32967m-157.53328,0.87521c0.97215,0.19355 2.26468,0.34349 2.87228,0.33392l1.10472,-0.01808l-1.10472,-0.3403c-0.6076,-0.18717 -1.90012,-0.33711 -2.87228,-0.33392l-1.76755,0.00638l1.76755,0.352m151.34684,-0.02446l-1.10472,0.3403l1.10472,0.01808c0.6076,0.00957 1.90012,-0.14037 2.87228,-0.33392l1.76755,-0.352l-1.76755,-0.00638c-0.97215,-0.00319 -2.26468,0.14676 -2.87228,0.33392m-145.1604,0.87521c0.97215,0.19355 2.3641,0.3403 3.09322,0.32648l1.32567,-0.02659l-1.32567,-0.32435c-0.72912,-0.17866 -2.12107,-0.32541 -3.09322,-0.32648l-1.76755,-0.00106l1.76755,0.352m138.97396,-0.02446l-1.10472,0.3403l1.10472,0.01808c0.6076,0.00957 1.90012,-0.14037 2.87228,-0.33392l1.76755,-0.352l-1.76755,-0.00638c-0.97215,-0.00319 -2.26468,0.14676 -2.87228,0.33392m-131.90374,0.8699c1.21519,0.18291 2.90542,0.32648 3.75605,0.3201l1.54661,-0.0117l-1.76755,-0.352c-0.97215,-0.19355 -2.66238,-0.33711 -3.75605,-0.3201l-1.9885,0.03297l2.20944,0.33073m124.17069,-0.01914l-1.32567,0.32435l1.32567,0.01382c0.72912,0.00638 2.31991,-0.13612 3.53511,-0.31903l2.20944,-0.33073l-2.20944,-0.00638c-1.21519,-0.00425 -2.80599,0.13931 -3.53511,0.31797m-116.21669,0.87521c0.97215,0.19355 2.56295,0.33924 3.53511,0.32329l1.76755,-0.02871l-1.9885,-0.3403c-1.09367,-0.18823 -2.68447,-0.33286 -3.53511,-0.32329l-1.54661,0.01702l1.76755,0.352m108.2627,-0.02446l-1.76755,0.30414l1.76755,0.03616c0.97215,0.02021 2.56295,-0.1223 3.53511,-0.31584l1.76755,-0.352l-1.76755,0.0117c-0.97215,0.00638 -2.56295,0.14782 -3.53511,0.31584m-98.09926,0.86671c1.45823,0.1744 3.74501,0.31053 5.08172,0.30308l2.43039,-0.01382l-2.43039,-0.32329c-1.33671,-0.1776 -3.62349,-0.31372 -5.08172,-0.30308l-2.65133,0.02127l2.65133,0.31584m86.16827,-0.01595l-2.20944,0.29138l2.43039,0.02127c1.33671,0.01063 3.62349,-0.1223 5.08172,-0.2967l2.65133,-0.31584l-2.87228,0.00425c-1.57975,0.00213 -3.86652,0.13506 -5.08172,0.29564m-72.91161,0.87309c2.18735,0.17228 5.46837,0.30202 7.29116,0.28926l3.31416,-0.0234l-3.31416,-0.30095c-1.82279,-0.1659 -5.10381,-0.29564 -7.29116,-0.28926l-3.977,0.0117l3.977,0.31265m57.66646,-0.02233l-2.87228,0.27862l3.09322,0.02871c1.70127,0.01489 4.88287,-0.11273 7.07022,-0.285l3.977,-0.31265l-4.19794,0.00532c-2.30887,0.00425 -5.49047,0.13187 -7.07022,0.285m-38.25098,0.75824c2.96176,0.06806 5.52913,0.32435 5.85502,0.58383c0.92797,0.74228 0.84732,48.78018 -0.08285,49.12367c-0.57556,0.21269 -0.66283,2.71178 -0.66283,18.91654l0,18.67089l-2.84576,0c-1.56539,0 -2.96949,0.19142 -3.11973,0.42538c-0.15024,0.23396 -0.91802,0.42538 -1.70679,0.42538c-1.48475,0 -4.05322,1.85039 -5.03201,3.62315c-0.60318,1.09428 -0.59544,6.93578 0.01105,7.29629c0.28281,0.16909 0.32147,0.06062 0.09942,-0.285c-0.22536,-0.352 -0.18449,-0.45409 0.11379,-0.2765c0.2585,0.1542 0.41869,0.61361 0.35462,1.02303c-0.12262,0.78589 1.8018,2.65542 2.73529,2.65648c0.3038,0 0.55236,0.19142 0.55236,0.42538c0,0.2765 5.89148,0.42538 16.79177,0.42538c10.90029,0 16.79177,-0.14888 16.79177,-0.42538c0,-0.23396 0.32147,-0.42538 0.71365,-0.42538c3.13078,0 5.27504,-8.75959 2.73419,-11.16829c-2.0592,-1.95142 -3.59808,-2.86917 -4.80664,-2.86917c-0.68272,0 -1.36323,-0.19142 -1.51347,-0.42538c-0.15024,-0.23396 -1.45492,-0.42538 -2.89879,-0.42538l-2.62482,0l0,-18.61452c0,-18.15299 -0.02209,-18.62729 -0.88378,-19.14518c-1.12571,-0.67741 -1.41957,-48.05916 -0.3038,-48.95139c0.32589,-0.25948 2.89327,-0.51577 5.85502,-0.58383c2.901,-0.06593 -2.97722,-0.12017 -13.06333,-0.12017c-10.08611,0 -15.96433,0.05424 -13.06333,0.12017" id="svg_256"/>
    <path fill-rule="evenodd" fill="#4c4c64" d="m367.26306,660.72953c-0.50817,1.53774 -1.19973,3.93155 -2.25142,7.79292c-0.63742,2.33958 -1.45823,5.30659 -1.825,6.59335c-0.36566,1.28677 -1.04728,3.72737 -1.51347,5.42356c-0.4673,1.69619 -1.23176,4.47178 -1.69906,6.16798c-0.46619,1.69619 -1.16217,4.18465 -1.54661,5.52991c-1.16217,4.07831 -1.93105,6.78903 -2.65796,9.38489c-0.96995,3.45619 0.97326,7.52387 3.59366,7.52387c0.31706,0 0.57666,0.19142 0.57666,0.42538c0,0.23396 0.31043,0.42538 0.68935,0.42538c0.37892,0 0.56562,0.19142 0.41538,0.42538c-0.15024,0.23396 0.08838,0.42538 0.53027,0.42538c0.44189,0 1.05169,0.38284 1.35549,0.85076c0.3038,0.46792 0.84843,0.85076 1.21077,0.85076c0.36345,0 0.65952,0.17228 0.65952,0.3839c0,0.21056 0.59655,0.58383 1.32567,0.82842c0.72912,0.24459 1.32567,0.65721 1.32567,0.91775c0,0.25948 0.18228,0.3637 0.40654,0.23077c0.22315,-0.13293 0.72028,0.06062 1.10472,0.43069c0.38334,0.37008 0.69818,0.56256 0.69818,0.4275c0,-0.3201 4.59454,2.00034 4.78676,2.41721c0.08175,0.17547 0.52916,0.31903 0.99425,0.31903c0.46619,0 0.84732,0.22332 0.84732,0.49663c0,0.27224 0.12152,0.37965 0.26955,0.23608c0.14803,-0.1425 0.98983,0.11273 1.8714,0.56788c0.88157,0.45409 2.05257,0.8263 2.60272,0.8263c0.55015,0 1.00088,0.19142 1.00088,0.42538c0,0.23396 0.2585,0.42538 0.57446,0.42538c0.81307,0 2.95292,1.0007 2.95734,1.38248c0.00221,0.17547 0.59986,0.31903 1.32898,0.31903c0.72912,0 1.32567,0.19142 1.32567,0.42538c0,0.23396 0.59655,0.42538 1.32567,0.42538c0.72912,0 1.32567,0.19142 1.32567,0.42538c0,0.23396 0.59655,0.42538 1.32567,0.42538c0.72912,0 1.32567,0.19142 1.32567,0.42538c0,0.23396 0.3977,0.42538 0.88378,0.42538c0.48608,0 0.88378,0.19142 0.88378,0.42538c0,0.23396 0.211,0.42538 0.4684,0.42538c0.2574,0 0.327,-0.23927 0.15577,-0.53172c-0.24967,-0.42538 -0.19333,-0.42538 0.28281,0c0.3281,0.29245 1.0528,0.53172 1.61179,0.53172c0.55899,0 1.01634,0.19142 1.01634,0.42538c0,0.23396 0.6087,0.42538 1.35218,0.42538c0.78767,0 1.23729,0.1776 1.07821,0.42538c-0.15798,0.24566 0.26513,0.42538 1.0053,0.42538c0.7026,0 1.41515,0.13293 1.58417,0.29457c0.16792,0.16164 0.74348,0.35838 1.27927,0.43708c0.53469,0.07869 1.16659,0.32967 1.40189,0.55618c0.23641,0.22758 1.08594,0.41368 1.88797,0.41368c0.80203,0 1.45823,0.1542 1.45823,0.34243c0,0.18823 0.84511,0.38922 1.87803,0.44665c1.03291,0.05743 1.94431,0.28607 2.02495,0.50833c0.08175,0.22226 0.81528,0.40411 1.63167,0.40411c0.81528,0 1.60626,0.19142 1.75651,0.42538c0.15024,0.23396 1.14449,0.42538 2.20944,0.42538c1.06495,0 2.0592,0.19142 2.20944,0.42538c0.15024,0.23396 0.85837,0.42538 1.57312,0.42538c0.71475,0 1.29915,0.15101 1.29915,0.33498c0,0.18398 0.82744,0.36689 1.83936,0.40517c1.01192,0.03935 1.95867,0.25842 2.1056,0.48599c0.14693,0.22864 1.38974,0.47536 2.7618,0.54767c1.37206,0.07231 2.39062,0.29351 2.26357,0.49131c-0.12704,0.19674 0.53689,0.32435 1.47591,0.28181c2.7143,-0.1223 3.76268,-0.02021 3.52738,0.34562c-0.11931,0.18717 0.41538,0.38497 1.18978,0.4392c1.51678,0.10741 3.17497,0.37752 3.17497,0.5179c0,0.09784 0.53027,0.1659 4.63983,0.59659c1.57975,0.16483 3.61686,0.45622 4.52604,0.64657c0.95669,0.19993 1.55103,0.18504 1.40962,-0.03403c-0.13367,-0.20844 -0.03314,-0.37965 0.22426,-0.37965c0.2574,0 0.4684,0.19142 0.4684,0.42538c0,0.23715 1.18758,0.42538 2.67784,0.42538c1.47259,0 2.57069,0.1659 2.44033,0.36795c-0.12925,0.20205 1.49248,0.40411 3.60471,0.44877c2.11223,0.04466 4.04549,0.24566 4.29737,0.44558c0.47613,0.37859 4.05654,0.72952 11.40183,1.11874c2.37405,0.12549 4.21341,0.38816 4.08857,0.58277c-0.12483,0.19461 2.20834,0.37965 5.18446,0.41049c3.03798,0.03084 5.4761,0.23608 5.55896,0.46792c0.08727,0.24353 3.19927,0.41155 7.62258,0.41155c5.01875,0 7.47565,0.14995 7.47565,0.45515c0,0.27862 0.98762,0.43069 2.54086,0.39135c1.39747,-0.03616 5.76996,-0.04998 9.71713,-0.03084l7.17627,0.03509l0.11931,18.82296c0.06628,10.35263 0.16792,-0.74973 0.22536,-24.6719l0.10605,-43.49486l-3.64558,-0.01489c-16.07591,-0.06593 -45.60621,-2.25556 -62.85865,-4.66001c-1.45823,-0.20312 -4.14271,-0.5732 -5.9655,-0.82311c-1.82279,-0.24885 -4.40784,-0.65614 -5.74455,-0.90499c-1.33671,-0.24885 -3.32521,-0.54767 -4.41889,-0.66253c-1.09367,-0.11592 -2.3862,-0.38071 -2.87228,-0.58915c-0.48608,-0.20844 -1.72889,-0.48599 -2.7618,-0.61573c-4.67518,-0.59021 -5.66059,-0.77419 -6.05387,-1.1315c-0.23089,-0.2095 -1.16327,-0.38178 -2.07246,-0.38178c-0.90919,0 -1.77639,-0.19142 -1.92663,-0.42538c-0.15024,-0.23396 -1.04507,-0.42538 -1.9885,-0.42538c-0.94343,0 -1.825,-0.17121 -1.95978,-0.38071c-0.13367,-0.2095 -0.99094,-0.48918 -1.90344,-0.62105c-3.87757,-0.56363 -4.99666,-0.8146 -5.22533,-1.17192c-0.13367,-0.20844 -0.66504,-0.37859 -1.17984,-0.37859c-1.07379,0 -0.6562,0.11804 -12.93076,-3.64974c-5.10381,-1.56752 -10.17448,-3.22436 -11.26816,-3.68271c-1.09367,-0.45941 -2.3862,-0.98794 -2.87228,-1.17617c-4.38353,-1.693 -11.93652,-5.27787 -12.59382,-5.97656c-0.12152,-0.12868 -0.93901,-0.55618 -1.81727,-0.94859c-0.87825,-0.39347 -1.84709,-1.00602 -2.1531,-1.36121c-0.30601,-0.35519 -0.76889,-0.64551 -1.02739,-0.64551c-0.2585,0 -1.62725,-0.87521 -3.0413,-1.94398c-1.73331,-1.31016 -2.63034,-1.76106 -2.75518,-1.38248m334.9195,1.64089c-1.21519,0.92094 -2.45801,1.67599 -2.7618,1.67918c-0.3038,0.00319 -0.55236,0.16802 -0.55236,0.36476c0,0.1978 -0.94454,0.81673 -2.09897,1.37716c-1.15443,0.55937 -2.1984,1.11662 -2.31991,1.23679c-0.38113,0.37646 -2.7839,1.66216 -5.08172,2.71923c-5.36011,2.46506 -8.14622,3.66675 -8.50635,3.66675c-0.21211,0 -1.20967,0.38284 -2.21607,0.85076c-1.0053,0.46792 -2.03932,0.85076 -2.29782,0.85076c-0.2585,0 -0.81418,0.1861 -1.23618,0.41368c-1.80732,0.97411 -15.50808,5.05455 -19.54805,5.82129c-0.6076,0.11592 -1.50242,0.36051 -1.9885,0.54448c-2.21276,0.83693 -4.14933,1.30272 -5.41866,1.30272c-0.75784,0 -1.48806,0.17121 -1.62284,0.38071c-0.22978,0.35732 -1.02408,0.51896 -5.6628,1.15171c-1.03291,0.14144 -2.06693,0.42857 -2.29782,0.63807c-0.23089,0.2095 -1.13565,0.38178 -2.01059,0.38178c-0.87494,0 -1.77971,0.17334 -2.01059,0.3839c-0.3988,0.36582 -1.57312,0.56469 -6.60623,1.11874c-1.21519,0.13399 -2.60714,0.41368 -3.09322,0.62211c-0.48608,0.20844 -1.67918,0.47217 -2.65133,0.58596c-1.66702,0.19567 -5.44517,0.70506 -11.4891,1.54731c-6.0837,0.84756 -16.2858,1.99396 -22.75726,2.55652c-11.44823,0.99432 -31.42712,2.04394 -39.88044,2.09498l-3.86652,0.0234l0,24.6836l0,24.68466l9.06534,-0.04254c5.46174,-0.02552 8.96481,-0.19886 8.81236,-0.43708c-0.19554,-0.30308 11.76418,-0.67422 16.47471,-0.51045c0.30048,0.01063 0.43857,-0.15101 0.3049,-0.35838c-0.13699,-0.21269 2.46795,-0.37752 5.96991,-0.37752c3.84774,0 6.21295,-0.16164 6.21295,-0.42538c0,-0.25204 1.60847,-0.42538 3.94054,-0.42538c2.16636,0 4.00572,-0.18398 4.08747,-0.40836c0.08064,-0.22439 1.89128,-0.44027 4.02229,-0.47961c2.13211,-0.03935 3.98252,-0.23821 4.11398,-0.44239c0.13036,-0.20418 1.28037,-0.37114 2.55412,-0.37114c1.27374,0 2.55412,-0.2297 2.84576,-0.51045c0.41206,-0.39666 0.53137,-0.37327 0.53689,0.10634c0.00442,0.40943 0.116,0.45728 0.33142,0.14356c0.17896,-0.25948 1.81616,-0.5934 3.63895,-0.74122c4.7039,-0.37965 7.6281,-0.72952 8.39588,-1.00283c0.36456,-0.1308 1.35881,-0.23396 2.20944,-0.2297c0.85064,0.00319 1.64714,-0.14569 1.76976,-0.33073c0.12262,-0.1861 1.31572,-0.38603 2.65133,-0.44346c1.33561,-0.05849 2.67895,-0.29138 2.98496,-0.5179c0.30601,-0.22758 1.55876,-0.39135 2.78279,-0.36476c1.35881,0.02978 2.12217,-0.11485 1.95867,-0.37008c-0.16129,-0.24991 0.538,-0.41793 1.74546,-0.41793c1.10804,0 2.01501,-0.19142 2.01501,-0.42538c0,-0.23396 1.04396,-0.42857 2.31991,-0.43176c1.6604,-0.00532 2.13211,-0.12336 1.65708,-0.419c-0.47061,-0.29245 0.06518,-0.41474 1.85151,-0.419c1.38311,-0.00319 2.63807,-0.1978 2.78832,-0.43176c0.15024,-0.23396 0.94564,-0.42538 1.76755,-0.42538c0.82191,0 1.61731,-0.19142 1.76755,-0.42538c0.15024,-0.23396 0.95779,-0.42538 1.79407,-0.42538c0.83627,0 1.5201,-0.19142 1.5201,-0.42538c0,-0.23396 0.7954,-0.42538 1.76755,-0.42538c0.97215,0 1.76755,-0.19142 1.76755,-0.42538c0,-0.23396 0.5844,-0.42538 1.29915,-0.42538c0.71475,0 1.42288,-0.19142 1.57312,-0.42538c0.15024,-0.23396 0.84622,-0.42538 1.54661,-0.42538c0.70039,0 1.39637,-0.19142 1.54661,-0.42538c0.15024,-0.23396 0.85837,-0.42538 1.57312,-0.42538c0.71475,0 1.29915,-0.19142 1.29915,-0.42538c0,-0.23396 0.59655,-0.42538 1.32567,-0.42538c0.72912,0 1.32567,-0.19142 1.32567,-0.42538c0,-0.23396 0.5844,-0.42538 1.29915,-0.42538c0.71475,0 1.42288,-0.19142 1.57312,-0.42538c0.15024,-0.23396 0.85837,-0.42538 1.57312,-0.42538c0.71475,0 1.29915,-0.19142 1.29915,-0.42538c0,-0.23396 0.3977,-0.42538 0.88378,-0.42538c0.48608,0 0.88378,-0.19142 0.88378,-0.42538c0,-0.23396 0.48497,-0.42538 1.07821,-0.42538c0.59324,0 1.20194,-0.19142 1.35218,-0.42538c0.15024,-0.23396 0.74679,-0.42538 1.32567,-0.42538c0.57887,0 1.17542,-0.19142 1.32567,-0.42538c0.15024,-0.23396 0.65952,-0.42538 1.13123,-0.42538c0.47172,0 0.85726,-0.19142 0.85726,-0.42538c0,-0.23396 0.3977,-0.42538 0.88378,-0.42538c0.48608,0 0.88709,-0.23927 0.89041,-0.53172c0.00442,-0.35413 0.15024,-0.31903 0.43526,0.10634c0.25298,0.37752 0.43084,0.43282 0.43526,0.13506c0.00552,-0.41049 1.09699,-0.99857 2.21607,-1.19531c0.7965,-0.14037 4.35813,-1.90356 4.59675,-2.27577c0.16129,-0.25097 0.59434,-0.34349 0.96332,-0.20737c0.37892,0.14037 1.17432,-0.19248 1.825,-0.76249c0.63411,-0.55618 0.98983,-0.72421 0.78988,-0.37327c-0.22757,0.39985 0.03425,0.32116 0.7015,-0.21269c1.33671,-1.06663 2.89547,-1.9142 3.52185,-1.9142c0.65841,0 1.76314,-1.11343 1.4262,-1.43778c-0.22978,-0.22226 0.50044,-0.3403 1.45381,-0.23608c0.1403,0.01595 0.61091,-0.36689 1.04617,-0.85076c0.43526,-0.4828 0.93791,-0.8784 1.11466,-0.8784c0.17786,0 0.88046,-0.57426 1.56208,-1.27613c0.68161,-0.70187 1.47701,-1.27613 1.76755,-1.27613c0.29054,0 1.1235,-0.61254 1.8493,-1.36014c1.56981,-1.61856 1.52341,-2.5629 -0.46398,-9.2743c-0.43084,-1.45798 -1.42067,-4.99925 -3.11863,-11.16616c-0.46619,-1.69619 -1.14781,-4.1368 -1.51347,-5.42356c-0.36677,-1.28677 -1.1942,-4.25378 -1.83936,-6.59335c-0.64516,-2.33958 -1.75319,-6.31473 -2.46242,-8.83403c-0.70923,-2.51824 -1.28921,-4.67171 -1.28921,-4.7855c0,-0.59234 -1.34666,0.02233 -3.31416,1.51222" id="svg_255"/>
    <path fill-rule="evenodd" fill="#bbb3b3" d="m507.53065,589.18953c0,0.26692 -2.72535,0.42538 -7.29116,0.42538c-4.56581,0 -7.29116,0.15845 -7.29116,0.42538c0,0.26161 -2.20944,0.42538 -5.74455,0.42538c-3.53511,0 -5.74455,0.16377 -5.74455,0.42538c0,0.24991 -1.54661,0.42538 -3.75605,0.42538c-2.20944,0 -3.75605,0.17547 -3.75605,0.42538c0,0.25204 -1.62063,0.42538 -3.977,0.42538c-2.35637,0 -3.977,0.17334 -3.977,0.42538c0,0.24353 -1.32567,0.42538 -3.09322,0.42538c-1.76755,0 -3.09322,0.18185 -3.09322,0.42538c0,0.24034 -1.25165,0.42538 -2.87228,0.42538c-1.62063,0 -2.87228,0.18504 -2.87228,0.42538c0,0.23396 -1.08152,0.42538 -2.40387,0.42538c-1.32235,0 -2.5276,0.19142 -2.67784,0.42538c-0.15024,0.23396 -1.46597,0.42538 -2.9242,0.42538c-1.65487,0 -2.54859,0.15952 -2.37847,0.42538c0.16902,0.26373 -0.64958,0.42538 -2.15752,0.42538c-1.33671,0 -2.55853,0.19886 -2.7143,0.44239c-0.15687,0.24353 -0.63853,0.33498 -1.07268,0.20205c-0.43305,-0.13187 -1.36102,-0.03084 -2.06141,0.22651c-0.70039,0.25629 -1.96972,0.55193 -2.82035,0.65614c-4.38353,0.53917 -5.32807,0.72102 -5.55233,1.06982c-0.13478,0.2095 -1.01192,0.38071 -1.94873,0.38071c-0.93791,0 -1.77087,0.17334 -1.85262,0.38497c-0.08064,0.21163 -0.74348,0.4509 -1.47259,0.53066c-0.72912,0.07976 -1.42509,0.27011 -1.54661,0.42219c-0.12152,0.15314 -0.91692,0.34137 -1.76755,0.41793c-0.85064,0.07763 -1.65156,0.27862 -1.78081,0.44877c-0.12925,0.17015 -0.97436,0.35625 -1.87803,0.41474c-0.90366,0.05849 -1.64383,0.25948 -1.64383,0.44558c0,0.1861 -0.59655,0.33818 -1.32567,0.33818c-0.72912,0 -1.32567,0.19142 -1.32567,0.42538c0,0.23396 -0.59655,0.42538 -1.32567,0.42538c-0.72912,0 -1.32567,0.19142 -1.32567,0.42538c0,0.23396 -0.69597,0.42538 -1.54661,0.42538c-0.85064,0 -1.54661,0.19142 -1.54661,0.42538c0,0.23396 -0.34799,0.42857 -0.7733,0.43176c-0.90366,0.00744 -3.93391,0.97943 -4.37359,1.40375c-0.16681,0.16058 -0.75563,0.29138 -1.30799,0.29138c-0.55236,0 -1.12792,0.19142 -1.27816,0.42538c-0.15024,0.23396 -0.65952,0.42538 -1.13123,0.42538c-0.47172,0 -0.85726,0.19142 -0.85726,0.42538c0,0.23396 -0.59655,0.42538 -1.32567,0.42538c-0.72912,0 -1.32567,0.19142 -1.32567,0.42538c0,0.23396 -0.3977,0.42538 -0.88378,0.42538c-0.48608,0 -0.88378,0.19142 -0.88378,0.42538c0,0.23396 -0.59655,0.42538 -1.32567,0.42538c-0.72912,0 -1.32567,0.19142 -1.32567,0.42538c0,0.23396 -0.3977,0.42538 -0.88378,0.42538c-0.48608,0 -0.88378,0.19142 -0.88378,0.42538c0,0.23396 -0.38113,0.42538 -0.84732,0.42538c-0.46509,0 -0.9125,0.15101 -0.99425,0.33498c-0.08064,0.18398 -1.34003,0.8699 -2.79826,1.52392c-4.42441,1.98439 -4.63983,2.1003 -4.63983,2.49165c0,0.20844 -0.18228,0.27011 -0.40654,0.13718c-0.22315,-0.13293 -0.70592,0.04679 -1.07268,0.39985c-0.36677,0.35306 -0.95779,0.64232 -1.31462,0.64232c-0.35572,0 -0.76557,0.29883 -0.9114,0.66465c-0.14582,0.36582 -0.43526,0.56469 -0.64295,0.44133c-0.20769,-0.12442 -0.94233,0.34243 -1.63278,1.03579c-0.68935,0.69337 -1.4969,1.26124 -1.79296,1.26124c-0.46951,0 -2.94629,2.29917 -8.02359,7.44836c-0.78988,0.80077 -1.43614,1.70789 -1.43614,2.01416c0,0.30734 -0.3977,0.8348 -0.88378,1.17192c-0.48608,0.33711 -0.88378,1.04962 -0.88378,1.5824c0,0.53385 -0.19885,0.96986 -0.44189,0.96986c-0.24304,0 -0.44189,0.37114 -0.44189,0.82523c0,0.45409 -0.19885,0.94434 -0.44189,1.08897c-1.05611,0.6285 -0.1878,7.80887 1.43945,11.91057c1.33892,3.37537 5.95555,8.94994 9.31391,11.24698c7.60601,5.20343 19.53589,11.9361 21.14879,11.9361c0.18117,0 1.3798,0.46153 2.66238,1.02516c6.81503,2.99253 24.68058,8.32783 36.57954,10.92263c7.0658,1.54093 7.64688,1.66004 10.38438,2.12901c4.31615,0.74016 6.93434,1.2102 9.27966,1.66748c2.09566,0.40836 4.1416,0.7157 11.26816,1.69619c6.7388,0.92626 9.65527,1.29847 13.25666,1.69088c2.06583,0.22439 5.5457,0.61467 7.73305,0.86671c29.36681,3.3892 82.43652,3.38069 112.90253,-0.01702c2.30887,-0.25735 5.78874,-0.63807 7.73305,-0.8465c1.94431,-0.20737 4.97677,-0.57851 6.7388,-0.82311c5.53465,-0.76993 9.51165,-1.31761 12.48335,-1.72065c2.72977,-0.36902 3.89856,-0.56682 9.83202,-1.66004c1.39747,-0.25735 3.58482,-0.65934 4.86077,-0.89223c4.98782,-0.91243 13.24671,-2.75751 20.2164,-4.51645c8.45443,-2.13327 21.91104,-6.4668 27.83898,-8.96377c3.26666,-1.3761 10.90581,-5.04072 12.59382,-6.04143c2.82146,-1.67173 6.60844,-4.06661 6.84927,-4.33034c0.12152,-0.13293 1.31462,-1.01453 2.65133,-1.95886c4.71495,-3.33071 8.53287,-8.163 10.18995,-12.89958c1.11245,-3.17757 1.7554,-10.63444 0.91802,-10.63444c-0.27618,0 -0.50265,-0.47855 -0.50265,-1.06344c0,-0.58489 -0.19885,-1.06344 -0.44189,-1.06344c-0.24304,0 -0.44189,-0.3403 -0.44189,-0.75717c0,-0.41581 -0.3977,-1.0326 -0.88378,-1.36972c-0.48608,-0.33711 -0.88378,-0.86564 -0.88378,-1.17511c0,-0.70825 -0.26955,-1.01559 -4.95026,-5.65114c-2.11554,-2.09498 -4.05654,-3.80819 -4.31283,-3.80819c-0.2563,0 -1.09036,-0.57426 -1.85372,-1.27613c-0.76336,-0.70187 -1.65598,-1.27613 -1.98408,-1.27613c-0.32921,0 -0.59765,-0.19142 -0.59765,-0.42538c0,-0.23396 -0.3977,-0.42538 -0.88378,-0.42538c-0.48608,0 -0.88378,-0.19142 -0.88378,-0.42538c0,-0.23396 -0.21763,-0.42538 -0.48387,-0.42538c-0.26624,0 -1.02408,-0.37008 -1.6847,-0.82204c-0.65952,-0.45303 -1.73441,-0.95178 -2.3873,-1.11024c-0.654,-0.15739 -1.18868,-0.45728 -1.18868,-0.66572c0,-0.2095 -0.3977,-0.37965 -0.88378,-0.37965c-0.48608,0 -0.88378,-0.19142 -0.88378,-0.42538c0,-0.23396 -0.38555,-0.42538 -0.85726,-0.42538c-0.47172,0 -0.98099,-0.19142 -1.13123,-0.42538c-0.15024,-0.23396 -0.67057,-0.42538 -1.15664,-0.42538c-0.48608,0 -0.76115,-0.19142 -0.61091,-0.42538c0.15024,-0.23396 -0.13588,-0.42538 -0.63632,-0.42538c-0.50044,0 -0.91029,-0.19142 -0.91029,-0.42538c0,-0.23396 -0.59655,-0.42538 -1.32567,-0.42538c-0.72912,0 -1.32567,-0.19142 -1.32567,-0.42538c0,-0.23396 -0.3977,-0.42538 -0.88378,-0.42538c-0.48608,0 -0.88378,-0.19142 -0.88378,-0.42538c0,-0.23396 -0.59655,-0.42538 -1.32567,-0.42538c-0.72912,0 -1.32567,-0.19142 -1.32567,-0.42538c0,-0.23396 -0.3977,-0.42538 -0.88378,-0.42538c-0.48608,0 -0.88378,-0.19142 -0.88378,-0.42538c0,-0.23396 -0.48497,-0.42538 -1.07821,-0.42538c-0.59324,0 -1.20194,-0.19142 -1.35218,-0.42538c-0.15024,-0.23396 -0.85837,-0.42538 -1.57312,-0.42538c-0.71475,0 -1.29915,-0.19142 -1.29915,-0.42538c0,-0.23396 -0.49712,-0.42538 -1.10472,-0.42538c-0.6076,0 -1.10472,-0.17015 -1.10472,-0.37859c0,-0.20844 -0.74569,-0.50088 -1.65708,-0.65083c-4.03334,-0.66146 -4.52936,-0.78589 -4.52936,-1.14427c0,-0.20844 -0.59655,-0.37859 -1.32567,-0.37859c-0.72912,0 -1.32567,-0.19142 -1.32567,-0.42538c0,-0.23396 -0.7954,-0.42538 -1.76755,-0.42538c-0.97215,0 -1.76755,-0.19142 -1.76755,-0.42538c0,-0.23396 -0.68382,-0.42538 -1.5201,-0.42538c-0.83627,0 -1.64383,-0.19142 -1.79407,-0.42538c-0.15024,-0.23396 -0.95779,-0.42538 -1.79407,-0.42538c-0.83627,0 -1.5201,-0.17228 -1.5201,-0.38284c0,-0.21056 -0.84511,-0.47961 -1.87803,-0.59978c-1.03291,-0.11911 -2.77285,-0.43814 -3.86652,-0.70719c-3.04351,-0.75079 -6.25604,-1.33781 -7.81259,-1.42927c-0.7722,-0.04573 -1.55103,-0.22332 -1.7311,-0.3956c-0.17896,-0.17228 -1.2859,-0.31372 -2.46132,-0.31372c-1.17432,0 -2.13543,-0.19142 -2.13543,-0.42538c0,-0.23608 -1.17874,-0.42538 -2.65133,-0.42538c-1.47259,0 -2.65133,-0.18929 -2.65133,-0.42538c0,-0.23608 -1.17874,-0.42538 -2.65133,-0.42538c-1.47259,0 -2.65133,-0.18929 -2.65133,-0.42538c0,-0.23927 -1.24281,-0.42538 -2.84576,-0.42538c-1.56539,0 -2.96949,-0.19142 -3.11973,-0.42538c-0.15024,-0.23396 -1.55434,-0.42538 -3.11973,-0.42538c-1.60295,0 -2.84576,-0.1861 -2.84576,-0.42538c0,-0.25204 -1.62063,-0.42538 -3.977,-0.42538c-2.35637,0 -3.977,-0.17334 -3.977,-0.42538c0,-0.24991 -1.54661,-0.42538 -3.75605,-0.42538c-2.20944,0 -3.75605,-0.17547 -3.75605,-0.42538c0,-0.26054 -2.12659,-0.42538 -5.49709,-0.42538c-3.18933,0 -5.61309,-0.17866 -5.77106,-0.42538c-0.1646,-0.25523 -3.17166,-0.42538 -7.53862,-0.42538c-4.54814,0 -7.26465,-0.15952 -7.26465,-0.42538c0,-0.27969 -9.86848,-0.42538 -28.72276,-0.42538c-18.85428,0 -28.72276,0.14569 -28.72276,0.42538m55.66581,37.85754c15.1612,0.88053 30.7455,2.23004 39.56118,3.42535c26.92758,3.65187 35.73553,5.75323 37.47105,8.94144c2.47347,4.54516 -0.06407,6.98045 -9.2664,8.88933c-44.94449,9.32321 -102.59106,11.17999 -157.45705,5.07156c-13.50191,-1.50371 -37.20591,-5.73303 -39.20877,-6.9964c-3.31637,-2.09179 -3.29649,-7.22929 0.03535,-9.33172c2.30334,-1.4516 25.91566,-5.57776 41.38286,-7.22929c12.5651,-1.34207 19.86952,-1.95461 32.47881,-2.72029c8.38705,-0.51045 46.4911,-0.54448 55.00298,-0.04998" id="svg_254"/>
    <path fill-rule="evenodd" fill="#6e6c76" d="m716.39701,642.22029c-0.46288,0.44452 -0.34467,2.26833 0.14693,2.26833c0.24304,0 0.44189,-0.57426 0.44189,-1.27613c0,-1.32186 -0.08948,-1.47287 -0.58882,-0.99219m-360.96994,1.55901c-0.12704,0.63807 0.01326,0.99326 0.38997,0.99326c0.32368,0 0.58771,-0.44665 0.58771,-0.99326c0,-0.54555 -0.17565,-0.99219 -0.38997,-0.99219c-0.21542,0 -0.47945,0.44665 -0.58771,0.99219m10.99419,16.30685c-0.16239,0.15526 -0.27176,0.77738 -0.24414,1.38248c0.04087,0.87202 0.0939,0.92307 0.2585,0.24778c0.11379,-0.46792 0.52695,-1.09003 0.91692,-1.38248c0.61643,-0.46153 0.62085,-0.53172 0.03646,-0.53172c-0.37008,0 -0.80645,0.12761 -0.96774,0.28394m338.01714,0.07019c-0.14251,0.22013 0.07402,0.37433 0.47945,0.34243c0.52585,-0.04147 0.95558,0.61148 1.49911,2.28109c0.41869,1.28677 0.77662,2.05245 0.79761,1.70151c0.13588,-2.37467 -1.94652,-5.61817 -2.77616,-4.32503m-338.8733,2.88087c-0.17786,0.17015 -0.31043,0.80396 -0.29496,1.40906l0.02872,1.09854l0.42642,-1.02729c0.45956,-1.10598 0.36456,-1.98545 -0.16018,-1.48031m341.73674,2.93298c0.04198,1.45266 0.77772,2.80962 0.80866,1.48882c0.01326,-0.58489 -0.16902,-1.35057 -0.40433,-1.70151c-0.35351,-0.5264 -0.42421,-0.48918 -0.40433,0.21269m-342.64813,0.07125c-0.16239,0.15526 -0.29496,0.74228 -0.29496,1.30378c0,0.5615 -0.211,1.40056 -0.46951,1.86528c-0.2585,0.46473 -0.40322,1.2655 -0.32258,1.78021c0.08838,0.56256 0.45846,-0.22864 0.93018,-1.9897c0.75121,-2.80537 0.79209,-3.57211 0.15687,-2.95956m343.52528,3.1999c0.07512,1.34845 0.78877,2.31618 0.82191,1.11449c0.01657,-0.62956 -0.16792,-1.26337 -0.41096,-1.408c-0.24304,-0.14463 -0.42753,-0.01276 -0.41096,0.29351m1.13013,3.73801c0.42753,2.26833 1.39747,5.0035 1.44608,4.08043c0.04419,-0.81353 -0.59986,-3.07654 -1.34003,-4.70893c-0.26403,-0.58383 -0.29717,-0.38603 -0.10605,0.6285m-346.42296,-0.55724c-0.16239,0.15526 -0.27729,0.87309 -0.25519,1.59517l0.03977,1.31123l0.42753,-1.42927c0.42642,-1.42821 0.34246,-2.01204 -0.21211,-1.47712m-0.85616,3.37643c-0.17786,0.17015 -0.31043,0.80396 -0.29496,1.40906l0.02872,1.09854l0.42642,-1.02729c0.45956,-1.10598 0.36456,-1.98545 -0.16018,-1.48031m349.00028,3.61465c0.60318,2.64479 1.56539,5.15877 1.28479,3.35942c-0.53469,-3.43492 -0.75232,-4.27504 -1.1699,-4.52389c-0.28281,-0.16802 -0.32368,0.24991 -0.11489,1.16447m-349.91167,-0.61042c-0.16239,0.15526 -0.29496,0.8146 -0.29496,1.4633c0,0.6487 -0.17676,1.2857 -0.39328,1.41438c-0.21542,0.12868 -0.50044,0.85714 -0.6308,1.61963c-0.39549,2.30023 -0.78988,3.89221 -1.18537,4.78975c-0.20658,0.46792 -0.47613,1.32931 -0.59876,1.9142c-0.12262,0.58489 -0.44962,1.82912 -0.7258,2.76495c-0.27618,0.93583 -0.67388,2.37148 -0.88488,3.19033c-0.211,0.81885 -0.6087,2.2545 -0.88378,3.19033c-0.97768,3.32326 -1.23176,5.05987 -0.86721,5.92764c0.29165,0.69443 0.37561,0.52428 0.3977,-0.81353c0.01547,-0.93051 1.53004,-7.02936 3.36719,-13.55253c3.10648,-11.03536 3.47324,-12.65392 2.69994,-11.90845m351.44834,5.89148c0,0.60297 5.46395,19.75879 5.59873,19.62905c0.17013,-0.16377 -0.45846,-3.14248 -1.18205,-5.59903c-0.27618,-0.93583 -0.60207,-2.18006 -0.7247,-2.76495c-0.12262,-0.58489 -0.39218,-1.44628 -0.59876,-1.9142c-0.39549,-0.89755 -0.78988,-2.48952 -1.18537,-4.78975c-0.13036,-0.76249 -0.41538,-1.49095 -0.6308,-1.61963c-0.21653,-0.12868 -0.39328,-0.78589 -0.39328,-1.46011c0,-0.67422 -0.19885,-1.34419 -0.44189,-1.48882c-0.24304,-0.14463 -0.44189,-0.14144 -0.44189,0.00744m-226.79379,7.73762c0.54905,0.10209 1.34445,0.09784 1.76755,-0.00851c0.422,-0.10634 -0.02762,-0.19036 -0.99977,-0.18504c-0.97215,0.00425 -1.31793,0.09146 -0.76778,0.19355m99.42493,0c0.54905,0.10209 1.34445,0.09784 1.76755,-0.00851c0.422,-0.10634 -0.02762,-0.19036 -0.99977,-0.18504c-0.97215,0.00425 -1.31793,0.09146 -0.76778,0.19355m-81.52844,1.28039c0.67278,0.09784 1.66702,0.09571 2.20944,-0.00532c0.54352,-0.10103 -0.00552,-0.18185 -1.22072,-0.17866c-1.21519,0.00319 -1.6604,0.08614 -0.98873,0.18398m63.19007,0c0.67278,0.09784 1.66702,0.09571 2.20944,-0.00532c0.54352,-0.10103 -0.00552,-0.18185 -1.22072,-0.17866c-1.21519,0.00319 -1.6604,0.08614 -0.98873,0.18398m-51.03813,0.42112c0.54905,0.10209 1.34445,0.09784 1.76755,-0.00851c0.422,-0.10634 -0.02762,-0.19036 -0.99977,-0.18504c-0.97215,0.00425 -1.31793,0.09146 -0.76778,0.19355m39.32808,0c0.54905,0.10209 1.34445,0.09784 1.76755,-0.00851c0.422,-0.10634 -0.02762,-0.19036 -0.99977,-0.18504c-0.97215,0.00425 -1.31793,0.09146 -0.76778,0.19355m-27.83788,0.43282l1.44387,0.17228l-0.11821,24.64425c-0.07733,16.2909 0.03314,24.5964 0.32479,24.50281c0.66173,-0.21269 0.82854,-48.28461 0.17013,-49.04817c-0.27397,-0.31903 -1.12129,-0.54874 -1.88134,-0.51152l-1.38201,0.06806l1.44277,0.17228m16.10021,0.20205c-0.78546,0.75611 -0.76336,48.11765 0.02209,48.74508c0.44078,0.35306 0.52916,-4.51857 0.43526,-24.16677l-0.11821,-24.60809l1.44387,-0.17228l1.44277,-0.17228l-1.34776,-0.06806c-0.74127,-0.03722 -1.58638,0.16164 -1.87803,0.44239m-219.15464,46.16091c0.66836,0.09677 1.76203,0.09677 2.43039,0c0.66836,-0.09784 0.12152,-0.1776 -1.21519,-0.1776c-1.33671,0 -1.88355,0.07976 -1.21519,0.1776m21.65806,0c0.67278,0.09784 1.66702,0.09571 2.20944,-0.00532c0.54352,-0.10103 -0.00552,-0.18185 -1.22072,-0.17866c-1.21519,0.00319 -1.6604,0.08614 -0.98873,0.18398m378.91393,-0.00532c0.54684,0.10209 1.44166,0.10209 1.9885,0c0.54684,-0.10103 0.09942,-0.18398 -0.99425,-0.18398c-1.09367,0 -1.54109,0.08295 -0.99425,0.18398m21.21838,0.00851c0.79429,0.09465 1.98739,0.09252 2.65133,-0.00425c0.66394,-0.09677 0.01436,-0.1744 -1.44387,-0.17228c-1.45823,0.00213 -2.00176,0.08189 -1.20746,0.17653" id="svg_253"/>
    <path fill-rule="evenodd" fill="#646474" d="m366.86757,660.54662c-0.30601,0.49982 -0.87163,3.3222 -0.61864,3.08399c0.29054,-0.27224 1.18426,-3.40302 0.97215,-3.40302c-0.08727,0 -0.24635,0.14356 -0.35351,0.31903m338.01051,0.00638c0.26734,0.17228 0.69929,0.88691 0.9589,1.58879c0.26071,0.70187 0.48939,1.04962 0.50817,0.77206c0.06739,-0.95923 -0.82854,-2.68626 -1.38974,-2.67988c-0.38665,0.00425 -0.41096,0.10422 -0.07733,0.31903m-2.49115,1.40694l-1.53004,1.30697l1.65708,-1.14533c1.46486,-1.01134 1.941,-1.46862 1.53004,-1.46862c-0.0696,0 -0.81528,0.58808 -1.65708,1.30697m4.06869,2.09605c0.02209,1.10492 0.71807,2.92022 0.73354,1.9142c0.00663,-0.46792 -0.15798,-1.2336 -0.36677,-1.70151c-0.2331,-0.52109 -0.3745,-0.60404 -0.36677,-0.21269m-341.17664,1.94929c-0.28502,1.09109 -0.43526,2.06202 -0.33363,2.15985c0.10053,0.09784 0.41758,-0.71463 0.7026,-1.80466c0.28502,-1.09109 0.43526,-2.06202 0.33363,-2.15985c-0.10053,-0.09784 -0.41758,0.71463 -0.7026,1.80466m342.04716,1.45373c0,0.35094 0.17123,1.02091 0.38002,1.48882c0.23972,0.53598 0.38002,0.61467 0.38002,0.21269c0,-0.35094 -0.17123,-1.02091 -0.38002,-1.48882c-0.23972,-0.53598 -0.38002,-0.61467 -0.38002,-0.21269m-343.56505,4.10383c-0.42642,1.5388 -0.69487,2.87555 -0.59765,2.96914c0.09722,0.09358 0.53027,-1.08471 0.96111,-2.61926c0.43195,-1.53455 0.70039,-2.87024 0.59765,-2.96914c-0.10274,-0.0989 -0.53469,1.0794 -0.96111,2.61926m344.66314,-0.27543c0.15466,0.81885 0.45404,1.87166 0.66725,2.33958c0.26513,0.58383 0.29827,0.3839 0.10605,-0.63807c-0.15466,-0.81885 -0.45404,-1.87166 -0.66725,-2.33958c-0.26513,-0.58383 -0.29827,-0.3839 -0.10605,0.63807m1.08926,3.8284c-0.03204,0.73165 1.62725,5.96379 1.6858,5.31722c0.02099,-0.23396 -0.34357,-1.66961 -0.80976,-3.19033c-0.46619,-1.52072 -0.86058,-2.47782 -0.87604,-2.12689m-346.87148,0.49663c-0.02762,0.39028 -0.16571,1.06025 -0.3049,1.48882c-0.24083,0.73909 -0.22868,0.74016 0.25077,0.02127c0.27729,-0.41581 0.41538,-1.08578 0.3049,-1.48882c-0.17896,-0.65827 -0.20437,-0.6604 -0.25077,-0.02127m-1.1003,3.81032c-0.36787,1.77276 -0.01105,2.11625 0.38665,0.37221c0.16792,-0.73484 0.21321,-1.42608 0.10053,-1.53349c-0.11268,-0.10847 -0.33142,0.41368 -0.48718,1.16128m349.7062,2.3215c0.00331,0.44877 0.20879,1.10279 0.45515,1.45373c0.3281,0.46579 0.36898,0.29351 0.15245,-0.63807c-0.36345,-1.56433 -0.61643,-1.90356 -0.6076,-0.81566m-350.61317,0.8465c-0.1635,0.62318 -0.19664,1.22828 -0.07512,1.34526c0.12152,0.11698 0.35351,-0.2967 0.51701,-0.91988c0.16239,-0.62424 0.19554,-1.22934 0.07402,-1.34632c-0.12152,-0.11698 -0.35351,0.2967 -0.5159,0.92094m351.56544,2.09605c-0.00663,0.46792 0.15798,1.2336 0.36677,1.70151c0.48387,1.08365 0.48387,-0.03403 0,-1.48882c-0.28391,-0.85501 -0.35683,-0.89648 -0.36677,-0.21269m-352.42602,1.11662c-0.36787,1.77276 -0.01105,2.11625 0.38665,0.37221c0.16792,-0.73484 0.21321,-1.42608 0.10053,-1.53349c-0.11268,-0.10847 -0.33142,0.41368 -0.48718,1.16128m273.47379,0.37221c-0.85174,0.352 -0.84953,0.36689 0.08396,0.3956c0.53248,0.01595 1.09146,-0.16164 1.24171,-0.3956c0.32258,-0.50301 -0.10937,-0.50301 -1.32567,0m-4.63983,0.85076c-0.91029,0.28075 -0.94896,0.34668 -0.22094,0.37646c0.48608,0.02021 1.18205,-0.14995 1.54661,-0.37646c0.77441,-0.48174 0.23641,-0.48174 -1.32567,0m84.43828,1.06344c-0.01326,0.46792 0.16902,1.13789 0.40433,1.48882c0.56783,0.84544 0.56783,-0.21694 0,-1.48882l-0.38002,-0.85076l-0.0243,0.85076m-354.17921,0.8816c-0.1635,0.62318 -0.19664,1.22828 -0.07512,1.34526c0.12152,0.11698 0.35351,-0.2967 0.51701,-0.91988c0.16239,-0.62424 0.19554,-1.22934 0.07402,-1.34632c-0.12152,-0.11698 -0.35351,0.2967 -0.5159,0.92094m93.64834,-0.25416c0.84401,0.35944 3.66105,0.60297 3.27771,0.28288c-0.10163,-0.08508 -1.07931,-0.26799 -2.17299,-0.4073c-1.32788,-0.16909 -1.69464,-0.12761 -1.10472,0.12442m165.70821,0.01063c-1.20304,0.29457 -1.22293,0.32648 -0.22094,0.34562c0.6076,0.01063 1.50242,-0.14463 1.9885,-0.34562c1.08926,-0.4509 0.07291,-0.4509 -1.76755,0m-158.30658,1.14427c0.42532,0.10634 1.12129,0.10634 1.54661,0c0.42532,-0.10741 0.07733,-0.19461 -0.7733,-0.19461c-0.85064,0 -1.19862,0.0872 -0.7733,0.19461m151.12589,0c0.42532,0.10634 1.12129,0.10634 1.54661,0c0.42532,-0.10741 0.07733,-0.19461 -0.7733,-0.19461c-0.85064,0 -1.19862,0.0872 -0.7733,0.19461m-144.71298,0.8582c0.54905,0.10209 1.34445,0.09784 1.76755,-0.00851c0.422,-0.10634 -0.02762,-0.19036 -0.99977,-0.18504c-0.97215,0.00425 -1.31793,0.09146 -0.76778,0.19355m138.52654,-0.00744c0.42532,0.10634 1.12129,0.10634 1.54661,0c0.42532,-0.10741 0.07733,-0.19461 -0.7733,-0.19461c-0.85064,0 -1.19862,0.0872 -0.7733,0.19461m109.11113,0.34456c-0.00663,0.46792 0.15798,1.2336 0.36677,1.70151c0.48387,1.08365 0.48387,-0.03403 0,-1.48882c-0.28391,-0.85501 -0.35683,-0.89648 -0.36677,-0.21269m-356.41959,2.58949c-0.96221,3.68909 -0.6308,4.00706 0.38997,0.3754c0.43195,-1.53455 0.68714,-2.88406 0.56672,-2.99891c-0.11931,-0.11485 -0.55015,1.06557 -0.95669,2.62352m116.2885,-2.07691c0.54684,0.10209 1.44166,0.10209 1.9885,0c0.54684,-0.10103 0.09942,-0.18398 -0.99425,-0.18398c-1.09367,0 -1.54109,0.08295 -0.99425,0.18398m122.84502,0c0.54684,0.10209 1.44166,0.10209 1.9885,0c0.54684,-0.10103 0.09942,-0.18398 -0.99425,-0.18398c-1.09367,0 -1.54109,0.08295 -0.99425,0.18398m-114.66456,0.85607c0.67278,0.09784 1.66702,0.09571 2.20944,-0.00532c0.54352,-0.10103 -0.00552,-0.18185 -1.22072,-0.17866c-1.21519,0.00319 -1.6604,0.08614 -0.98873,0.18398m106.48962,0c0.66836,0.09677 1.76203,0.09677 2.43039,0c0.66836,-0.09784 0.12152,-0.1776 -1.21519,-0.1776c-1.33671,0 -1.88355,0.07976 -1.21519,0.1776m-5.74455,0.41368c0.42532,0.10634 1.12129,0.10634 1.54661,0c0.42532,-0.10741 0.07733,-0.19461 -0.7733,-0.19461c-0.85064,0 -1.19862,0.0872 -0.7733,0.19461m-89.70338,0.44133c0.9114,0.09252 2.40277,0.09252 3.31416,0c0.9114,-0.09146 0.16571,-0.16696 -1.65708,-0.16696c-1.82279,0 -2.56848,0.0755 -1.65708,0.16696m83.30815,0.00213c1.03844,0.09039 2.62924,0.08933 3.53511,-0.00213c0.90477,-0.09146 0.05413,-0.16483 -1.89018,-0.16377c-1.94431,0.00213 -2.68447,0.07657 -1.64493,0.1659m-75.79604,0.4073c0.42532,0.10634 1.12129,0.10634 1.54661,0c0.42532,-0.10741 0.07733,-0.19461 -0.7733,-0.19461c-0.85064,0 -1.19862,0.0872 -0.7733,0.19461m69.81839,0c0.42532,0.10634 1.12129,0.10634 1.54661,0c0.42532,-0.10741 0.07733,-0.19461 -0.7733,-0.19461c-0.85064,0 -1.19862,0.0872 -0.7733,0.19461m-62.74818,0.44665c1.39747,0.08401 3.68425,0.08401 5.08172,0c1.39747,-0.08508 0.25409,-0.1542 -2.54086,-0.1542c-2.79495,0 -3.93833,0.06912 -2.54086,0.1542m52.38147,0.00106c1.52783,0.08295 3.91403,0.08189 5.30266,-0.00213c1.38753,-0.08401 0.13699,-0.15207 -2.77948,-0.15101c-2.91646,0 -4.05212,0.06912 -2.52318,0.15314m154.79136,0.32222c-0.01326,0.46792 0.16902,1.13789 0.40433,1.48882c0.56783,0.84544 0.56783,-0.21694 0,-1.48882l-0.38002,-0.85076l-0.0243,0.85076m-195.00653,0.10103c1.28479,0.08614 3.27329,0.08614 4.41889,-0.00213c1.1467,-0.0872 0.09611,-0.15739 -2.33428,-0.15633c-2.43039,0.00106 -3.3683,0.07231 -2.08461,0.15845m28.72276,0c1.28479,0.08614 3.27329,0.08614 4.41889,-0.00213c1.1467,-0.0872 0.09611,-0.15739 -2.33428,-0.15633c-2.43039,0.00106 -3.3683,0.07231 -2.08461,0.15845m-20.02418,24.57087c0,13.56955 0.05634,19.1824 0.12483,12.47313c0.06849,-6.71033 0.06849,-17.81269 0,-24.6719c-0.06849,-6.86028 -0.12483,-1.37078 -0.12483,12.19877m15.4661,0c0,13.56955 0.05634,19.1824 0.12483,12.47313c0.06849,-6.71033 0.06849,-17.81269 0,-24.6719c-0.06849,-6.86028 -0.12483,-1.37078 -0.12483,12.19877m171.6947,-21.65916c0.00331,0.44877 0.20879,1.10279 0.45515,1.45373c0.3281,0.46579 0.36898,0.29351 0.15245,-0.63807c-0.36345,-1.56433 -0.61643,-1.90356 -0.6076,-0.81566m-359.45094,0.8465c-0.1635,0.62318 -0.19664,1.22828 -0.07512,1.34526c0.12152,0.11698 0.35351,-0.2967 0.51701,-0.91988c0.16239,-0.62424 0.19554,-1.22934 0.07402,-1.34632c-0.12152,-0.11698 -0.35351,0.2967 -0.5159,0.92094m360.37891,2.30874c-0.02099,0.58489 0.15577,1.35057 0.39107,1.70151c0.54573,0.81247 0.54573,-0.06168 0,-1.70151l-0.35351,-1.06344l-0.03756,1.06344m-361.23949,0.90393c-0.36787,1.77276 -0.01105,2.11625 0.38665,0.37221c0.16792,-0.73484 0.21321,-1.42608 0.10053,-1.53349c-0.11268,-0.10847 -0.33142,0.41368 -0.48718,1.16128" id="svg_252"/>
   </g>
  </g>
 </g>
</svg>